<svg xmlns="http://www.w3.org/2000/svg" width="980" height="560" viewBox="0 0 980 560">
<rect x="0" y="0" width="100%" height="100%" fill="#ffffff" />
<line x1="90" y1="430.00" x2="940" y2="430.00" stroke="#d1d5db" stroke-width="1" />
<text x="76" y="435.00" text-anchor="end" font-family="Arial, sans-serif" font-size="12" fill="#374151">1</text>
<line x1="90" y1="340.00" x2="940" y2="340.00" stroke="#d1d5db" stroke-width="1" />
<text x="76" y="345.00" text-anchor="end" font-family="Arial, sans-serif" font-size="12" fill="#374151">2</text>
<line x1="90" y1="250.00" x2="940" y2="250.00" stroke="#d1d5db" stroke-width="1" />
<text x="76" y="255.00" text-anchor="end" font-family="Arial, sans-serif" font-size="12" fill="#374151">3</text>
<line x1="90" y1="160.00" x2="940" y2="160.00" stroke="#d1d5db" stroke-width="1" />
<text x="76" y="165.00" text-anchor="end" font-family="Arial, sans-serif" font-size="12" fill="#374151">4</text>
<line x1="90" y1="70.00" x2="940" y2="70.00" stroke="#d1d5db" stroke-width="1" />
<text x="76" y="75.00" text-anchor="end" font-family="Arial, sans-serif" font-size="12" fill="#374151">5</text>
<line x1="90" y1="70" x2="90" y2="430" stroke="#111827" stroke-width="1.5" />
<line x1="90" y1="430" x2="940" y2="430" stroke="#111827" stroke-width="1.5" />
<line x1="515.00" y1="70" x2="515.00" y2="430" stroke="#4b5563" stroke-width="1.2" />
<text x="28" y="250.00" transform="rotate(-90 28 250.00)" font-family="Arial, sans-serif" font-size="13" fill="#111827">Quality (1-5)</text>
<text x="515.00" y="535" text-anchor="middle" font-family="Arial, sans-serif" font-size="13" fill="#111827">Group</text>
<polygon points="514.85,430.00 514.81,427.75 514.76,425.50 514.69,423.25 514.62,421.00 514.52,418.75 514.41,416.50 514.28,414.25 514.12,412.00 513.93,409.75 513.72,407.50 513.46,405.25 513.17,403.00 512.84,400.75 512.46,398.50 512.03,396.25 511.55,394.00 511.02,391.75 510.43,389.50 509.79,387.25 509.10,385.00 508.35,382.75 507.56,380.50 506.72,378.25 505.84,376.00 504.93,373.75 504.00,371.50 503.05,369.25 502.10,367.00 501.15,364.75 500.23,362.50 499.34,360.25 498.50,358.00 497.71,355.75 496.99,353.50 496.34,351.25 495.79,349.00 495.33,346.75 494.97,344.50 494.71,342.25 494.55,340.00 494.48,337.75 494.51,335.50 494.62,333.25 494.80,331.00 495.04,328.75 495.32,326.50 495.62,324.25 495.91,322.00 496.19,319.75 496.41,317.50 496.57,315.25 496.63,313.00 496.57,310.75 496.38,308.50 496.03,306.25 495.50,304.00 494.78,301.75 493.86,299.50 492.73,297.25 491.40,295.00 489.85,292.75 488.11,290.50 486.18,288.25 484.08,286.00 481.83,283.75 479.46,281.50 477.01,279.25 474.50,277.00 471.98,274.75 469.48,272.50 467.05,270.25 464.73,268.00 462.57,265.75 460.59,263.50 458.85,261.25 457.37,259.00 456.18,256.75 455.30,254.50 454.75,252.25 454.55,250.00 454.68,247.75 455.15,245.50 455.94,243.25 457.04,241.00 458.41,238.75 460.04,236.50 461.87,234.25 463.87,232.00 466.00,229.75 468.20,227.50 470.45,225.25 472.68,223.00 474.85,220.75 476.92,218.50 478.86,216.25 480.63,214.00 482.20,211.75 483.54,209.50 484.65,207.25 485.50,205.00 486.09,202.75 486.42,200.50 486.50,198.25 486.34,196.00 485.96,193.75 485.38,191.50 484.63,189.25 483.74,187.00 482.74,184.75 481.67,182.50 480.57,180.25 479.46,178.00 478.39,175.75 477.40,173.50 476.51,171.25 475.76,169.00 475.16,166.75 474.75,164.50 474.54,162.25 474.55,160.00 474.77,157.75 475.21,155.50 475.87,153.25 476.74,151.00 477.81,148.75 479.07,146.50 480.48,144.25 482.04,142.00 483.72,139.75 485.49,137.50 487.33,135.25 489.21,133.00 491.11,130.75 493.00,128.50 494.86,126.25 496.68,124.00 498.44,121.75 500.12,119.50 501.71,117.25 503.20,115.00 504.59,112.75 505.87,110.50 507.04,108.25 508.10,106.00 509.06,103.75 509.92,101.50 510.68,99.25 511.34,97.00 511.93,94.75 512.43,92.50 512.87,90.25 513.24,88.00 513.56,85.75 513.83,83.50 514.05,81.25 514.23,79.00 514.39,76.75 514.51,74.50 514.61,72.25 514.70,70.00 515.00,70.00 515.00,72.25 515.00,74.50 515.00,76.75 515.00,79.00 515.00,81.25 515.00,83.50 515.00,85.75 515.00,88.00 515.00,90.25 515.00,92.50 515.00,94.75 515.00,97.00 515.00,99.25 515.00,101.50 515.00,103.75 515.00,106.00 515.00,108.25 515.00,110.50 515.00,112.75 515.00,115.00 515.00,117.25 515.00,119.50 515.00,121.75 515.00,124.00 515.00,126.25 515.00,128.50 515.00,130.75 515.00,133.00 515.00,135.25 515.00,137.50 515.00,139.75 515.00,142.00 515.00,144.25 515.00,146.50 515.00,148.75 515.00,151.00 515.00,153.25 515.00,155.50 515.00,157.75 515.00,160.00 515.00,162.25 515.00,164.50 515.00,166.75 515.00,169.00 515.00,171.25 515.00,173.50 515.00,175.75 515.00,178.00 515.00,180.25 515.00,182.50 515.00,184.75 515.00,187.00 515.00,189.25 515.00,191.50 515.00,193.75 515.00,196.00 515.00,198.25 515.00,200.50 515.00,202.75 515.00,205.00 515.00,207.25 515.00,209.50 515.00,211.75 515.00,214.00 515.00,216.25 515.00,218.50 515.00,220.75 515.00,223.00 515.00,225.25 515.00,227.50 515.00,229.75 515.00,232.00 515.00,234.25 515.00,236.50 515.00,238.75 515.00,241.00 515.00,243.25 515.00,245.50 515.00,247.75 515.00,250.00 515.00,252.25 515.00,254.50 515.00,256.75 515.00,259.00 515.00,261.25 515.00,263.50 515.00,265.75 515.00,268.00 515.00,270.25 515.00,272.50 515.00,274.75 515.00,277.00 515.00,279.25 515.00,281.50 515.00,283.75 515.00,286.00 515.00,288.25 515.00,290.50 515.00,292.75 515.00,295.00 515.00,297.25 515.00,299.50 515.00,301.75 515.00,304.00 515.00,306.25 515.00,308.50 515.00,310.75 515.00,313.00 515.00,315.25 515.00,317.50 515.00,319.75 515.00,322.00 515.00,324.25 515.00,326.50 515.00,328.75 515.00,331.00 515.00,333.25 515.00,335.50 515.00,337.75 515.00,340.00 515.00,342.25 515.00,344.50 515.00,346.75 515.00,349.00 515.00,351.25 515.00,353.50 515.00,355.75 515.00,358.00 515.00,360.25 515.00,362.50 515.00,364.75 515.00,367.00 515.00,369.25 515.00,371.50 515.00,373.75 515.00,376.00 515.00,378.25 515.00,380.50 515.00,382.75 515.00,385.00 515.00,387.25 515.00,389.50 515.00,391.75 515.00,394.00 515.00,396.25 515.00,398.50 515.00,400.75 515.00,403.00 515.00,405.25 515.00,407.50 515.00,409.75 515.00,412.00 515.00,414.25 515.00,416.50 515.00,418.75 515.00,421.00 515.00,423.25 515.00,425.50 515.00,427.75 515.00,430.00" fill="#3b82b6" fill-opacity="0.9" stroke="#4b5563" stroke-width="1.2" />
<polygon points="515.00,430.00 515.00,427.75 515.00,425.50 515.00,423.25 515.00,421.00 515.00,418.75 515.00,416.50 515.00,414.25 515.00,412.00 515.00,409.75 515.00,407.50 515.00,405.25 515.00,403.00 515.00,400.75 515.00,398.50 515.00,396.25 515.00,394.00 515.00,391.75 515.00,389.50 515.00,387.25 515.00,385.00 515.00,382.75 515.00,380.50 515.00,378.25 515.00,376.00 515.00,373.75 515.00,371.50 515.00,369.25 515.00,367.00 515.00,364.75 515.00,362.50 515.00,360.25 515.00,358.00 515.00,355.75 515.00,353.50 515.00,351.25 515.00,349.00 515.00,346.75 515.00,344.50 515.00,342.25 515.00,340.00 515.00,337.75 515.00,335.50 515.00,333.25 515.00,331.00 515.00,328.75 515.00,326.50 515.00,324.25 515.00,322.00 515.00,319.75 515.00,317.50 515.00,315.25 515.00,313.00 515.00,310.75 515.00,308.50 515.00,306.25 515.00,304.00 515.00,301.75 515.00,299.50 515.00,297.25 515.00,295.00 515.00,292.75 515.00,290.50 515.00,288.25 515.00,286.00 515.00,283.75 515.00,281.50 515.00,279.25 515.00,277.00 515.00,274.75 515.00,272.50 515.00,270.25 515.00,268.00 515.00,265.75 515.00,263.50 515.00,261.25 515.00,259.00 515.00,256.75 515.00,254.50 515.00,252.25 515.00,250.00 515.00,247.75 515.00,245.50 515.00,243.25 515.00,241.00 515.00,238.75 515.00,236.50 515.00,234.25 515.00,232.00 515.00,229.75 515.00,227.50 515.00,225.25 515.00,223.00 515.00,220.75 515.00,218.50 515.00,216.25 515.00,214.00 515.00,211.75 515.00,209.50 515.00,207.25 515.00,205.00 515.00,202.75 515.00,200.50 515.00,198.25 515.00,196.00 515.00,193.75 515.00,191.50 515.00,189.25 515.00,187.00 515.00,184.75 515.00,182.50 515.00,180.25 515.00,178.00 515.00,175.75 515.00,173.50 515.00,171.25 515.00,169.00 515.00,166.75 515.00,164.50 515.00,162.25 515.00,160.00 515.00,157.75 515.00,155.50 515.00,153.25 515.00,151.00 515.00,148.75 515.00,146.50 515.00,144.25 515.00,142.00 515.00,139.75 515.00,137.50 515.00,135.25 515.00,133.00 515.00,130.75 515.00,128.50 515.00,126.25 515.00,124.00 515.00,121.75 515.00,119.50 515.00,117.25 515.00,115.00 515.00,112.75 515.00,110.50 515.00,108.25 515.00,106.00 515.00,103.75 515.00,101.50 515.00,99.25 515.00,97.00 515.00,94.75 515.00,92.50 515.00,90.25 515.00,88.00 515.00,85.75 515.00,83.50 515.00,81.25 515.00,79.00 515.00,76.75 515.00,74.50 515.00,72.25 515.00,70.00 555.10,70.00 555.01,72.25 554.68,74.50 554.12,76.75 553.35,79.00 552.38,81.25 551.23,83.50 549.92,85.75 548.49,88.00 546.95,90.25 545.34,92.50 543.67,94.75 541.99,97.00 540.32,99.25 538.69,101.50 537.11,103.75 535.61,106.00 534.21,108.25 532.93,110.50 531.76,112.75 530.74,115.00 529.84,117.25 529.09,119.50 528.48,121.75 528.00,124.00 527.65,126.25 527.42,128.50 527.29,130.75 527.26,133.00 527.30,135.25 527.41,137.50 527.57,139.75 527.76,142.00 527.97,144.25 528.18,146.50 528.39,148.75 528.57,151.00 528.73,153.25 528.84,155.50 528.92,157.75 528.94,160.00 528.92,162.25 528.84,164.50 528.73,166.75 528.57,169.00 528.39,171.25 528.18,173.50 527.97,175.75 527.76,178.00 527.57,180.25 527.41,182.50 527.30,184.75 527.26,187.00 527.29,189.25 527.42,191.50 527.65,193.75 528.00,196.00 528.48,198.25 529.09,200.50 529.85,202.75 530.74,205.00 531.76,207.25 532.93,209.50 534.21,211.75 535.61,214.00 537.11,216.25 538.69,218.50 540.33,220.75 542.00,223.00 543.68,225.25 545.35,227.50 546.97,229.75 548.51,232.00 549.96,234.25 551.27,236.50 552.43,238.75 553.42,241.00 554.22,243.25 554.80,245.50 555.16,247.75 555.30,250.00 555.21,252.25 554.90,254.50 554.37,256.75 553.64,259.00 552.72,261.25 551.64,263.50 550.42,265.75 549.09,268.00 547.67,270.25 546.20,272.50 544.70,274.75 543.22,277.00 541.77,279.25 540.38,281.50 539.09,283.75 537.91,286.00 536.87,288.25 535.97,290.50 535.23,292.75 534.67,295.00 534.27,297.25 534.05,299.50 534.00,301.75 534.11,304.00 534.36,306.25 534.75,308.50 535.25,310.75 535.84,313.00 536.51,315.25 537.22,317.50 537.96,319.75 538.69,322.00 539.40,324.25 540.07,326.50 540.66,328.75 541.16,331.00 541.56,333.25 541.83,335.50 541.97,337.75 541.97,340.00 541.82,342.25 541.53,344.50 541.09,346.75 540.50,349.00 539.79,351.25 538.95,353.50 538.01,355.75 536.97,358.00 535.85,360.25 534.67,362.50 533.45,364.75 532.19,367.00 530.93,369.25 529.67,371.50 528.42,373.75 527.21,376.00 526.04,378.25 524.92,380.50 523.86,382.75 522.87,385.00 521.94,387.25 521.09,389.50 520.31,391.75 519.60,394.00 518.96,396.25 518.39,398.50 517.88,400.75 517.44,403.00 517.05,405.25 516.71,407.50 516.42,409.75 516.17,412.00 515.96,414.25 515.78,416.50 515.63,418.75 515.51,421.00 515.41,423.25 515.33,425.50 515.26,427.75 515.20,430.00" fill="#f28e2b" fill-opacity="0.9" stroke="#4b5563" stroke-width="1.2" />
<rect x="501.00" y="160.00" width="12.00" height="90.00" fill="white" stroke="#4b5563" stroke-width="1.2" />
<line x1="501.00" y1="250.00" x2="513.00" y2="250.00" stroke="#111827" stroke-width="1.6" />
<line x1="505.00" y1="160.00" x2="505.00" y2="160.00" stroke="#4b5563" stroke-width="1.1" />
<line x1="505.00" y1="250.00" x2="505.00" y2="340.00" stroke="#4b5563" stroke-width="1.1" />
<line x1="501.00" y1="160.00" x2="509.00" y2="160.00" stroke="#4b5563" stroke-width="1.1" />
<line x1="501.00" y1="340.00" x2="509.00" y2="340.00" stroke="#4b5563" stroke-width="1.1" />
<rect x="517.00" y="70.00" width="12.00" height="225.00" fill="white" stroke="#4b5563" stroke-width="1.2" />
<line x1="517.00" y1="250.00" x2="529.00" y2="250.00" stroke="#111827" stroke-width="1.6" />
<line x1="525.00" y1="70.00" x2="525.00" y2="70.00" stroke="#4b5563" stroke-width="1.1" />
<line x1="525.00" y1="295.00" x2="525.00" y2="340.00" stroke="#4b5563" stroke-width="1.1" />
<line x1="521.00" y1="70.00" x2="529.00" y2="70.00" stroke="#4b5563" stroke-width="1.1" />
<line x1="521.00" y1="340.00" x2="529.00" y2="340.00" stroke="#4b5563" stroke-width="1.1" />
<text x="433.40" y="498" text-anchor="middle" font-family="Arial, sans-serif" font-size="12.5" fill="#111827">Phase 1</text>
<text x="596.60" y="498" text-anchor="middle" font-family="Arial, sans-serif" font-size="12.5" fill="#111827">Phase 2</text>
<text x="433.40" y="516" text-anchor="middle" font-family="Arial, sans-serif" font-size="11.5" fill="#374151">n=12, M=3.17, SD=0.72</text>
<text x="596.60" y="516" text-anchor="middle" font-family="Arial, sans-serif" font-size="11.5" fill="#374151">n=9, M=3.56, SD=1.24</text>
<text x="490.00" y="30" text-anchor="middle" font-family="Arial, sans-serif" font-size="22" fill="#111827">P04: article quality</text>
</svg>