<svg xmlns="http://www.w3.org/2000/svg" width="980" height="560" viewBox="0 0 980 560">
<rect width="100%" height="100%" fill="#fbfaf7" />
<text x="40" y="35" font-family="Verdana, sans-serif" font-size="22" font-weight="700" fill="#1f2937">P17: article quality distribution</text>
<line x1="80" y1="470.00" x2="940" y2="470.00" stroke="#d1d5db" stroke-width="1" />
<text x="68" y="475.00" text-anchor="end" font-family="Verdana, sans-serif" font-size="12" fill="#4b5563">0</text>
<line x1="80" y1="459.74" x2="940" y2="459.74" stroke="#d1d5db" stroke-width="1" />
<text x="68" y="464.74" text-anchor="end" font-family="Verdana, sans-serif" font-size="12" fill="#4b5563">1</text>
<line x1="80" y1="449.47" x2="940" y2="449.47" stroke="#d1d5db" stroke-width="1" />
<text x="68" y="454.47" text-anchor="end" font-family="Verdana, sans-serif" font-size="12" fill="#4b5563">2</text>
<line x1="80" y1="439.21" x2="940" y2="439.21" stroke="#d1d5db" stroke-width="1" />
<text x="68" y="444.21" text-anchor="end" font-family="Verdana, sans-serif" font-size="12" fill="#4b5563">3</text>
<line x1="80" y1="428.95" x2="940" y2="428.95" stroke="#d1d5db" stroke-width="1" />
<text x="68" y="433.95" text-anchor="end" font-family="Verdana, sans-serif" font-size="12" fill="#4b5563">4</text>
<line x1="80" y1="418.68" x2="940" y2="418.68" stroke="#d1d5db" stroke-width="1" />
<text x="68" y="423.68" text-anchor="end" font-family="Verdana, sans-serif" font-size="12" fill="#4b5563">5</text>
<line x1="80" y1="408.42" x2="940" y2="408.42" stroke="#d1d5db" stroke-width="1" />
<text x="68" y="413.42" text-anchor="end" font-family="Verdana, sans-serif" font-size="12" fill="#4b5563">6</text>
<line x1="80" y1="398.16" x2="940" y2="398.16" stroke="#d1d5db" stroke-width="1" />
<text x="68" y="403.16" text-anchor="end" font-family="Verdana, sans-serif" font-size="12" fill="#4b5563">7</text>
<line x1="80" y1="387.89" x2="940" y2="387.89" stroke="#d1d5db" stroke-width="1" />
<text x="68" y="392.89" text-anchor="end" font-family="Verdana, sans-serif" font-size="12" fill="#4b5563">8</text>
<line x1="80" y1="377.63" x2="940" y2="377.63" stroke="#d1d5db" stroke-width="1" />
<text x="68" y="382.63" text-anchor="end" font-family="Verdana, sans-serif" font-size="12" fill="#4b5563">9</text>
<line x1="80" y1="367.37" x2="940" y2="367.37" stroke="#d1d5db" stroke-width="1" />
<text x="68" y="372.37" text-anchor="end" font-family="Verdana, sans-serif" font-size="12" fill="#4b5563">10</text>
<line x1="80" y1="357.11" x2="940" y2="357.11" stroke="#d1d5db" stroke-width="1" />
<text x="68" y="362.11" text-anchor="end" font-family="Verdana, sans-serif" font-size="12" fill="#4b5563">11</text>
<line x1="80" y1="346.84" x2="940" y2="346.84" stroke="#d1d5db" stroke-width="1" />
<text x="68" y="351.84" text-anchor="end" font-family="Verdana, sans-serif" font-size="12" fill="#4b5563">12</text>
<line x1="80" y1="336.58" x2="940" y2="336.58" stroke="#d1d5db" stroke-width="1" />
<text x="68" y="341.58" text-anchor="end" font-family="Verdana, sans-serif" font-size="12" fill="#4b5563">13</text>
<line x1="80" y1="326.32" x2="940" y2="326.32" stroke="#d1d5db" stroke-width="1" />
<text x="68" y="331.32" text-anchor="end" font-family="Verdana, sans-serif" font-size="12" fill="#4b5563">14</text>
<line x1="80" y1="316.05" x2="940" y2="316.05" stroke="#d1d5db" stroke-width="1" />
<text x="68" y="321.05" text-anchor="end" font-family="Verdana, sans-serif" font-size="12" fill="#4b5563">15</text>
<line x1="80" y1="305.79" x2="940" y2="305.79" stroke="#d1d5db" stroke-width="1" />
<text x="68" y="310.79" text-anchor="end" font-family="Verdana, sans-serif" font-size="12" fill="#4b5563">16</text>
<line x1="80" y1="295.53" x2="940" y2="295.53" stroke="#d1d5db" stroke-width="1" />
<text x="68" y="300.53" text-anchor="end" font-family="Verdana, sans-serif" font-size="12" fill="#4b5563">17</text>
<line x1="80" y1="285.26" x2="940" y2="285.26" stroke="#d1d5db" stroke-width="1" />
<text x="68" y="290.26" text-anchor="end" font-family="Verdana, sans-serif" font-size="12" fill="#4b5563">18</text>
<line x1="80" y1="275.00" x2="940" y2="275.00" stroke="#d1d5db" stroke-width="1" />
<text x="68" y="280.00" text-anchor="end" font-family="Verdana, sans-serif" font-size="12" fill="#4b5563">19</text>
<line x1="80" y1="264.74" x2="940" y2="264.74" stroke="#d1d5db" stroke-width="1" />
<text x="68" y="269.74" text-anchor="end" font-family="Verdana, sans-serif" font-size="12" fill="#4b5563">20</text>
<line x1="80" y1="254.47" x2="940" y2="254.47" stroke="#d1d5db" stroke-width="1" />
<text x="68" y="259.47" text-anchor="end" font-family="Verdana, sans-serif" font-size="12" fill="#4b5563">21</text>
<line x1="80" y1="244.21" x2="940" y2="244.21" stroke="#d1d5db" stroke-width="1" />
<text x="68" y="249.21" text-anchor="end" font-family="Verdana, sans-serif" font-size="12" fill="#4b5563">22</text>
<line x1="80" y1="233.95" x2="940" y2="233.95" stroke="#d1d5db" stroke-width="1" />
<text x="68" y="238.95" text-anchor="end" font-family="Verdana, sans-serif" font-size="12" fill="#4b5563">23</text>
<line x1="80" y1="223.68" x2="940" y2="223.68" stroke="#d1d5db" stroke-width="1" />
<text x="68" y="228.68" text-anchor="end" font-family="Verdana, sans-serif" font-size="12" fill="#4b5563">24</text>
<line x1="80" y1="213.42" x2="940" y2="213.42" stroke="#d1d5db" stroke-width="1" />
<text x="68" y="218.42" text-anchor="end" font-family="Verdana, sans-serif" font-size="12" fill="#4b5563">25</text>
<line x1="80" y1="203.16" x2="940" y2="203.16" stroke="#d1d5db" stroke-width="1" />
<text x="68" y="208.16" text-anchor="end" font-family="Verdana, sans-serif" font-size="12" fill="#4b5563">26</text>
<line x1="80" y1="192.89" x2="940" y2="192.89" stroke="#d1d5db" stroke-width="1" />
<text x="68" y="197.89" text-anchor="end" font-family="Verdana, sans-serif" font-size="12" fill="#4b5563">27</text>
<line x1="80" y1="182.63" x2="940" y2="182.63" stroke="#d1d5db" stroke-width="1" />
<text x="68" y="187.63" text-anchor="end" font-family="Verdana, sans-serif" font-size="12" fill="#4b5563">28</text>
<line x1="80" y1="172.37" x2="940" y2="172.37" stroke="#d1d5db" stroke-width="1" />
<text x="68" y="177.37" text-anchor="end" font-family="Verdana, sans-serif" font-size="12" fill="#4b5563">29</text>
<line x1="80" y1="162.11" x2="940" y2="162.11" stroke="#d1d5db" stroke-width="1" />
<text x="68" y="167.11" text-anchor="end" font-family="Verdana, sans-serif" font-size="12" fill="#4b5563">30</text>
<line x1="80" y1="151.84" x2="940" y2="151.84" stroke="#d1d5db" stroke-width="1" />
<text x="68" y="156.84" text-anchor="end" font-family="Verdana, sans-serif" font-size="12" fill="#4b5563">31</text>
<line x1="80" y1="141.58" x2="940" y2="141.58" stroke="#d1d5db" stroke-width="1" />
<text x="68" y="146.58" text-anchor="end" font-family="Verdana, sans-serif" font-size="12" fill="#4b5563">32</text>
<line x1="80" y1="131.32" x2="940" y2="131.32" stroke="#d1d5db" stroke-width="1" />
<text x="68" y="136.32" text-anchor="end" font-family="Verdana, sans-serif" font-size="12" fill="#4b5563">33</text>
<line x1="80" y1="121.05" x2="940" y2="121.05" stroke="#d1d5db" stroke-width="1" />
<text x="68" y="126.05" text-anchor="end" font-family="Verdana, sans-serif" font-size="12" fill="#4b5563">34</text>
<line x1="80" y1="110.79" x2="940" y2="110.79" stroke="#d1d5db" stroke-width="1" />
<text x="68" y="115.79" text-anchor="end" font-family="Verdana, sans-serif" font-size="12" fill="#4b5563">35</text>
<line x1="80" y1="100.53" x2="940" y2="100.53" stroke="#d1d5db" stroke-width="1" />
<text x="68" y="105.53" text-anchor="end" font-family="Verdana, sans-serif" font-size="12" fill="#4b5563">36</text>
<line x1="80" y1="90.26" x2="940" y2="90.26" stroke="#d1d5db" stroke-width="1" />
<text x="68" y="95.26" text-anchor="end" font-family="Verdana, sans-serif" font-size="12" fill="#4b5563">37</text>
<line x1="80" y1="80.00" x2="940" y2="80.00" stroke="#d1d5db" stroke-width="1" />
<text x="68" y="85.00" text-anchor="end" font-family="Verdana, sans-serif" font-size="12" fill="#4b5563">38</text>
<line x1="80" y1="80" x2="80" y2="470" stroke="#111827" stroke-width="2" />
<line x1="80" y1="470" x2="940" y2="470" stroke="#111827" stroke-width="2" />
<text x="22" y="275.00" transform="rotate(-90 22 275.00)" font-family="Verdana, sans-serif" font-size="13" fill="#374151">Count</text>
<text x="166.00" y="515" text-anchor="middle" font-family="Verdana, sans-serif" font-size="12" fill="#374151">1</text>
<rect x="105.80" y="470.00" width="50.57" height="0.00" rx="4" fill="#b45309" />
<text x="131.08" y="462.00" text-anchor="middle" font-family="Verdana, sans-serif" font-size="11" fill="#111827">0.00</text>
<rect x="166.00" y="470.00" width="50.57" height="0.00" rx="4" fill="#0f766e" />
<text x="191.28" y="462.00" text-anchor="middle" font-family="Verdana, sans-serif" font-size="11" fill="#111827">0.00</text>
<text x="338.00" y="515" text-anchor="middle" font-family="Verdana, sans-serif" font-size="12" fill="#374151">2</text>
<rect x="277.80" y="470.00" width="50.57" height="0.00" rx="4" fill="#b45309" />
<text x="303.08" y="462.00" text-anchor="middle" font-family="Verdana, sans-serif" font-size="11" fill="#111827">0.00</text>
<rect x="338.00" y="449.47" width="50.57" height="20.53" rx="4" fill="#0f766e" />
<text x="363.28" y="441.47" text-anchor="middle" font-family="Verdana, sans-serif" font-size="11" fill="#111827">2.00</text>
<text x="510.00" y="515" text-anchor="middle" font-family="Verdana, sans-serif" font-size="12" fill="#374151">3</text>
<rect x="449.80" y="213.42" width="50.57" height="256.58" rx="4" fill="#b45309" />
<text x="475.08" y="205.42" text-anchor="middle" font-family="Verdana, sans-serif" font-size="11" fill="#111827">25.00</text>
<rect x="510.00" y="80.00" width="50.57" height="390.00" rx="4" fill="#0f766e" />
<text x="535.28" y="76.00" text-anchor="middle" font-family="Verdana, sans-serif" font-size="11" fill="#111827">38.00</text>
<text x="682.00" y="515" text-anchor="middle" font-family="Verdana, sans-serif" font-size="12" fill="#374151">4</text>
<rect x="621.80" y="470.00" width="50.57" height="0.00" rx="4" fill="#b45309" />
<text x="647.08" y="462.00" text-anchor="middle" font-family="Verdana, sans-serif" font-size="11" fill="#111827">0.00</text>
<rect x="682.00" y="449.47" width="50.57" height="20.53" rx="4" fill="#0f766e" />
<text x="707.28" y="441.47" text-anchor="middle" font-family="Verdana, sans-serif" font-size="11" fill="#111827">2.00</text>
<text x="854.00" y="515" text-anchor="middle" font-family="Verdana, sans-serif" font-size="12" fill="#374151">5</text>
<rect x="793.80" y="470.00" width="50.57" height="0.00" rx="4" fill="#b45309" />
<text x="819.08" y="462.00" text-anchor="middle" font-family="Verdana, sans-serif" font-size="11" fill="#111827">0.00</text>
<rect x="854.00" y="470.00" width="50.57" height="0.00" rx="4" fill="#0f766e" />
<text x="879.28" y="462.00" text-anchor="middle" font-family="Verdana, sans-serif" font-size="11" fill="#111827">0.00</text>
<rect x="760" y="20" width="16" height="16" rx="3" fill="#b45309" />
<text x="784" y="33" font-family="Verdana, sans-serif" font-size="12" fill="#374151">Phase 1</text>
<rect x="760" y="44" width="16" height="16" rx="3" fill="#0f766e" />
<text x="784" y="57" font-family="Verdana, sans-serif" font-size="12" fill="#374151">Phase 2</text>
</svg>