<svg xmlns="http://www.w3.org/2000/svg" width="980" height="560" viewBox="0 0 980 560">
<rect width="100%" height="100%" fill="#fbfaf7" />
<text x="40" y="35" font-family="Verdana, sans-serif" font-size="22" font-weight="700" fill="#1f2937">P17: phase 2 tool satisfaction</text>
<line x1="80" y1="470.00" x2="940" y2="470.00" stroke="#d1d5db" stroke-width="1" />
<text x="68" y="475.00" text-anchor="end" font-family="Verdana, sans-serif" font-size="12" fill="#4b5563">1</text>
<line x1="80" y1="372.50" x2="940" y2="372.50" stroke="#d1d5db" stroke-width="1" />
<text x="68" y="377.50" text-anchor="end" font-family="Verdana, sans-serif" font-size="12" fill="#4b5563">2</text>
<line x1="80" y1="275.00" x2="940" y2="275.00" stroke="#d1d5db" stroke-width="1" />
<text x="68" y="280.00" text-anchor="end" font-family="Verdana, sans-serif" font-size="12" fill="#4b5563">3</text>
<line x1="80" y1="177.50" x2="940" y2="177.50" stroke="#d1d5db" stroke-width="1" />
<text x="68" y="182.50" text-anchor="end" font-family="Verdana, sans-serif" font-size="12" fill="#4b5563">4</text>
<line x1="80" y1="80.00" x2="940" y2="80.00" stroke="#d1d5db" stroke-width="1" />
<text x="68" y="85.00" text-anchor="end" font-family="Verdana, sans-serif" font-size="12" fill="#4b5563">5</text>
<line x1="80" y1="80" x2="80" y2="470" stroke="#111827" stroke-width="2" />
<line x1="80" y1="470" x2="940" y2="470" stroke="#111827" stroke-width="2" />
<text x="22" y="275.00" transform="rotate(-90 22 275.00)" font-family="Verdana, sans-serif" font-size="13" fill="#374151">Satisfaction (1-5)</text>
<text x="510.00" y="515" text-anchor="middle" font-family="Verdana, sans-serif" font-size="12" fill="#374151">Phase 2</text>
<polygon points="508.90,470.00 508.91,467.56 508.92,465.12 508.93,462.69 508.96,460.25 508.99,457.81 509.02,455.38 509.06,452.94 509.10,450.50 509.14,448.06 509.19,445.62 509.24,443.19 509.29,440.75 509.35,438.31 509.40,435.88 509.45,433.44 509.50,431.00 509.55,428.56 509.59,426.12 509.64,423.69 509.68,421.25 509.71,418.81 509.75,416.38 509.78,413.94 509.81,411.50 509.84,409.06 509.86,406.62 509.88,404.19 509.90,401.75 509.91,399.31 509.93,396.88 509.94,394.44 509.95,392.00 509.95,389.56 509.96,387.12 509.96,384.69 509.96,382.25 509.96,379.81 509.96,377.38 509.96,374.94 509.95,372.50 509.94,370.06 509.93,367.62 509.91,365.19 509.89,362.75 509.87,360.31 509.84,357.88 509.80,355.44 509.76,353.00 509.71,350.56 509.65,348.12 509.58,345.69 509.50,343.25 509.41,340.81 509.30,338.38 509.19,335.94 509.06,333.50 508.91,331.06 508.75,328.62 508.57,326.19 508.38,323.75 508.18,321.31 507.96,318.88 507.73,316.44 507.49,314.00 507.24,311.56 506.99,309.12 506.73,306.69 506.47,304.25 506.21,301.81 505.96,299.38 505.71,296.94 505.48,294.50 505.26,292.06 505.06,289.62 504.89,287.19 504.73,284.75 504.61,282.31 504.50,279.88 504.43,277.44 504.38,275.00 504.36,272.56 504.36,270.12 504.39,267.69 504.43,265.25 504.48,262.81 504.55,260.38 504.61,257.94 504.68,255.50 504.73,253.06 504.77,250.62 504.78,248.19 504.77,245.75 504.72,243.31 504.62,240.88 504.48,238.44 504.28,236.00 504.03,233.56 503.71,231.12 503.33,228.69 502.89,226.25 502.39,223.81 501.82,221.38 501.20,218.94 500.53,216.50 499.81,214.06 499.06,211.62 498.29,209.19 497.50,206.75 496.70,204.31 495.92,201.88 495.15,199.44 494.43,197.00 493.75,194.56 493.12,192.12 492.58,189.69 492.11,187.25 491.73,184.81 491.44,182.38 491.26,179.94 491.18,177.50 491.20,175.06 491.33,172.62 491.55,170.19 491.85,167.75 492.24,165.31 492.70,162.87 493.21,160.44 493.77,158.00 494.35,155.56 494.94,153.12 495.53,150.69 496.10,148.25 496.63,145.81 497.12,143.38 497.54,140.94 497.89,138.50 498.15,136.06 498.32,133.62 498.40,131.19 498.37,128.75 498.24,126.31 498.01,123.88 497.68,121.44 497.26,119.00 496.76,116.56 496.19,114.12 495.56,111.69 494.89,109.25 494.19,106.81 493.47,104.38 492.76,101.94 492.06,99.50 491.41,97.06 490.81,94.63 490.28,92.19 489.83,89.75 489.47,87.31 489.22,84.88 489.07,82.44 489.05,80.00 530.95,80.00 530.93,82.44 530.78,84.88 530.53,87.31 530.17,89.75 529.72,92.19 529.19,94.63 528.59,97.06 527.94,99.50 527.24,101.94 526.53,104.38 525.81,106.81 525.11,109.25 524.44,111.69 523.81,114.12 523.24,116.56 522.74,119.00 522.32,121.44 521.99,123.88 521.76,126.31 521.63,128.75 521.60,131.19 521.68,133.62 521.85,136.06 522.11,138.50 522.46,140.94 522.88,143.38 523.37,145.81 523.90,148.25 524.47,150.69 525.06,153.12 525.65,155.56 526.23,158.00 526.79,160.44 527.30,162.87 527.76,165.31 528.15,167.75 528.45,170.19 528.67,172.62 528.80,175.06 528.82,177.50 528.74,179.94 528.56,182.38 528.27,184.81 527.89,187.25 527.42,189.69 526.88,192.12 526.25,194.56 525.57,197.00 524.85,199.44 524.08,201.88 523.30,204.31 522.50,206.75 521.71,209.19 520.94,211.62 520.19,214.06 519.47,216.50 518.80,218.94 518.18,221.38 517.61,223.81 517.11,226.25 516.67,228.69 516.29,231.12 515.97,233.56 515.72,236.00 515.52,238.44 515.38,240.88 515.28,243.31 515.23,245.75 515.22,248.19 515.23,250.62 515.27,253.06 515.32,255.50 515.39,257.94 515.45,260.38 515.52,262.81 515.57,265.25 515.61,267.69 515.64,270.12 515.64,272.56 515.62,275.00 515.57,277.44 515.50,279.88 515.39,282.31 515.27,284.75 515.11,287.19 514.94,289.62 514.74,292.06 514.52,294.50 514.29,296.94 514.04,299.38 513.79,301.81 513.53,304.25 513.27,306.69 513.01,309.12 512.76,311.56 512.51,314.00 512.27,316.44 512.04,318.88 511.82,321.31 511.62,323.75 511.43,326.19 511.25,328.62 511.09,331.06 510.94,333.50 510.81,335.94 510.70,338.38 510.59,340.81 510.50,343.25 510.42,345.69 510.35,348.12 510.29,350.56 510.24,353.00 510.20,355.44 510.16,357.88 510.13,360.31 510.11,362.75 510.09,365.19 510.07,367.62 510.06,370.06 510.05,372.50 510.04,374.94 510.04,377.38 510.04,379.81 510.04,382.25 510.04,384.69 510.04,387.12 510.05,389.56 510.05,392.00 510.06,394.44 510.07,396.88 510.09,399.31 510.10,401.75 510.12,404.19 510.14,406.62 510.16,409.06 510.19,411.50 510.22,413.94 510.25,416.38 510.29,418.81 510.32,421.25 510.36,423.69 510.41,426.12 510.45,428.56 510.50,431.00 510.55,433.44 510.60,435.88 510.65,438.31 510.71,440.75 510.76,443.19 510.81,445.62 510.86,448.06 510.90,450.50 510.94,452.94 510.98,455.38 511.01,457.81 511.04,460.25 511.07,462.69 511.08,465.12 511.09,467.56 511.10,470.00" fill="#1d4ed8" fill-opacity="0.35" stroke="#1d4ed8" stroke-width="2" />
<circle cx="510.00" cy="275.00" r="3.2" fill="#1d4ed8" fill-opacity="0.75" />
<circle cx="510.00" cy="275.00" r="3.2" fill="#1d4ed8" fill-opacity="0.75" />
<circle cx="510.00" cy="275.00" r="3.2" fill="#1d4ed8" fill-opacity="0.75" />
<circle cx="510.00" cy="470.00" r="3.2" fill="#1d4ed8" fill-opacity="0.75" />
<circle cx="510.00" cy="80.00" r="3.2" fill="#1d4ed8" fill-opacity="0.75" />
<circle cx="510.00" cy="80.00" r="3.2" fill="#1d4ed8" fill-opacity="0.75" />
<circle cx="510.00" cy="80.00" r="3.2" fill="#1d4ed8" fill-opacity="0.75" />
<circle cx="510.00" cy="177.50" r="3.2" fill="#1d4ed8" fill-opacity="0.75" />
<circle cx="510.00" cy="177.50" r="3.2" fill="#1d4ed8" fill-opacity="0.75" />
<circle cx="510.00" cy="80.00" r="3.2" fill="#1d4ed8" fill-opacity="0.75" />
<circle cx="510.00" cy="177.50" r="3.2" fill="#1d4ed8" fill-opacity="0.75" />
<circle cx="510.00" cy="177.50" r="3.2" fill="#1d4ed8" fill-opacity="0.75" />
<circle cx="510.00" cy="177.50" r="3.2" fill="#1d4ed8" fill-opacity="0.75" />
<circle cx="510.00" cy="80.00" r="3.2" fill="#1d4ed8" fill-opacity="0.75" />
<circle cx="510.00" cy="177.50" r="3.2" fill="#1d4ed8" fill-opacity="0.75" />
<circle cx="510.00" cy="80.00" r="3.2" fill="#1d4ed8" fill-opacity="0.75" />
<circle cx="510.00" cy="177.50" r="3.2" fill="#1d4ed8" fill-opacity="0.75" />
<circle cx="510.00" cy="80.00" r="3.2" fill="#1d4ed8" fill-opacity="0.75" />
<circle cx="510.00" cy="80.00" r="3.2" fill="#1d4ed8" fill-opacity="0.75" />
<circle cx="510.00" cy="80.00" r="3.2" fill="#1d4ed8" fill-opacity="0.75" />
<circle cx="510.00" cy="177.50" r="3.2" fill="#1d4ed8" fill-opacity="0.75" />
<circle cx="510.00" cy="177.50" r="3.2" fill="#1d4ed8" fill-opacity="0.75" />
<circle cx="510.00" cy="177.50" r="3.2" fill="#1d4ed8" fill-opacity="0.75" />
<circle cx="510.00" cy="80.00" r="3.2" fill="#1d4ed8" fill-opacity="0.75" />
<circle cx="510.00" cy="80.00" r="3.2" fill="#1d4ed8" fill-opacity="0.75" />
<circle cx="510.00" cy="80.00" r="3.2" fill="#1d4ed8" fill-opacity="0.75" />
<circle cx="510.00" cy="80.00" r="3.2" fill="#1d4ed8" fill-opacity="0.75" />
<circle cx="510.00" cy="80.00" r="3.2" fill="#1d4ed8" fill-opacity="0.75" />
<circle cx="510.00" cy="177.50" r="3.2" fill="#1d4ed8" fill-opacity="0.75" />
<circle cx="510.00" cy="177.50" r="3.2" fill="#1d4ed8" fill-opacity="0.75" />
<circle cx="510.00" cy="177.50" r="3.2" fill="#1d4ed8" fill-opacity="0.75" />
<circle cx="510.00" cy="275.00" r="3.2" fill="#1d4ed8" fill-opacity="0.75" />
<circle cx="510.00" cy="177.50" r="3.2" fill="#1d4ed8" fill-opacity="0.75" />
<circle cx="510.00" cy="80.00" r="3.2" fill="#1d4ed8" fill-opacity="0.75" />
<circle cx="510.00" cy="80.00" r="3.2" fill="#1d4ed8" fill-opacity="0.75" />
<circle cx="510.00" cy="80.00" r="3.2" fill="#1d4ed8" fill-opacity="0.75" />
<circle cx="510.00" cy="177.50" r="3.2" fill="#1d4ed8" fill-opacity="0.75" />
<circle cx="510.00" cy="80.00" r="3.2" fill="#1d4ed8" fill-opacity="0.75" />
<circle cx="510.00" cy="177.50" r="3.2" fill="#1d4ed8" fill-opacity="0.75" />
<circle cx="510.00" cy="275.00" r="3.2" fill="#1d4ed8" fill-opacity="0.75" />
<circle cx="510.00" cy="80.00" r="3.2" fill="#1d4ed8" fill-opacity="0.75" />
<circle cx="510.00" cy="177.50" r="3.2" fill="#1d4ed8" fill-opacity="0.75" />
<line x1="498.00" y1="177.50" x2="522.00" y2="177.50" stroke="#111827" stroke-width="2.5" />
<line x1="510.00" y1="177.50" x2="510.00" y2="80.00" stroke="#111827" stroke-width="1.5" stroke-dasharray="4 3" />
<text x="510.00" y="167.50" text-anchor="middle" font-family="Verdana, sans-serif" font-size="11" fill="#111827">M 4.26</text>
<rect x="760" y="20" width="16" height="16" rx="3" fill="#1d4ed8" fill-opacity="0.55" stroke="#1d4ed8" />
<text x="784" y="33" font-family="Verdana, sans-serif" font-size="12" fill="#374151">Phase 2</text>
</svg>