<svg xmlns="http://www.w3.org/2000/svg" width="980" height="560" viewBox="0 0 980 560">
<rect x="0" y="0" width="100%" height="100%" fill="#ffffff" />
<line x1="90" y1="430.00" x2="940" y2="430.00" stroke="#d1d5db" stroke-width="1" />
<text x="76" y="435.00" text-anchor="end" font-family="Arial, sans-serif" font-size="12" fill="#374151">1</text>
<line x1="90" y1="340.00" x2="940" y2="340.00" stroke="#d1d5db" stroke-width="1" />
<text x="76" y="345.00" text-anchor="end" font-family="Arial, sans-serif" font-size="12" fill="#374151">2</text>
<line x1="90" y1="250.00" x2="940" y2="250.00" stroke="#d1d5db" stroke-width="1" />
<text x="76" y="255.00" text-anchor="end" font-family="Arial, sans-serif" font-size="12" fill="#374151">3</text>
<line x1="90" y1="160.00" x2="940" y2="160.00" stroke="#d1d5db" stroke-width="1" />
<text x="76" y="165.00" text-anchor="end" font-family="Arial, sans-serif" font-size="12" fill="#374151">4</text>
<line x1="90" y1="70.00" x2="940" y2="70.00" stroke="#d1d5db" stroke-width="1" />
<text x="76" y="75.00" text-anchor="end" font-family="Arial, sans-serif" font-size="12" fill="#374151">5</text>
<line x1="90" y1="70" x2="90" y2="430" stroke="#111827" stroke-width="1.5" />
<line x1="90" y1="430" x2="940" y2="430" stroke="#111827" stroke-width="1.5" />
<line x1="515.00" y1="70" x2="515.00" y2="430" stroke="#4b5563" stroke-width="1.2" />
<text x="28" y="250.00" transform="rotate(-90 28 250.00)" font-family="Arial, sans-serif" font-size="13" fill="#111827">Quality (1-5)</text>
<text x="515.00" y="535" text-anchor="middle" font-family="Arial, sans-serif" font-size="13" fill="#111827">Group</text>
<polygon points="515.00,430.00 515.00,427.75 515.00,425.50 515.00,423.25 515.00,421.00 515.00,418.75 515.00,416.50 515.00,414.25 515.00,412.00 515.00,409.75 515.00,407.50 515.00,405.25 515.00,403.00 515.00,400.75 515.00,398.50 515.00,396.25 515.00,394.00 515.00,391.75 515.00,389.50 515.00,387.25 515.00,385.00 515.00,382.75 515.00,380.50 514.99,378.25 514.99,376.00 514.99,373.75 514.98,371.50 514.98,369.25 514.97,367.00 514.96,364.75 514.94,362.50 514.92,360.25 514.89,358.00 514.86,355.75 514.81,353.50 514.75,351.25 514.67,349.00 514.57,346.75 514.45,344.50 514.29,342.25 514.09,340.00 513.84,337.75 513.54,335.50 513.16,333.25 512.70,331.00 512.14,328.75 511.48,326.50 510.68,324.25 509.73,322.00 508.61,319.75 507.30,317.50 505.78,315.25 504.03,313.00 502.03,310.75 499.75,308.50 497.18,306.25 494.31,304.00 491.12,301.75 487.60,299.50 483.76,297.25 479.60,295.00 475.12,292.75 470.36,290.50 465.32,288.25 460.06,286.00 454.61,283.75 449.02,281.50 443.35,279.25 437.67,277.00 432.05,274.75 426.56,272.50 421.28,270.25 416.29,268.00 411.67,265.75 407.49,263.50 403.81,261.25 400.72,259.00 398.25,256.75 396.46,254.50 395.37,252.25 395.00,250.00 395.37,247.75 396.46,245.50 398.25,243.25 400.72,241.00 403.81,238.75 407.49,236.50 411.67,234.25 416.29,232.00 421.28,229.75 426.56,227.50 432.05,225.25 437.67,223.00 443.35,220.75 449.02,218.50 454.61,216.25 460.06,214.00 465.32,211.75 470.36,209.50 475.12,207.25 479.60,205.00 483.76,202.75 487.60,200.50 491.12,198.25 494.31,196.00 497.18,193.75 499.75,191.50 502.03,189.25 504.03,187.00 505.78,184.75 507.30,182.50 508.61,180.25 509.73,178.00 510.68,175.75 511.48,173.50 512.14,171.25 512.70,169.00 513.16,166.75 513.54,164.50 513.84,162.25 514.09,160.00 514.29,157.75 514.45,155.50 514.57,153.25 514.67,151.00 514.75,148.75 514.81,146.50 514.86,144.25 514.89,142.00 514.92,139.75 514.94,137.50 514.96,135.25 514.97,133.00 514.98,130.75 514.98,128.50 514.99,126.25 514.99,124.00 514.99,121.75 515.00,119.50 515.00,117.25 515.00,115.00 515.00,112.75 515.00,110.50 515.00,108.25 515.00,106.00 515.00,103.75 515.00,101.50 515.00,99.25 515.00,97.00 515.00,94.75 515.00,92.50 515.00,90.25 515.00,88.00 515.00,85.75 515.00,83.50 515.00,81.25 515.00,79.00 515.00,76.75 515.00,74.50 515.00,72.25 515.00,70.00 515.00,70.00 515.00,72.25 515.00,74.50 515.00,76.75 515.00,79.00 515.00,81.25 515.00,83.50 515.00,85.75 515.00,88.00 515.00,90.25 515.00,92.50 515.00,94.75 515.00,97.00 515.00,99.25 515.00,101.50 515.00,103.75 515.00,106.00 515.00,108.25 515.00,110.50 515.00,112.75 515.00,115.00 515.00,117.25 515.00,119.50 515.00,121.75 515.00,124.00 515.00,126.25 515.00,128.50 515.00,130.75 515.00,133.00 515.00,135.25 515.00,137.50 515.00,139.75 515.00,142.00 515.00,144.25 515.00,146.50 515.00,148.75 515.00,151.00 515.00,153.25 515.00,155.50 515.00,157.75 515.00,160.00 515.00,162.25 515.00,164.50 515.00,166.75 515.00,169.00 515.00,171.25 515.00,173.50 515.00,175.75 515.00,178.00 515.00,180.25 515.00,182.50 515.00,184.75 515.00,187.00 515.00,189.25 515.00,191.50 515.00,193.75 515.00,196.00 515.00,198.25 515.00,200.50 515.00,202.75 515.00,205.00 515.00,207.25 515.00,209.50 515.00,211.75 515.00,214.00 515.00,216.25 515.00,218.50 515.00,220.75 515.00,223.00 515.00,225.25 515.00,227.50 515.00,229.75 515.00,232.00 515.00,234.25 515.00,236.50 515.00,238.75 515.00,241.00 515.00,243.25 515.00,245.50 515.00,247.75 515.00,250.00 515.00,252.25 515.00,254.50 515.00,256.75 515.00,259.00 515.00,261.25 515.00,263.50 515.00,265.75 515.00,268.00 515.00,270.25 515.00,272.50 515.00,274.75 515.00,277.00 515.00,279.25 515.00,281.50 515.00,283.75 515.00,286.00 515.00,288.25 515.00,290.50 515.00,292.75 515.00,295.00 515.00,297.25 515.00,299.50 515.00,301.75 515.00,304.00 515.00,306.25 515.00,308.50 515.00,310.75 515.00,313.00 515.00,315.25 515.00,317.50 515.00,319.75 515.00,322.00 515.00,324.25 515.00,326.50 515.00,328.75 515.00,331.00 515.00,333.25 515.00,335.50 515.00,337.75 515.00,340.00 515.00,342.25 515.00,344.50 515.00,346.75 515.00,349.00 515.00,351.25 515.00,353.50 515.00,355.75 515.00,358.00 515.00,360.25 515.00,362.50 515.00,364.75 515.00,367.00 515.00,369.25 515.00,371.50 515.00,373.75 515.00,376.00 515.00,378.25 515.00,380.50 515.00,382.75 515.00,385.00 515.00,387.25 515.00,389.50 515.00,391.75 515.00,394.00 515.00,396.25 515.00,398.50 515.00,400.75 515.00,403.00 515.00,405.25 515.00,407.50 515.00,409.75 515.00,412.00 515.00,414.25 515.00,416.50 515.00,418.75 515.00,421.00 515.00,423.25 515.00,425.50 515.00,427.75 515.00,430.00" fill="#3b82b6" fill-opacity="0.9" stroke="#4b5563" stroke-width="1.2" />
<polygon points="515.00,430.00 515.00,427.75 515.00,425.50 515.00,423.25 515.00,421.00 515.00,418.75 515.00,416.50 515.00,414.25 515.00,412.00 515.00,409.75 515.00,407.50 515.00,405.25 515.00,403.00 515.00,400.75 515.00,398.50 515.00,396.25 515.00,394.00 515.00,391.75 515.00,389.50 515.00,387.25 515.00,385.00 515.00,382.75 515.00,380.50 515.00,378.25 515.00,376.00 515.00,373.75 515.00,371.50 515.00,369.25 515.00,367.00 515.00,364.75 515.00,362.50 515.00,360.25 515.00,358.00 515.00,355.75 515.00,353.50 515.00,351.25 515.00,349.00 515.00,346.75 515.00,344.50 515.00,342.25 515.00,340.00 515.00,337.75 515.00,335.50 515.00,333.25 515.00,331.00 515.00,328.75 515.00,326.50 515.00,324.25 515.00,322.00 515.00,319.75 515.00,317.50 515.00,315.25 515.00,313.00 515.00,310.75 515.00,308.50 515.00,306.25 515.00,304.00 515.00,301.75 515.00,299.50 515.00,297.25 515.00,295.00 515.00,292.75 515.00,290.50 515.00,288.25 515.00,286.00 515.00,283.75 515.00,281.50 515.00,279.25 515.00,277.00 515.00,274.75 515.00,272.50 515.00,270.25 515.00,268.00 515.00,265.75 515.00,263.50 515.00,261.25 515.00,259.00 515.00,256.75 515.00,254.50 515.00,252.25 515.00,250.00 515.00,247.75 515.00,245.50 515.00,243.25 515.00,241.00 515.00,238.75 515.00,236.50 515.00,234.25 515.00,232.00 515.00,229.75 515.00,227.50 515.00,225.25 515.00,223.00 515.00,220.75 515.00,218.50 515.00,216.25 515.00,214.00 515.00,211.75 515.00,209.50 515.00,207.25 515.00,205.00 515.00,202.75 515.00,200.50 515.00,198.25 515.00,196.00 515.00,193.75 515.00,191.50 515.00,189.25 515.00,187.00 515.00,184.75 515.00,182.50 515.00,180.25 515.00,178.00 515.00,175.75 515.00,173.50 515.00,171.25 515.00,169.00 515.00,166.75 515.00,164.50 515.00,162.25 515.00,160.00 515.00,157.75 515.00,155.50 515.00,153.25 515.00,151.00 515.00,148.75 515.00,146.50 515.00,144.25 515.00,142.00 515.00,139.75 515.00,137.50 515.00,135.25 515.00,133.00 515.00,130.75 515.00,128.50 515.00,126.25 515.00,124.00 515.00,121.75 515.00,119.50 515.00,117.25 515.00,115.00 515.00,112.75 515.00,110.50 515.00,108.25 515.00,106.00 515.00,103.75 515.00,101.50 515.00,99.25 515.00,97.00 515.00,94.75 515.00,92.50 515.00,90.25 515.00,88.00 515.00,85.75 515.00,83.50 515.00,81.25 515.00,79.00 515.00,76.75 515.00,74.50 515.00,72.25 515.00,70.00 515.04,70.00 515.06,72.25 515.07,74.50 515.09,76.75 515.11,79.00 515.14,81.25 515.17,83.50 515.21,85.75 515.25,88.00 515.30,90.25 515.37,92.50 515.44,94.75 515.52,97.00 515.62,99.25 515.73,101.50 515.85,103.75 515.99,106.00 516.14,108.25 516.31,110.50 516.49,112.75 516.69,115.00 516.90,117.25 517.13,119.50 517.37,121.75 517.62,124.00 517.89,126.25 518.16,128.50 518.43,130.75 518.71,133.00 518.99,135.25 519.26,137.50 519.53,139.75 519.80,142.00 520.05,144.25 520.29,146.50 520.52,148.75 520.74,151.00 520.94,153.25 521.14,155.50 521.34,157.75 521.54,160.00 521.74,162.25 521.97,164.50 522.22,166.75 522.52,169.00 522.88,171.25 523.31,173.50 523.83,175.75 524.47,178.00 525.24,180.25 526.18,182.50 527.29,184.75 528.60,187.00 530.15,189.25 531.94,191.50 534.00,193.75 536.34,196.00 538.97,198.25 541.91,200.50 545.16,202.75 548.72,205.00 552.57,207.25 556.70,209.50 561.08,211.75 565.69,214.00 570.49,216.25 575.42,218.50 580.44,220.75 585.49,223.00 590.49,225.25 595.39,227.50 600.10,229.75 604.56,232.00 608.70,234.25 612.45,236.50 615.74,238.75 618.52,241.00 620.74,243.25 622.35,245.50 623.33,247.75 623.66,250.00 623.33,252.25 622.35,254.50 620.74,256.75 618.52,259.00 615.74,261.25 612.45,263.50 608.70,265.75 604.56,268.00 600.10,270.25 595.39,272.50 590.49,274.75 585.49,277.00 580.44,279.25 575.42,281.50 570.49,283.75 565.69,286.00 561.08,288.25 556.70,290.50 552.57,292.75 548.72,295.00 545.16,297.25 541.91,299.50 538.97,301.75 536.34,304.00 534.00,306.25 531.94,308.50 530.15,310.75 528.60,313.00 527.29,315.25 526.18,317.50 525.24,319.75 524.47,322.00 523.83,324.25 523.31,326.50 522.88,328.75 522.52,331.00 522.22,333.25 521.97,335.50 521.74,337.75 521.54,340.00 521.34,342.25 521.14,344.50 520.94,346.75 520.74,349.00 520.52,351.25 520.29,353.50 520.05,355.75 519.80,358.00 519.53,360.25 519.26,362.50 518.99,364.75 518.71,367.00 518.43,369.25 518.16,371.50 517.89,373.75 517.62,376.00 517.37,378.25 517.13,380.50 516.90,382.75 516.69,385.00 516.49,387.25 516.31,389.50 516.14,391.75 515.99,394.00 515.85,396.25 515.73,398.50 515.62,400.75 515.52,403.00 515.44,405.25 515.37,407.50 515.30,409.75 515.25,412.00 515.21,414.25 515.17,416.50 515.14,418.75 515.11,421.00 515.09,423.25 515.07,425.50 515.06,427.75 515.04,430.00" fill="#f28e2b" fill-opacity="0.9" stroke="#4b5563" stroke-width="1.2" />
<rect x="501.00" y="250.00" width="12.00" height="0.00" fill="white" stroke="#4b5563" stroke-width="1.2" />
<line x1="501.00" y1="250.00" x2="513.00" y2="250.00" stroke="#111827" stroke-width="1.6" />
<line x1="505.00" y1="250.00" x2="505.00" y2="250.00" stroke="#4b5563" stroke-width="1.1" />
<line x1="505.00" y1="250.00" x2="505.00" y2="250.00" stroke="#4b5563" stroke-width="1.1" />
<line x1="501.00" y1="250.00" x2="509.00" y2="250.00" stroke="#4b5563" stroke-width="1.1" />
<line x1="501.00" y1="250.00" x2="509.00" y2="250.00" stroke="#4b5563" stroke-width="1.1" />
<rect x="517.00" y="250.00" width="12.00" height="0.00" fill="white" stroke="#4b5563" stroke-width="1.2" />
<line x1="517.00" y1="250.00" x2="529.00" y2="250.00" stroke="#111827" stroke-width="1.6" />
<line x1="525.00" y1="160.00" x2="525.00" y2="250.00" stroke="#4b5563" stroke-width="1.1" />
<line x1="525.00" y1="250.00" x2="525.00" y2="340.00" stroke="#4b5563" stroke-width="1.1" />
<line x1="521.00" y1="160.00" x2="529.00" y2="160.00" stroke="#4b5563" stroke-width="1.1" />
<line x1="521.00" y1="340.00" x2="529.00" y2="340.00" stroke="#4b5563" stroke-width="1.1" />
<text x="433.40" y="498" text-anchor="middle" font-family="Arial, sans-serif" font-size="12.5" fill="#111827">Phase 1</text>
<text x="596.60" y="498" text-anchor="middle" font-family="Arial, sans-serif" font-size="12.5" fill="#111827">Phase 2</text>
<text x="433.40" y="516" text-anchor="middle" font-family="Arial, sans-serif" font-size="11.5" fill="#374151">n=25, M=3.00, SD=0.00</text>
<text x="596.60" y="516" text-anchor="middle" font-family="Arial, sans-serif" font-size="11.5" fill="#374151">n=42, M=3.00, SD=0.31</text>
<text x="490.00" y="30" text-anchor="middle" font-family="Arial, sans-serif" font-size="22" fill="#111827">P17: article quality</text>
</svg>