<svg xmlns="http://www.w3.org/2000/svg" width="980" height="560" viewBox="0 0 980 560">
<rect width="100%" height="100%" fill="#fbfaf7" />
<text x="40" y="35" font-family="Verdana, sans-serif" font-size="22" font-weight="700" fill="#1f2937">P19: phase 2 tool satisfaction distribution</text>
<line x1="80" y1="470.00" x2="940" y2="470.00" stroke="#d1d5db" stroke-width="1" />
<text x="68" y="475.00" text-anchor="end" font-family="Verdana, sans-serif" font-size="12" fill="#4b5563">0</text>
<line x1="80" y1="426.67" x2="940" y2="426.67" stroke="#d1d5db" stroke-width="1" />
<text x="68" y="431.67" text-anchor="end" font-family="Verdana, sans-serif" font-size="12" fill="#4b5563">1</text>
<line x1="80" y1="383.33" x2="940" y2="383.33" stroke="#d1d5db" stroke-width="1" />
<text x="68" y="388.33" text-anchor="end" font-family="Verdana, sans-serif" font-size="12" fill="#4b5563">2</text>
<line x1="80" y1="340.00" x2="940" y2="340.00" stroke="#d1d5db" stroke-width="1" />
<text x="68" y="345.00" text-anchor="end" font-family="Verdana, sans-serif" font-size="12" fill="#4b5563">3</text>
<line x1="80" y1="296.67" x2="940" y2="296.67" stroke="#d1d5db" stroke-width="1" />
<text x="68" y="301.67" text-anchor="end" font-family="Verdana, sans-serif" font-size="12" fill="#4b5563">4</text>
<line x1="80" y1="253.33" x2="940" y2="253.33" stroke="#d1d5db" stroke-width="1" />
<text x="68" y="258.33" text-anchor="end" font-family="Verdana, sans-serif" font-size="12" fill="#4b5563">5</text>
<line x1="80" y1="210.00" x2="940" y2="210.00" stroke="#d1d5db" stroke-width="1" />
<text x="68" y="215.00" text-anchor="end" font-family="Verdana, sans-serif" font-size="12" fill="#4b5563">6</text>
<line x1="80" y1="166.67" x2="940" y2="166.67" stroke="#d1d5db" stroke-width="1" />
<text x="68" y="171.67" text-anchor="end" font-family="Verdana, sans-serif" font-size="12" fill="#4b5563">7</text>
<line x1="80" y1="123.33" x2="940" y2="123.33" stroke="#d1d5db" stroke-width="1" />
<text x="68" y="128.33" text-anchor="end" font-family="Verdana, sans-serif" font-size="12" fill="#4b5563">8</text>
<line x1="80" y1="80.00" x2="940" y2="80.00" stroke="#d1d5db" stroke-width="1" />
<text x="68" y="85.00" text-anchor="end" font-family="Verdana, sans-serif" font-size="12" fill="#4b5563">9</text>
<line x1="80" y1="80" x2="80" y2="470" stroke="#111827" stroke-width="2" />
<line x1="80" y1="470" x2="940" y2="470" stroke="#111827" stroke-width="2" />
<text x="22" y="275.00" transform="rotate(-90 22 275.00)" font-family="Verdana, sans-serif" font-size="13" fill="#374151">Count</text>
<text x="166.00" y="515" text-anchor="middle" font-family="Verdana, sans-serif" font-size="12" fill="#374151">1</text>
<rect x="105.80" y="426.67" width="101.14" height="43.33" rx="4" fill="#1d4ed8" />
<text x="156.37" y="418.67" text-anchor="middle" font-family="Verdana, sans-serif" font-size="11" fill="#111827">1.00</text>
<text x="338.00" y="515" text-anchor="middle" font-family="Verdana, sans-serif" font-size="12" fill="#374151">2</text>
<rect x="277.80" y="383.33" width="101.14" height="86.67" rx="4" fill="#1d4ed8" />
<text x="328.37" y="375.33" text-anchor="middle" font-family="Verdana, sans-serif" font-size="11" fill="#111827">2.00</text>
<text x="510.00" y="515" text-anchor="middle" font-family="Verdana, sans-serif" font-size="12" fill="#374151">3</text>
<rect x="449.80" y="296.67" width="101.14" height="173.33" rx="4" fill="#1d4ed8" />
<text x="500.37" y="288.67" text-anchor="middle" font-family="Verdana, sans-serif" font-size="11" fill="#111827">4.00</text>
<text x="682.00" y="515" text-anchor="middle" font-family="Verdana, sans-serif" font-size="12" fill="#374151">4</text>
<rect x="621.80" y="80.00" width="101.14" height="390.00" rx="4" fill="#1d4ed8" />
<text x="672.37" y="76.00" text-anchor="middle" font-family="Verdana, sans-serif" font-size="11" fill="#111827">9.00</text>
<text x="854.00" y="515" text-anchor="middle" font-family="Verdana, sans-serif" font-size="12" fill="#374151">5</text>
<rect x="793.80" y="470.00" width="101.14" height="0.00" rx="4" fill="#1d4ed8" />
<text x="844.37" y="462.00" text-anchor="middle" font-family="Verdana, sans-serif" font-size="11" fill="#111827">0.00</text>
<rect x="760" y="20" width="16" height="16" rx="3" fill="#1d4ed8" />
<text x="784" y="33" font-family="Verdana, sans-serif" font-size="12" fill="#374151">Phase 2</text>
</svg>