<svg xmlns="http://www.w3.org/2000/svg" width="980" height="560" viewBox="0 0 980 560">
<rect width="100%" height="100%" fill="#fbfaf7" />
<text x="40" y="35" font-family="Verdana, sans-serif" font-size="22" font-weight="700" fill="#1f2937">P19: phase 2 tool satisfaction</text>
<line x1="80" y1="470.00" x2="940" y2="470.00" stroke="#d1d5db" stroke-width="1" />
<text x="68" y="475.00" text-anchor="end" font-family="Verdana, sans-serif" font-size="12" fill="#4b5563">1</text>
<line x1="80" y1="372.50" x2="940" y2="372.50" stroke="#d1d5db" stroke-width="1" />
<text x="68" y="377.50" text-anchor="end" font-family="Verdana, sans-serif" font-size="12" fill="#4b5563">2</text>
<line x1="80" y1="275.00" x2="940" y2="275.00" stroke="#d1d5db" stroke-width="1" />
<text x="68" y="280.00" text-anchor="end" font-family="Verdana, sans-serif" font-size="12" fill="#4b5563">3</text>
<line x1="80" y1="177.50" x2="940" y2="177.50" stroke="#d1d5db" stroke-width="1" />
<text x="68" y="182.50" text-anchor="end" font-family="Verdana, sans-serif" font-size="12" fill="#4b5563">4</text>
<line x1="80" y1="80.00" x2="940" y2="80.00" stroke="#d1d5db" stroke-width="1" />
<text x="68" y="85.00" text-anchor="end" font-family="Verdana, sans-serif" font-size="12" fill="#4b5563">5</text>
<line x1="80" y1="80" x2="80" y2="470" stroke="#111827" stroke-width="2" />
<line x1="80" y1="470" x2="940" y2="470" stroke="#111827" stroke-width="2" />
<text x="22" y="275.00" transform="rotate(-90 22 275.00)" font-family="Verdana, sans-serif" font-size="13" fill="#374151">Satisfaction (1-5)</text>
<text x="510.00" y="515" text-anchor="middle" font-family="Verdana, sans-serif" font-size="12" fill="#374151">Phase 2</text>
<polygon points="507.08,470.00 507.08,467.56 507.09,465.12 507.11,462.69 507.15,460.25 507.20,457.81 507.26,455.38 507.32,452.94 507.38,450.50 507.45,448.06 507.51,445.62 507.57,443.19 507.62,440.75 507.66,438.31 507.69,435.88 507.70,433.44 507.69,431.00 507.67,428.56 507.62,426.12 507.55,423.69 507.46,421.25 507.34,418.81 507.20,416.38 507.05,413.94 506.87,411.50 506.68,409.06 506.47,406.62 506.25,404.19 506.03,401.75 505.80,399.31 505.57,396.88 505.35,394.44 505.13,392.00 504.93,389.56 504.75,387.12 504.58,384.69 504.44,382.25 504.32,379.81 504.23,377.38 504.17,374.94 504.14,372.50 504.14,370.06 504.17,367.62 504.22,365.19 504.30,362.75 504.39,360.31 504.51,357.88 504.63,355.44 504.76,353.00 504.90,350.56 505.02,348.12 505.14,345.69 505.24,343.25 505.32,340.81 505.38,338.38 505.40,335.94 505.38,333.50 505.33,331.06 505.23,328.62 505.10,326.19 504.91,323.75 504.68,321.31 504.41,318.88 504.09,316.44 503.74,314.00 503.36,311.56 502.94,309.12 502.51,306.69 502.06,304.25 501.60,301.81 501.14,299.38 500.70,296.94 500.26,294.50 499.86,292.06 499.49,289.62 499.15,287.19 498.87,284.75 498.63,282.31 498.45,279.88 498.33,277.44 498.26,275.00 498.25,272.56 498.30,270.12 498.39,267.69 498.54,265.25 498.72,262.81 498.93,260.38 499.16,257.94 499.40,255.50 499.64,253.06 499.86,250.62 500.06,248.19 500.22,245.75 500.34,243.31 500.39,240.88 500.37,238.44 500.27,236.00 500.09,233.56 499.81,231.12 499.44,228.69 498.97,226.25 498.41,223.81 497.75,221.38 497.00,218.94 496.17,216.50 495.27,214.06 494.31,211.62 493.31,209.19 492.28,206.75 491.23,204.31 490.19,201.88 489.18,199.44 488.21,197.00 487.30,194.56 486.48,192.12 485.75,189.69 485.14,187.25 484.65,184.81 484.30,182.38 484.09,179.94 484.04,177.50 484.14,175.06 484.39,172.62 484.79,170.19 485.33,167.75 486.00,165.31 486.80,162.87 487.71,160.44 488.71,158.00 489.78,155.56 490.92,153.12 492.11,150.69 493.32,148.25 494.55,145.81 495.77,143.38 496.98,140.94 498.15,138.50 499.29,136.06 500.37,133.62 501.40,131.19 502.37,128.75 503.26,126.31 504.09,123.88 504.85,121.44 505.54,119.00 506.16,116.56 506.71,114.12 507.20,111.69 507.64,109.25 508.01,106.81 508.34,104.38 508.62,101.94 508.86,99.50 509.07,97.06 509.24,94.63 509.38,92.19 509.50,89.75 509.60,87.31 509.68,84.88 509.75,82.44 509.80,80.00 510.20,80.00 510.25,82.44 510.32,84.88 510.40,87.31 510.50,89.75 510.62,92.19 510.76,94.63 510.93,97.06 511.14,99.50 511.38,101.94 511.66,104.38 511.99,106.81 512.36,109.25 512.80,111.69 513.29,114.12 513.84,116.56 514.46,119.00 515.15,121.44 515.91,123.88 516.74,126.31 517.63,128.75 518.60,131.19 519.63,133.62 520.71,136.06 521.85,138.50 523.02,140.94 524.23,143.38 525.45,145.81 526.68,148.25 527.89,150.69 529.08,153.12 530.22,155.56 531.29,158.00 532.29,160.44 533.20,162.87 534.00,165.31 534.67,167.75 535.21,170.19 535.61,172.62 535.86,175.06 535.96,177.50 535.91,179.94 535.70,182.38 535.35,184.81 534.86,187.25 534.25,189.69 533.52,192.12 532.70,194.56 531.79,197.00 530.82,199.44 529.81,201.88 528.77,204.31 527.72,206.75 526.69,209.19 525.69,211.62 524.73,214.06 523.83,216.50 523.00,218.94 522.25,221.38 521.59,223.81 521.03,226.25 520.56,228.69 520.19,231.12 519.91,233.56 519.73,236.00 519.63,238.44 519.61,240.88 519.66,243.31 519.78,245.75 519.94,248.19 520.14,250.62 520.36,253.06 520.60,255.50 520.84,257.94 521.07,260.38 521.28,262.81 521.46,265.25 521.61,267.69 521.70,270.12 521.75,272.56 521.74,275.00 521.67,277.44 521.55,279.88 521.37,282.31 521.13,284.75 520.85,287.19 520.51,289.62 520.14,292.06 519.74,294.50 519.30,296.94 518.86,299.38 518.40,301.81 517.94,304.25 517.49,306.69 517.06,309.12 516.64,311.56 516.26,314.00 515.91,316.44 515.59,318.88 515.32,321.31 515.09,323.75 514.90,326.19 514.77,328.62 514.67,331.06 514.62,333.50 514.60,335.94 514.62,338.38 514.68,340.81 514.76,343.25 514.86,345.69 514.98,348.12 515.10,350.56 515.24,353.00 515.37,355.44 515.49,357.88 515.61,360.31 515.70,362.75 515.78,365.19 515.83,367.62 515.86,370.06 515.86,372.50 515.83,374.94 515.77,377.38 515.68,379.81 515.56,382.25 515.42,384.69 515.25,387.12 515.07,389.56 514.87,392.00 514.65,394.44 514.43,396.88 514.20,399.31 513.97,401.75 513.75,404.19 513.53,406.62 513.32,409.06 513.13,411.50 512.95,413.94 512.80,416.38 512.66,418.81 512.54,421.25 512.45,423.69 512.38,426.12 512.33,428.56 512.31,431.00 512.30,433.44 512.31,435.88 512.34,438.31 512.38,440.75 512.43,443.19 512.49,445.62 512.55,448.06 512.62,450.50 512.68,452.94 512.74,455.38 512.80,457.81 512.85,460.25 512.89,462.69 512.91,465.12 512.92,467.56 512.92,470.00" fill="#1d4ed8" fill-opacity="0.35" stroke="#1d4ed8" stroke-width="2" />
<circle cx="510.00" cy="275.00" r="3.2" fill="#1d4ed8" fill-opacity="0.75" />
<circle cx="510.00" cy="275.00" r="3.2" fill="#1d4ed8" fill-opacity="0.75" />
<circle cx="510.00" cy="470.00" r="3.2" fill="#1d4ed8" fill-opacity="0.75" />
<circle cx="510.00" cy="177.50" r="3.2" fill="#1d4ed8" fill-opacity="0.75" />
<circle cx="510.00" cy="177.50" r="3.2" fill="#1d4ed8" fill-opacity="0.75" />
<circle cx="510.00" cy="177.50" r="3.2" fill="#1d4ed8" fill-opacity="0.75" />
<circle cx="510.00" cy="177.50" r="3.2" fill="#1d4ed8" fill-opacity="0.75" />
<circle cx="510.00" cy="177.50" r="3.2" fill="#1d4ed8" fill-opacity="0.75" />
<circle cx="510.00" cy="177.50" r="3.2" fill="#1d4ed8" fill-opacity="0.75" />
<circle cx="510.00" cy="275.00" r="3.2" fill="#1d4ed8" fill-opacity="0.75" />
<circle cx="510.00" cy="275.00" r="3.2" fill="#1d4ed8" fill-opacity="0.75" />
<circle cx="510.00" cy="177.50" r="3.2" fill="#1d4ed8" fill-opacity="0.75" />
<circle cx="510.00" cy="372.50" r="3.2" fill="#1d4ed8" fill-opacity="0.75" />
<circle cx="510.00" cy="372.50" r="3.2" fill="#1d4ed8" fill-opacity="0.75" />
<circle cx="510.00" cy="177.50" r="3.2" fill="#1d4ed8" fill-opacity="0.75" />
<circle cx="510.00" cy="177.50" r="3.2" fill="#1d4ed8" fill-opacity="0.75" />
<line x1="498.00" y1="177.50" x2="522.00" y2="177.50" stroke="#111827" stroke-width="2.5" />
<line x1="510.00" y1="275.00" x2="510.00" y2="177.50" stroke="#111827" stroke-width="1.5" stroke-dasharray="4 3" />
<text x="510.00" y="167.50" text-anchor="middle" font-family="Verdana, sans-serif" font-size="11" fill="#111827">M 3.31</text>
<rect x="760" y="20" width="16" height="16" rx="3" fill="#1d4ed8" fill-opacity="0.55" stroke="#1d4ed8" />
<text x="784" y="33" font-family="Verdana, sans-serif" font-size="12" fill="#374151">Phase 2</text>
</svg>