<svg xmlns="http://www.w3.org/2000/svg" width="980" height="560" viewBox="0 0 980 560">
<rect x="0" y="0" width="100%" height="100%" fill="#ffffff" />
<line x1="90" y1="430.00" x2="940" y2="430.00" stroke="#d1d5db" stroke-width="1" />
<text x="76" y="435.00" text-anchor="end" font-family="Arial, sans-serif" font-size="12" fill="#374151">1</text>
<line x1="90" y1="340.00" x2="940" y2="340.00" stroke="#d1d5db" stroke-width="1" />
<text x="76" y="345.00" text-anchor="end" font-family="Arial, sans-serif" font-size="12" fill="#374151">2</text>
<line x1="90" y1="250.00" x2="940" y2="250.00" stroke="#d1d5db" stroke-width="1" />
<text x="76" y="255.00" text-anchor="end" font-family="Arial, sans-serif" font-size="12" fill="#374151">3</text>
<line x1="90" y1="160.00" x2="940" y2="160.00" stroke="#d1d5db" stroke-width="1" />
<text x="76" y="165.00" text-anchor="end" font-family="Arial, sans-serif" font-size="12" fill="#374151">4</text>
<line x1="90" y1="70.00" x2="940" y2="70.00" stroke="#d1d5db" stroke-width="1" />
<text x="76" y="75.00" text-anchor="end" font-family="Arial, sans-serif" font-size="12" fill="#374151">5</text>
<line x1="90" y1="70" x2="90" y2="430" stroke="#111827" stroke-width="1.5" />
<line x1="90" y1="430" x2="940" y2="430" stroke="#111827" stroke-width="1.5" />
<line x1="515.00" y1="70" x2="515.00" y2="430" stroke="#4b5563" stroke-width="1.2" />
<text x="28" y="250.00" transform="rotate(-90 28 250.00)" font-family="Arial, sans-serif" font-size="13" fill="#111827">Quality (1-5)</text>
<text x="515.00" y="535" text-anchor="middle" font-family="Arial, sans-serif" font-size="13" fill="#111827">Group</text>
<polygon points="459.34,430.00 459.43,427.75 459.84,425.50 460.55,423.25 461.55,421.00 462.81,418.75 464.29,416.50 465.98,414.25 467.82,412.00 469.78,409.75 471.81,407.50 473.88,405.25 475.94,403.00 477.94,400.75 479.86,398.50 481.64,396.25 483.28,394.00 484.72,391.75 485.97,389.50 486.98,387.25 487.77,385.00 488.31,382.75 488.62,380.50 488.69,378.25 488.55,376.00 488.19,373.75 487.66,371.50 486.97,369.25 486.14,367.00 485.22,364.75 484.23,362.50 483.21,360.25 482.19,358.00 481.20,355.75 480.28,353.50 479.45,351.25 478.75,349.00 478.20,346.75 477.81,344.50 477.60,342.25 477.59,340.00 477.77,337.75 478.16,335.50 478.74,333.25 479.51,331.00 480.45,328.75 481.56,326.50 482.81,324.25 484.17,322.00 485.64,319.75 487.17,317.50 488.75,315.25 490.35,313.00 491.95,310.75 493.52,308.50 495.04,306.25 496.50,304.00 497.88,301.75 499.15,299.50 500.33,297.25 501.38,295.00 502.32,292.75 503.14,290.50 503.83,288.25 504.41,286.00 504.87,283.75 505.23,281.50 505.50,279.25 505.68,277.00 505.78,274.75 505.83,272.50 505.82,270.25 505.78,268.00 505.72,265.75 505.65,263.50 505.57,261.25 505.50,259.00 505.45,256.75 505.43,254.50 505.44,252.25 505.49,250.00 505.58,247.75 505.71,245.50 505.89,243.25 506.11,241.00 506.37,238.75 506.67,236.50 507.01,234.25 507.37,232.00 507.77,229.75 508.18,227.50 508.61,225.25 509.04,223.00 509.48,220.75 509.92,218.50 510.35,216.25 510.77,214.00 511.18,211.75 511.56,209.50 511.93,207.25 512.28,205.00 512.60,202.75 512.89,200.50 513.16,198.25 513.41,196.00 513.63,193.75 513.82,191.50 514.00,189.25 514.15,187.00 514.28,184.75 514.40,182.50 514.50,180.25 514.58,178.00 514.65,175.75 514.70,173.50 514.74,171.25 514.77,169.00 514.79,166.75 514.80,164.50 514.80,162.25 514.79,160.00 514.77,157.75 514.73,155.50 514.68,153.25 514.62,151.00 514.54,148.75 514.44,146.50 514.32,144.25 514.18,142.00 514.01,139.75 513.81,137.50 513.58,135.25 513.31,133.00 513.00,130.75 512.65,128.50 512.26,126.25 511.82,124.00 511.33,121.75 510.78,119.50 510.19,117.25 509.55,115.00 508.86,112.75 508.13,110.50 507.36,108.25 506.55,106.00 505.71,103.75 504.85,101.50 503.98,99.25 503.10,97.00 502.24,94.75 501.39,92.50 500.58,90.25 499.81,88.00 499.10,85.75 498.46,83.50 497.89,81.25 497.42,79.00 497.04,76.75 496.76,74.50 496.59,72.25 496.54,70.00 515.00,70.00 515.00,72.25 515.00,74.50 515.00,76.75 515.00,79.00 515.00,81.25 515.00,83.50 515.00,85.75 515.00,88.00 515.00,90.25 515.00,92.50 515.00,94.75 515.00,97.00 515.00,99.25 515.00,101.50 515.00,103.75 515.00,106.00 515.00,108.25 515.00,110.50 515.00,112.75 515.00,115.00 515.00,117.25 515.00,119.50 515.00,121.75 515.00,124.00 515.00,126.25 515.00,128.50 515.00,130.75 515.00,133.00 515.00,135.25 515.00,137.50 515.00,139.75 515.00,142.00 515.00,144.25 515.00,146.50 515.00,148.75 515.00,151.00 515.00,153.25 515.00,155.50 515.00,157.75 515.00,160.00 515.00,162.25 515.00,164.50 515.00,166.75 515.00,169.00 515.00,171.25 515.00,173.50 515.00,175.75 515.00,178.00 515.00,180.25 515.00,182.50 515.00,184.75 515.00,187.00 515.00,189.25 515.00,191.50 515.00,193.75 515.00,196.00 515.00,198.25 515.00,200.50 515.00,202.75 515.00,205.00 515.00,207.25 515.00,209.50 515.00,211.75 515.00,214.00 515.00,216.25 515.00,218.50 515.00,220.75 515.00,223.00 515.00,225.25 515.00,227.50 515.00,229.75 515.00,232.00 515.00,234.25 515.00,236.50 515.00,238.75 515.00,241.00 515.00,243.25 515.00,245.50 515.00,247.75 515.00,250.00 515.00,252.25 515.00,254.50 515.00,256.75 515.00,259.00 515.00,261.25 515.00,263.50 515.00,265.75 515.00,268.00 515.00,270.25 515.00,272.50 515.00,274.75 515.00,277.00 515.00,279.25 515.00,281.50 515.00,283.75 515.00,286.00 515.00,288.25 515.00,290.50 515.00,292.75 515.00,295.00 515.00,297.25 515.00,299.50 515.00,301.75 515.00,304.00 515.00,306.25 515.00,308.50 515.00,310.75 515.00,313.00 515.00,315.25 515.00,317.50 515.00,319.75 515.00,322.00 515.00,324.25 515.00,326.50 515.00,328.75 515.00,331.00 515.00,333.25 515.00,335.50 515.00,337.75 515.00,340.00 515.00,342.25 515.00,344.50 515.00,346.75 515.00,349.00 515.00,351.25 515.00,353.50 515.00,355.75 515.00,358.00 515.00,360.25 515.00,362.50 515.00,364.75 515.00,367.00 515.00,369.25 515.00,371.50 515.00,373.75 515.00,376.00 515.00,378.25 515.00,380.50 515.00,382.75 515.00,385.00 515.00,387.25 515.00,389.50 515.00,391.75 515.00,394.00 515.00,396.25 515.00,398.50 515.00,400.75 515.00,403.00 515.00,405.25 515.00,407.50 515.00,409.75 515.00,412.00 515.00,414.25 515.00,416.50 515.00,418.75 515.00,421.00 515.00,423.25 515.00,425.50 515.00,427.75 515.00,430.00" fill="#3b82b6" fill-opacity="0.9" stroke="#4b5563" stroke-width="1.2" />
<polygon points="515.00,430.00 515.00,427.75 515.00,425.50 515.00,423.25 515.00,421.00 515.00,418.75 515.00,416.50 515.00,414.25 515.00,412.00 515.00,409.75 515.00,407.50 515.00,405.25 515.00,403.00 515.00,400.75 515.00,398.50 515.00,396.25 515.00,394.00 515.00,391.75 515.00,389.50 515.00,387.25 515.00,385.00 515.00,382.75 515.00,380.50 515.00,378.25 515.00,376.00 515.00,373.75 515.00,371.50 515.00,369.25 515.00,367.00 515.00,364.75 515.00,362.50 515.00,360.25 515.00,358.00 515.00,355.75 515.00,353.50 515.00,351.25 515.00,349.00 515.00,346.75 515.00,344.50 515.00,342.25 515.00,340.00 515.00,337.75 515.00,335.50 515.00,333.25 515.00,331.00 515.00,328.75 515.00,326.50 515.00,324.25 515.00,322.00 515.00,319.75 515.00,317.50 515.00,315.25 515.00,313.00 515.00,310.75 515.00,308.50 515.00,306.25 515.00,304.00 515.00,301.75 515.00,299.50 515.00,297.25 515.00,295.00 515.00,292.75 515.00,290.50 515.00,288.25 515.00,286.00 515.00,283.75 515.00,281.50 515.00,279.25 515.00,277.00 515.00,274.75 515.00,272.50 515.00,270.25 515.00,268.00 515.00,265.75 515.00,263.50 515.00,261.25 515.00,259.00 515.00,256.75 515.00,254.50 515.00,252.25 515.00,250.00 515.00,247.75 515.00,245.50 515.00,243.25 515.00,241.00 515.00,238.75 515.00,236.50 515.00,234.25 515.00,232.00 515.00,229.75 515.00,227.50 515.00,225.25 515.00,223.00 515.00,220.75 515.00,218.50 515.00,216.25 515.00,214.00 515.00,211.75 515.00,209.50 515.00,207.25 515.00,205.00 515.00,202.75 515.00,200.50 515.00,198.25 515.00,196.00 515.00,193.75 515.00,191.50 515.00,189.25 515.00,187.00 515.00,184.75 515.00,182.50 515.00,180.25 515.00,178.00 515.00,175.75 515.00,173.50 515.00,171.25 515.00,169.00 515.00,166.75 515.00,164.50 515.00,162.25 515.00,160.00 515.00,157.75 515.00,155.50 515.00,153.25 515.00,151.00 515.00,148.75 515.00,146.50 515.00,144.25 515.00,142.00 515.00,139.75 515.00,137.50 515.00,135.25 515.00,133.00 515.00,130.75 515.00,128.50 515.00,126.25 515.00,124.00 515.00,121.75 515.00,119.50 515.00,117.25 515.00,115.00 515.00,112.75 515.00,110.50 515.00,108.25 515.00,106.00 515.00,103.75 515.00,101.50 515.00,99.25 515.00,97.00 515.00,94.75 515.00,92.50 515.00,90.25 515.00,88.00 515.00,85.75 515.00,83.50 515.00,81.25 515.00,79.00 515.00,76.75 515.00,74.50 515.00,72.25 515.00,70.00 515.57,70.00 515.72,72.25 515.91,74.50 516.15,76.75 516.44,79.00 516.78,81.25 517.20,83.50 517.70,85.75 518.30,88.00 518.99,90.25 519.81,92.50 520.76,94.75 521.85,97.00 523.11,99.25 524.53,101.50 526.14,103.75 527.93,106.00 529.93,108.25 532.12,110.50 534.52,112.75 537.13,115.00 539.92,117.25 542.90,119.50 546.05,121.75 549.34,124.00 552.75,126.25 556.24,128.50 559.78,130.75 563.33,133.00 566.85,135.25 570.28,137.50 573.58,139.75 576.71,142.00 579.60,144.25 582.22,146.50 584.52,148.75 586.47,151.00 588.02,153.25 589.16,155.50 589.86,157.75 590.11,160.00 589.92,162.25 589.27,164.50 588.20,166.75 586.71,169.00 584.85,171.25 582.64,173.50 580.12,175.75 577.35,178.00 574.37,180.25 571.24,182.50 568.00,184.75 564.70,187.00 561.40,189.25 558.14,191.50 554.97,193.75 551.92,196.00 549.03,198.25 546.33,200.50 543.83,202.75 541.55,205.00 539.51,207.25 537.70,209.50 536.14,211.75 534.80,214.00 533.69,216.25 532.78,218.50 532.07,220.75 531.52,223.00 531.13,225.25 530.87,227.50 530.72,229.75 530.65,232.00 530.64,234.25 530.67,236.50 530.71,238.75 530.76,241.00 530.80,243.25 530.80,245.50 530.77,247.75 530.68,250.00 530.54,252.25 530.35,254.50 530.09,256.75 529.78,259.00 529.41,261.25 529.00,263.50 528.55,265.75 528.06,268.00 527.56,270.25 527.05,272.50 526.55,274.75 526.06,277.00 525.59,279.25 525.16,281.50 524.78,283.75 524.46,286.00 524.20,288.25 524.01,290.50 523.89,292.75 523.85,295.00 523.89,297.25 524.01,299.50 524.20,301.75 524.46,304.00 524.78,306.25 525.16,308.50 525.58,310.75 526.04,313.00 526.53,315.25 527.02,317.50 527.52,319.75 528.01,322.00 528.47,324.25 528.90,326.50 529.29,328.75 529.61,331.00 529.88,333.25 530.07,335.50 530.19,337.75 530.23,340.00 530.19,342.25 530.07,344.50 529.88,346.75 529.61,349.00 529.29,351.25 528.90,353.50 528.47,355.75 528.01,358.00 527.52,360.25 527.02,362.50 526.53,364.75 526.04,367.00 525.58,369.25 525.16,371.50 524.78,373.75 524.45,376.00 524.20,378.25 524.01,380.50 523.89,382.75 523.85,385.00 523.89,387.25 524.01,389.50 524.19,391.75 524.45,394.00 524.78,396.25 525.15,398.50 525.58,400.75 526.04,403.00 526.52,405.25 527.02,407.50 527.51,409.75 528.00,412.00 528.46,414.25 528.88,416.50 529.26,418.75 529.57,421.00 529.82,423.25 530.00,425.50 530.10,427.75 530.11,430.00" fill="#f28e2b" fill-opacity="0.9" stroke="#4b5563" stroke-width="1.2" />
<rect x="501.00" y="295.00" width="12.00" height="135.00" fill="white" stroke="#4b5563" stroke-width="1.2" />
<line x1="501.00" y1="340.00" x2="513.00" y2="340.00" stroke="#111827" stroke-width="1.6" />
<line x1="505.00" y1="70.00" x2="505.00" y2="295.00" stroke="#4b5563" stroke-width="1.1" />
<line x1="505.00" y1="430.00" x2="505.00" y2="430.00" stroke="#4b5563" stroke-width="1.1" />
<line x1="501.00" y1="70.00" x2="509.00" y2="70.00" stroke="#4b5563" stroke-width="1.1" />
<line x1="501.00" y1="430.00" x2="509.00" y2="430.00" stroke="#4b5563" stroke-width="1.1" />
<rect x="517.00" y="160.00" width="12.00" height="135.00" fill="white" stroke="#4b5563" stroke-width="1.2" />
<line x1="517.00" y1="160.00" x2="529.00" y2="160.00" stroke="#111827" stroke-width="1.6" />
<line x1="525.00" y1="160.00" x2="525.00" y2="160.00" stroke="#4b5563" stroke-width="1.1" />
<line x1="525.00" y1="295.00" x2="525.00" y2="430.00" stroke="#4b5563" stroke-width="1.1" />
<line x1="521.00" y1="160.00" x2="529.00" y2="160.00" stroke="#4b5563" stroke-width="1.1" />
<line x1="521.00" y1="430.00" x2="529.00" y2="430.00" stroke="#4b5563" stroke-width="1.1" />
<text x="433.40" y="498" text-anchor="middle" font-family="Arial, sans-serif" font-size="12.5" fill="#111827">Phase 1</text>
<text x="596.60" y="498" text-anchor="middle" font-family="Arial, sans-serif" font-size="12.5" fill="#111827">Phase 2</text>
<text x="433.40" y="516" text-anchor="middle" font-family="Arial, sans-serif" font-size="11.5" fill="#374151">n=13, M=2.08, SD=1.44</text>
<text x="596.60" y="516" text-anchor="middle" font-family="Arial, sans-serif" font-size="11.5" fill="#374151">n=16, M=3.25, SD=1.13</text>
<text x="490.00" y="30" text-anchor="middle" font-family="Arial, sans-serif" font-size="22" fill="#111827">P19: article quality</text>
</svg>