<svg xmlns="http://www.w3.org/2000/svg" width="980" height="560" viewBox="0 0 980 560">
<rect width="100%" height="100%" fill="#fbfaf7" />
<text x="40" y="35" font-family="Verdana, sans-serif" font-size="22" font-weight="700" fill="#1f2937">P20: article quality distribution</text>
<line x1="80" y1="470.00" x2="940" y2="470.00" stroke="#d1d5db" stroke-width="1" />
<text x="68" y="475.00" text-anchor="end" font-family="Verdana, sans-serif" font-size="12" fill="#4b5563">0</text>
<line x1="80" y1="455.00" x2="940" y2="455.00" stroke="#d1d5db" stroke-width="1" />
<text x="68" y="460.00" text-anchor="end" font-family="Verdana, sans-serif" font-size="12" fill="#4b5563">1</text>
<line x1="80" y1="440.00" x2="940" y2="440.00" stroke="#d1d5db" stroke-width="1" />
<text x="68" y="445.00" text-anchor="end" font-family="Verdana, sans-serif" font-size="12" fill="#4b5563">2</text>
<line x1="80" y1="425.00" x2="940" y2="425.00" stroke="#d1d5db" stroke-width="1" />
<text x="68" y="430.00" text-anchor="end" font-family="Verdana, sans-serif" font-size="12" fill="#4b5563">3</text>
<line x1="80" y1="410.00" x2="940" y2="410.00" stroke="#d1d5db" stroke-width="1" />
<text x="68" y="415.00" text-anchor="end" font-family="Verdana, sans-serif" font-size="12" fill="#4b5563">4</text>
<line x1="80" y1="395.00" x2="940" y2="395.00" stroke="#d1d5db" stroke-width="1" />
<text x="68" y="400.00" text-anchor="end" font-family="Verdana, sans-serif" font-size="12" fill="#4b5563">5</text>
<line x1="80" y1="380.00" x2="940" y2="380.00" stroke="#d1d5db" stroke-width="1" />
<text x="68" y="385.00" text-anchor="end" font-family="Verdana, sans-serif" font-size="12" fill="#4b5563">6</text>
<line x1="80" y1="365.00" x2="940" y2="365.00" stroke="#d1d5db" stroke-width="1" />
<text x="68" y="370.00" text-anchor="end" font-family="Verdana, sans-serif" font-size="12" fill="#4b5563">7</text>
<line x1="80" y1="350.00" x2="940" y2="350.00" stroke="#d1d5db" stroke-width="1" />
<text x="68" y="355.00" text-anchor="end" font-family="Verdana, sans-serif" font-size="12" fill="#4b5563">8</text>
<line x1="80" y1="335.00" x2="940" y2="335.00" stroke="#d1d5db" stroke-width="1" />
<text x="68" y="340.00" text-anchor="end" font-family="Verdana, sans-serif" font-size="12" fill="#4b5563">9</text>
<line x1="80" y1="320.00" x2="940" y2="320.00" stroke="#d1d5db" stroke-width="1" />
<text x="68" y="325.00" text-anchor="end" font-family="Verdana, sans-serif" font-size="12" fill="#4b5563">10</text>
<line x1="80" y1="305.00" x2="940" y2="305.00" stroke="#d1d5db" stroke-width="1" />
<text x="68" y="310.00" text-anchor="end" font-family="Verdana, sans-serif" font-size="12" fill="#4b5563">11</text>
<line x1="80" y1="290.00" x2="940" y2="290.00" stroke="#d1d5db" stroke-width="1" />
<text x="68" y="295.00" text-anchor="end" font-family="Verdana, sans-serif" font-size="12" fill="#4b5563">12</text>
<line x1="80" y1="275.00" x2="940" y2="275.00" stroke="#d1d5db" stroke-width="1" />
<text x="68" y="280.00" text-anchor="end" font-family="Verdana, sans-serif" font-size="12" fill="#4b5563">13</text>
<line x1="80" y1="260.00" x2="940" y2="260.00" stroke="#d1d5db" stroke-width="1" />
<text x="68" y="265.00" text-anchor="end" font-family="Verdana, sans-serif" font-size="12" fill="#4b5563">14</text>
<line x1="80" y1="245.00" x2="940" y2="245.00" stroke="#d1d5db" stroke-width="1" />
<text x="68" y="250.00" text-anchor="end" font-family="Verdana, sans-serif" font-size="12" fill="#4b5563">15</text>
<line x1="80" y1="230.00" x2="940" y2="230.00" stroke="#d1d5db" stroke-width="1" />
<text x="68" y="235.00" text-anchor="end" font-family="Verdana, sans-serif" font-size="12" fill="#4b5563">16</text>
<line x1="80" y1="215.00" x2="940" y2="215.00" stroke="#d1d5db" stroke-width="1" />
<text x="68" y="220.00" text-anchor="end" font-family="Verdana, sans-serif" font-size="12" fill="#4b5563">17</text>
<line x1="80" y1="200.00" x2="940" y2="200.00" stroke="#d1d5db" stroke-width="1" />
<text x="68" y="205.00" text-anchor="end" font-family="Verdana, sans-serif" font-size="12" fill="#4b5563">18</text>
<line x1="80" y1="185.00" x2="940" y2="185.00" stroke="#d1d5db" stroke-width="1" />
<text x="68" y="190.00" text-anchor="end" font-family="Verdana, sans-serif" font-size="12" fill="#4b5563">19</text>
<line x1="80" y1="170.00" x2="940" y2="170.00" stroke="#d1d5db" stroke-width="1" />
<text x="68" y="175.00" text-anchor="end" font-family="Verdana, sans-serif" font-size="12" fill="#4b5563">20</text>
<line x1="80" y1="155.00" x2="940" y2="155.00" stroke="#d1d5db" stroke-width="1" />
<text x="68" y="160.00" text-anchor="end" font-family="Verdana, sans-serif" font-size="12" fill="#4b5563">21</text>
<line x1="80" y1="140.00" x2="940" y2="140.00" stroke="#d1d5db" stroke-width="1" />
<text x="68" y="145.00" text-anchor="end" font-family="Verdana, sans-serif" font-size="12" fill="#4b5563">22</text>
<line x1="80" y1="125.00" x2="940" y2="125.00" stroke="#d1d5db" stroke-width="1" />
<text x="68" y="130.00" text-anchor="end" font-family="Verdana, sans-serif" font-size="12" fill="#4b5563">23</text>
<line x1="80" y1="110.00" x2="940" y2="110.00" stroke="#d1d5db" stroke-width="1" />
<text x="68" y="115.00" text-anchor="end" font-family="Verdana, sans-serif" font-size="12" fill="#4b5563">24</text>
<line x1="80" y1="95.00" x2="940" y2="95.00" stroke="#d1d5db" stroke-width="1" />
<text x="68" y="100.00" text-anchor="end" font-family="Verdana, sans-serif" font-size="12" fill="#4b5563">25</text>
<line x1="80" y1="80.00" x2="940" y2="80.00" stroke="#d1d5db" stroke-width="1" />
<text x="68" y="85.00" text-anchor="end" font-family="Verdana, sans-serif" font-size="12" fill="#4b5563">26</text>
<line x1="80" y1="80" x2="80" y2="470" stroke="#111827" stroke-width="2" />
<line x1="80" y1="470" x2="940" y2="470" stroke="#111827" stroke-width="2" />
<text x="22" y="275.00" transform="rotate(-90 22 275.00)" font-family="Verdana, sans-serif" font-size="13" fill="#374151">Count</text>
<text x="166.00" y="515" text-anchor="middle" font-family="Verdana, sans-serif" font-size="12" fill="#374151">1</text>
<rect x="105.80" y="470.00" width="50.57" height="0.00" rx="4" fill="#b45309" />
<text x="131.08" y="462.00" text-anchor="middle" font-family="Verdana, sans-serif" font-size="11" fill="#111827">0.00</text>
<rect x="166.00" y="470.00" width="50.57" height="0.00" rx="4" fill="#0f766e" />
<text x="191.28" y="462.00" text-anchor="middle" font-family="Verdana, sans-serif" font-size="11" fill="#111827">0.00</text>
<text x="338.00" y="515" text-anchor="middle" font-family="Verdana, sans-serif" font-size="12" fill="#374151">2</text>
<rect x="277.80" y="470.00" width="50.57" height="0.00" rx="4" fill="#b45309" />
<text x="303.08" y="462.00" text-anchor="middle" font-family="Verdana, sans-serif" font-size="11" fill="#111827">0.00</text>
<rect x="338.00" y="455.00" width="50.57" height="15.00" rx="4" fill="#0f766e" />
<text x="363.28" y="447.00" text-anchor="middle" font-family="Verdana, sans-serif" font-size="11" fill="#111827">1.00</text>
<text x="510.00" y="515" text-anchor="middle" font-family="Verdana, sans-serif" font-size="12" fill="#374151">3</text>
<rect x="449.80" y="410.00" width="50.57" height="60.00" rx="4" fill="#b45309" />
<text x="475.08" y="402.00" text-anchor="middle" font-family="Verdana, sans-serif" font-size="11" fill="#111827">4.00</text>
<rect x="510.00" y="440.00" width="50.57" height="30.00" rx="4" fill="#0f766e" />
<text x="535.28" y="432.00" text-anchor="middle" font-family="Verdana, sans-serif" font-size="11" fill="#111827">2.00</text>
<text x="682.00" y="515" text-anchor="middle" font-family="Verdana, sans-serif" font-size="12" fill="#374151">4</text>
<rect x="621.80" y="230.00" width="50.57" height="240.00" rx="4" fill="#b45309" />
<text x="647.08" y="222.00" text-anchor="middle" font-family="Verdana, sans-serif" font-size="11" fill="#111827">16.00</text>
<rect x="682.00" y="80.00" width="50.57" height="390.00" rx="4" fill="#0f766e" />
<text x="707.28" y="76.00" text-anchor="middle" font-family="Verdana, sans-serif" font-size="11" fill="#111827">26.00</text>
<text x="854.00" y="515" text-anchor="middle" font-family="Verdana, sans-serif" font-size="12" fill="#374151">5</text>
<rect x="793.80" y="290.00" width="50.57" height="180.00" rx="4" fill="#b45309" />
<text x="819.08" y="282.00" text-anchor="middle" font-family="Verdana, sans-serif" font-size="11" fill="#111827">12.00</text>
<rect x="854.00" y="350.00" width="50.57" height="120.00" rx="4" fill="#0f766e" />
<text x="879.28" y="342.00" text-anchor="middle" font-family="Verdana, sans-serif" font-size="11" fill="#111827">8.00</text>
<rect x="760" y="20" width="16" height="16" rx="3" fill="#b45309" />
<text x="784" y="33" font-family="Verdana, sans-serif" font-size="12" fill="#374151">Phase 1</text>
<rect x="760" y="44" width="16" height="16" rx="3" fill="#0f766e" />
<text x="784" y="57" font-family="Verdana, sans-serif" font-size="12" fill="#374151">Phase 2</text>
</svg>