<svg xmlns="http://www.w3.org/2000/svg" width="980" height="560" viewBox="0 0 980 560">
<rect x="0" y="0" width="100%" height="100%" fill="#ffffff" />
<line x1="90" y1="430.00" x2="940" y2="430.00" stroke="#d1d5db" stroke-width="1" />
<text x="76" y="435.00" text-anchor="end" font-family="Arial, sans-serif" font-size="12" fill="#374151">1</text>
<line x1="90" y1="340.00" x2="940" y2="340.00" stroke="#d1d5db" stroke-width="1" />
<text x="76" y="345.00" text-anchor="end" font-family="Arial, sans-serif" font-size="12" fill="#374151">2</text>
<line x1="90" y1="250.00" x2="940" y2="250.00" stroke="#d1d5db" stroke-width="1" />
<text x="76" y="255.00" text-anchor="end" font-family="Arial, sans-serif" font-size="12" fill="#374151">3</text>
<line x1="90" y1="160.00" x2="940" y2="160.00" stroke="#d1d5db" stroke-width="1" />
<text x="76" y="165.00" text-anchor="end" font-family="Arial, sans-serif" font-size="12" fill="#374151">4</text>
<line x1="90" y1="70.00" x2="940" y2="70.00" stroke="#d1d5db" stroke-width="1" />
<text x="76" y="75.00" text-anchor="end" font-family="Arial, sans-serif" font-size="12" fill="#374151">5</text>
<line x1="90" y1="70" x2="90" y2="430" stroke="#111827" stroke-width="1.5" />
<line x1="90" y1="430" x2="940" y2="430" stroke="#111827" stroke-width="1.5" />
<line x1="515.00" y1="70" x2="515.00" y2="430" stroke="#4b5563" stroke-width="1.2" />
<text x="28" y="250.00" transform="rotate(-90 28 250.00)" font-family="Arial, sans-serif" font-size="13" fill="#111827">Quality (1-5)</text>
<text x="515.00" y="535" text-anchor="middle" font-family="Arial, sans-serif" font-size="13" fill="#111827">Group</text>
<polygon points="515.00,430.00 515.00,427.75 515.00,425.50 515.00,423.25 515.00,421.00 515.00,418.75 515.00,416.50 515.00,414.25 515.00,412.00 515.00,409.75 515.00,407.50 515.00,405.25 515.00,403.00 515.00,400.75 515.00,398.50 515.00,396.25 515.00,394.00 515.00,391.75 515.00,389.50 515.00,387.25 515.00,385.00 515.00,382.75 515.00,380.50 515.00,378.25 515.00,376.00 515.00,373.75 515.00,371.50 515.00,369.25 515.00,367.00 514.99,364.75 514.99,362.50 514.99,360.25 514.99,358.00 514.98,355.75 514.98,353.50 514.97,351.25 514.96,349.00 514.95,346.75 514.93,344.50 514.91,342.25 514.89,340.00 514.86,337.75 514.82,335.50 514.77,333.25 514.71,331.00 514.64,328.75 514.56,326.50 514.46,324.25 514.34,322.00 514.20,319.75 514.04,317.50 513.85,315.25 513.63,313.00 513.38,310.75 513.09,308.50 512.77,306.25 512.41,304.00 512.01,301.75 511.57,299.50 511.09,297.25 510.57,295.00 510.01,292.75 509.42,290.50 508.79,288.25 508.13,286.00 507.45,283.75 506.74,281.50 506.03,279.25 505.32,277.00 504.61,274.75 503.92,272.50 503.25,270.25 502.61,268.00 502.01,265.75 501.47,263.50 500.98,261.25 500.55,259.00 500.19,256.75 499.91,254.50 499.69,252.25 499.55,250.00 499.47,247.75 499.45,245.50 499.49,243.25 499.57,241.00 499.67,238.75 499.80,236.50 499.92,234.25 500.03,232.00 500.09,229.75 500.10,227.50 500.02,225.25 499.85,223.00 499.56,220.75 499.13,218.50 498.54,216.25 497.79,214.00 496.85,211.75 495.72,209.50 494.40,207.25 492.87,205.00 491.16,202.75 489.25,200.50 487.17,198.25 484.94,196.00 482.57,193.75 480.10,191.50 477.55,189.25 474.95,187.00 472.36,184.75 469.80,182.50 467.31,180.25 464.95,178.00 462.74,175.75 460.73,173.50 458.96,171.25 457.45,169.00 456.24,166.75 455.34,164.50 454.77,162.25 454.55,160.00 454.66,157.75 455.11,155.50 455.88,153.25 456.96,151.00 458.31,148.75 459.90,146.50 461.69,144.25 463.65,142.00 465.73,139.75 467.89,137.50 470.06,135.25 472.22,133.00 474.31,130.75 476.29,128.50 478.12,126.25 479.77,124.00 481.21,121.75 482.40,119.50 483.35,117.25 484.02,115.00 484.43,112.75 484.56,110.50 484.43,108.25 484.05,106.00 483.44,103.75 482.63,101.50 481.65,99.25 480.52,97.00 479.29,94.75 477.99,92.50 476.66,90.25 475.35,88.00 474.09,85.75 472.92,83.50 471.88,81.25 471.00,79.00 470.30,76.75 469.81,74.50 469.56,72.25 469.55,70.00 515.00,70.00 515.00,72.25 515.00,74.50 515.00,76.75 515.00,79.00 515.00,81.25 515.00,83.50 515.00,85.75 515.00,88.00 515.00,90.25 515.00,92.50 515.00,94.75 515.00,97.00 515.00,99.25 515.00,101.50 515.00,103.75 515.00,106.00 515.00,108.25 515.00,110.50 515.00,112.75 515.00,115.00 515.00,117.25 515.00,119.50 515.00,121.75 515.00,124.00 515.00,126.25 515.00,128.50 515.00,130.75 515.00,133.00 515.00,135.25 515.00,137.50 515.00,139.75 515.00,142.00 515.00,144.25 515.00,146.50 515.00,148.75 515.00,151.00 515.00,153.25 515.00,155.50 515.00,157.75 515.00,160.00 515.00,162.25 515.00,164.50 515.00,166.75 515.00,169.00 515.00,171.25 515.00,173.50 515.00,175.75 515.00,178.00 515.00,180.25 515.00,182.50 515.00,184.75 515.00,187.00 515.00,189.25 515.00,191.50 515.00,193.75 515.00,196.00 515.00,198.25 515.00,200.50 515.00,202.75 515.00,205.00 515.00,207.25 515.00,209.50 515.00,211.75 515.00,214.00 515.00,216.25 515.00,218.50 515.00,220.75 515.00,223.00 515.00,225.25 515.00,227.50 515.00,229.75 515.00,232.00 515.00,234.25 515.00,236.50 515.00,238.75 515.00,241.00 515.00,243.25 515.00,245.50 515.00,247.75 515.00,250.00 515.00,252.25 515.00,254.50 515.00,256.75 515.00,259.00 515.00,261.25 515.00,263.50 515.00,265.75 515.00,268.00 515.00,270.25 515.00,272.50 515.00,274.75 515.00,277.00 515.00,279.25 515.00,281.50 515.00,283.75 515.00,286.00 515.00,288.25 515.00,290.50 515.00,292.75 515.00,295.00 515.00,297.25 515.00,299.50 515.00,301.75 515.00,304.00 515.00,306.25 515.00,308.50 515.00,310.75 515.00,313.00 515.00,315.25 515.00,317.50 515.00,319.75 515.00,322.00 515.00,324.25 515.00,326.50 515.00,328.75 515.00,331.00 515.00,333.25 515.00,335.50 515.00,337.75 515.00,340.00 515.00,342.25 515.00,344.50 515.00,346.75 515.00,349.00 515.00,351.25 515.00,353.50 515.00,355.75 515.00,358.00 515.00,360.25 515.00,362.50 515.00,364.75 515.00,367.00 515.00,369.25 515.00,371.50 515.00,373.75 515.00,376.00 515.00,378.25 515.00,380.50 515.00,382.75 515.00,385.00 515.00,387.25 515.00,389.50 515.00,391.75 515.00,394.00 515.00,396.25 515.00,398.50 515.00,400.75 515.00,403.00 515.00,405.25 515.00,407.50 515.00,409.75 515.00,412.00 515.00,414.25 515.00,416.50 515.00,418.75 515.00,421.00 515.00,423.25 515.00,425.50 515.00,427.75 515.00,430.00" fill="#3b82b6" fill-opacity="0.9" stroke="#4b5563" stroke-width="1.2" />
<polygon points="515.00,430.00 515.00,427.75 515.00,425.50 515.00,423.25 515.00,421.00 515.00,418.75 515.00,416.50 515.00,414.25 515.00,412.00 515.00,409.75 515.00,407.50 515.00,405.25 515.00,403.00 515.00,400.75 515.00,398.50 515.00,396.25 515.00,394.00 515.00,391.75 515.00,389.50 515.00,387.25 515.00,385.00 515.00,382.75 515.00,380.50 515.00,378.25 515.00,376.00 515.00,373.75 515.00,371.50 515.00,369.25 515.00,367.00 515.00,364.75 515.00,362.50 515.00,360.25 515.00,358.00 515.00,355.75 515.00,353.50 515.00,351.25 515.00,349.00 515.00,346.75 515.00,344.50 515.00,342.25 515.00,340.00 515.00,337.75 515.00,335.50 515.00,333.25 515.00,331.00 515.00,328.75 515.00,326.50 515.00,324.25 515.00,322.00 515.00,319.75 515.00,317.50 515.00,315.25 515.00,313.00 515.00,310.75 515.00,308.50 515.00,306.25 515.00,304.00 515.00,301.75 515.00,299.50 515.00,297.25 515.00,295.00 515.00,292.75 515.00,290.50 515.00,288.25 515.00,286.00 515.00,283.75 515.00,281.50 515.00,279.25 515.00,277.00 515.00,274.75 515.00,272.50 515.00,270.25 515.00,268.00 515.00,265.75 515.00,263.50 515.00,261.25 515.00,259.00 515.00,256.75 515.00,254.50 515.00,252.25 515.00,250.00 515.00,247.75 515.00,245.50 515.00,243.25 515.00,241.00 515.00,238.75 515.00,236.50 515.00,234.25 515.00,232.00 515.00,229.75 515.00,227.50 515.00,225.25 515.00,223.00 515.00,220.75 515.00,218.50 515.00,216.25 515.00,214.00 515.00,211.75 515.00,209.50 515.00,207.25 515.00,205.00 515.00,202.75 515.00,200.50 515.00,198.25 515.00,196.00 515.00,193.75 515.00,191.50 515.00,189.25 515.00,187.00 515.00,184.75 515.00,182.50 515.00,180.25 515.00,178.00 515.00,175.75 515.00,173.50 515.00,171.25 515.00,169.00 515.00,166.75 515.00,164.50 515.00,162.25 515.00,160.00 515.00,157.75 515.00,155.50 515.00,153.25 515.00,151.00 515.00,148.75 515.00,146.50 515.00,144.25 515.00,142.00 515.00,139.75 515.00,137.50 515.00,135.25 515.00,133.00 515.00,130.75 515.00,128.50 515.00,126.25 515.00,124.00 515.00,121.75 515.00,119.50 515.00,117.25 515.00,115.00 515.00,112.75 515.00,110.50 515.00,108.25 515.00,106.00 515.00,103.75 515.00,101.50 515.00,99.25 515.00,97.00 515.00,94.75 515.00,92.50 515.00,90.25 515.00,88.00 515.00,85.75 515.00,83.50 515.00,81.25 515.00,79.00 515.00,76.75 515.00,74.50 515.00,72.25 515.00,70.00 541.58,70.00 541.68,72.25 541.66,74.50 541.54,76.75 541.32,79.00 541.05,81.25 540.72,83.50 540.38,85.75 540.05,88.00 539.75,90.25 539.53,92.50 539.41,94.75 539.43,97.00 539.61,99.25 539.98,101.50 540.58,103.75 541.42,106.00 542.52,108.25 543.90,110.50 545.57,112.75 547.53,115.00 549.78,117.25 552.30,119.50 555.07,121.75 558.08,124.00 561.29,126.25 564.66,128.50 568.15,130.75 571.71,133.00 575.28,135.25 578.81,137.50 582.24,139.75 585.51,142.00 588.55,144.25 591.32,146.50 593.76,148.75 595.82,151.00 597.46,153.25 598.65,155.50 599.36,157.75 599.57,160.00 599.28,162.25 598.50,164.50 597.23,166.75 595.50,169.00 593.34,171.25 590.78,173.50 587.88,175.75 584.67,178.00 581.22,180.25 577.58,182.50 573.80,184.75 569.94,187.00 566.05,189.25 562.19,191.50 558.40,193.75 554.73,196.00 551.20,198.25 547.85,200.50 544.71,202.75 541.79,205.00 539.11,207.25 536.67,209.50 534.47,211.75 532.51,214.00 530.78,216.25 529.28,218.50 527.99,220.75 526.89,223.00 525.96,225.25 525.19,227.50 524.56,229.75 524.04,232.00 523.63,234.25 523.29,236.50 523.02,238.75 522.80,241.00 522.62,243.25 522.45,245.50 522.30,247.75 522.15,250.00 522.00,252.25 521.83,254.50 521.66,256.75 521.47,259.00 521.26,261.25 521.04,263.50 520.80,265.75 520.55,268.00 520.29,270.25 520.03,272.50 519.76,274.75 519.50,277.00 519.24,279.25 518.99,281.50 518.75,283.75 518.53,286.00 518.33,288.25 518.16,290.50 518.00,292.75 517.87,295.00 517.77,297.25 517.69,299.50 517.63,301.75 517.60,304.00 517.60,306.25 517.61,308.50 517.64,310.75 517.68,313.00 517.74,315.25 517.81,317.50 517.88,319.75 517.95,322.00 518.03,324.25 518.10,326.50 518.16,328.75 518.21,331.00 518.25,333.25 518.28,335.50 518.30,337.75 518.29,340.00 518.27,342.25 518.23,344.50 518.18,346.75 518.11,349.00 518.02,351.25 517.92,353.50 517.80,355.75 517.67,358.00 517.54,360.25 517.39,362.50 517.24,364.75 517.09,367.00 516.94,369.25 516.78,371.50 516.63,373.75 516.49,376.00 516.34,378.25 516.21,380.50 516.08,382.75 515.96,385.00 515.84,387.25 515.74,389.50 515.65,391.75 515.56,394.00 515.48,396.25 515.41,398.50 515.35,400.75 515.30,403.00 515.25,405.25 515.21,407.50 515.17,409.75 515.14,412.00 515.12,414.25 515.10,416.50 515.08,418.75 515.06,421.00 515.05,423.25 515.04,425.50 515.03,427.75 515.02,430.00" fill="#f28e2b" fill-opacity="0.9" stroke="#4b5563" stroke-width="1.2" />
<rect x="501.00" y="70.00" width="12.00" height="90.00" fill="white" stroke="#4b5563" stroke-width="1.2" />
<line x1="501.00" y1="160.00" x2="513.00" y2="160.00" stroke="#111827" stroke-width="1.6" />
<line x1="505.00" y1="70.00" x2="505.00" y2="70.00" stroke="#4b5563" stroke-width="1.1" />
<line x1="505.00" y1="160.00" x2="505.00" y2="250.00" stroke="#4b5563" stroke-width="1.1" />
<line x1="501.00" y1="70.00" x2="509.00" y2="70.00" stroke="#4b5563" stroke-width="1.1" />
<line x1="501.00" y1="250.00" x2="509.00" y2="250.00" stroke="#4b5563" stroke-width="1.1" />
<rect x="517.00" y="160.00" width="12.00" height="0.00" fill="white" stroke="#4b5563" stroke-width="1.2" />
<line x1="517.00" y1="160.00" x2="529.00" y2="160.00" stroke="#111827" stroke-width="1.6" />
<line x1="525.00" y1="70.00" x2="525.00" y2="160.00" stroke="#4b5563" stroke-width="1.1" />
<line x1="525.00" y1="160.00" x2="525.00" y2="340.00" stroke="#4b5563" stroke-width="1.1" />
<line x1="521.00" y1="70.00" x2="529.00" y2="70.00" stroke="#4b5563" stroke-width="1.1" />
<line x1="521.00" y1="340.00" x2="529.00" y2="340.00" stroke="#4b5563" stroke-width="1.1" />
<text x="433.40" y="498" text-anchor="middle" font-family="Arial, sans-serif" font-size="12.5" fill="#111827">Phase 1</text>
<text x="596.60" y="498" text-anchor="middle" font-family="Arial, sans-serif" font-size="12.5" fill="#111827">Phase 2</text>
<text x="433.40" y="516" text-anchor="middle" font-family="Arial, sans-serif" font-size="11.5" fill="#374151">n=32, M=4.25, SD=0.67</text>
<text x="596.60" y="516" text-anchor="middle" font-family="Arial, sans-serif" font-size="11.5" fill="#374151">n=37, M=4.11, SD=0.61</text>
<text x="490.00" y="30" text-anchor="middle" font-family="Arial, sans-serif" font-size="22" fill="#111827">P20: article quality</text>
</svg>