<svg xmlns="http://www.w3.org/2000/svg" width="980" height="560" viewBox="0 0 980 560">
<rect width="100%" height="100%" fill="#fbfaf7" />
<text x="40" y="35" font-family="Verdana, sans-serif" font-size="22" font-weight="700" fill="#1f2937">Article quality distribution: phase comparison</text>
<line x1="80" y1="470.00" x2="940" y2="470.00" stroke="#d1d5db" stroke-width="1" />
<text x="68" y="475.00" text-anchor="end" font-family="Verdana, sans-serif" font-size="12" fill="#4b5563">0</text>
<line x1="80" y1="461.33" x2="940" y2="461.33" stroke="#d1d5db" stroke-width="1" />
<text x="68" y="466.33" text-anchor="end" font-family="Verdana, sans-serif" font-size="12" fill="#4b5563">1</text>
<line x1="80" y1="452.67" x2="940" y2="452.67" stroke="#d1d5db" stroke-width="1" />
<text x="68" y="457.67" text-anchor="end" font-family="Verdana, sans-serif" font-size="12" fill="#4b5563">2</text>
<line x1="80" y1="444.00" x2="940" y2="444.00" stroke="#d1d5db" stroke-width="1" />
<text x="68" y="449.00" text-anchor="end" font-family="Verdana, sans-serif" font-size="12" fill="#4b5563">3</text>
<line x1="80" y1="435.33" x2="940" y2="435.33" stroke="#d1d5db" stroke-width="1" />
<text x="68" y="440.33" text-anchor="end" font-family="Verdana, sans-serif" font-size="12" fill="#4b5563">4</text>
<line x1="80" y1="426.67" x2="940" y2="426.67" stroke="#d1d5db" stroke-width="1" />
<text x="68" y="431.67" text-anchor="end" font-family="Verdana, sans-serif" font-size="12" fill="#4b5563">5</text>
<line x1="80" y1="418.00" x2="940" y2="418.00" stroke="#d1d5db" stroke-width="1" />
<text x="68" y="423.00" text-anchor="end" font-family="Verdana, sans-serif" font-size="12" fill="#4b5563">6</text>
<line x1="80" y1="409.33" x2="940" y2="409.33" stroke="#d1d5db" stroke-width="1" />
<text x="68" y="414.33" text-anchor="end" font-family="Verdana, sans-serif" font-size="12" fill="#4b5563">7</text>
<line x1="80" y1="400.67" x2="940" y2="400.67" stroke="#d1d5db" stroke-width="1" />
<text x="68" y="405.67" text-anchor="end" font-family="Verdana, sans-serif" font-size="12" fill="#4b5563">8</text>
<line x1="80" y1="392.00" x2="940" y2="392.00" stroke="#d1d5db" stroke-width="1" />
<text x="68" y="397.00" text-anchor="end" font-family="Verdana, sans-serif" font-size="12" fill="#4b5563">9</text>
<line x1="80" y1="383.33" x2="940" y2="383.33" stroke="#d1d5db" stroke-width="1" />
<text x="68" y="388.33" text-anchor="end" font-family="Verdana, sans-serif" font-size="12" fill="#4b5563">10</text>
<line x1="80" y1="374.67" x2="940" y2="374.67" stroke="#d1d5db" stroke-width="1" />
<text x="68" y="379.67" text-anchor="end" font-family="Verdana, sans-serif" font-size="12" fill="#4b5563">11</text>
<line x1="80" y1="366.00" x2="940" y2="366.00" stroke="#d1d5db" stroke-width="1" />
<text x="68" y="371.00" text-anchor="end" font-family="Verdana, sans-serif" font-size="12" fill="#4b5563">12</text>
<line x1="80" y1="357.33" x2="940" y2="357.33" stroke="#d1d5db" stroke-width="1" />
<text x="68" y="362.33" text-anchor="end" font-family="Verdana, sans-serif" font-size="12" fill="#4b5563">13</text>
<line x1="80" y1="348.67" x2="940" y2="348.67" stroke="#d1d5db" stroke-width="1" />
<text x="68" y="353.67" text-anchor="end" font-family="Verdana, sans-serif" font-size="12" fill="#4b5563">14</text>
<line x1="80" y1="340.00" x2="940" y2="340.00" stroke="#d1d5db" stroke-width="1" />
<text x="68" y="345.00" text-anchor="end" font-family="Verdana, sans-serif" font-size="12" fill="#4b5563">15</text>
<line x1="80" y1="331.33" x2="940" y2="331.33" stroke="#d1d5db" stroke-width="1" />
<text x="68" y="336.33" text-anchor="end" font-family="Verdana, sans-serif" font-size="12" fill="#4b5563">16</text>
<line x1="80" y1="322.67" x2="940" y2="322.67" stroke="#d1d5db" stroke-width="1" />
<text x="68" y="327.67" text-anchor="end" font-family="Verdana, sans-serif" font-size="12" fill="#4b5563">17</text>
<line x1="80" y1="314.00" x2="940" y2="314.00" stroke="#d1d5db" stroke-width="1" />
<text x="68" y="319.00" text-anchor="end" font-family="Verdana, sans-serif" font-size="12" fill="#4b5563">18</text>
<line x1="80" y1="305.33" x2="940" y2="305.33" stroke="#d1d5db" stroke-width="1" />
<text x="68" y="310.33" text-anchor="end" font-family="Verdana, sans-serif" font-size="12" fill="#4b5563">19</text>
<line x1="80" y1="296.67" x2="940" y2="296.67" stroke="#d1d5db" stroke-width="1" />
<text x="68" y="301.67" text-anchor="end" font-family="Verdana, sans-serif" font-size="12" fill="#4b5563">20</text>
<line x1="80" y1="288.00" x2="940" y2="288.00" stroke="#d1d5db" stroke-width="1" />
<text x="68" y="293.00" text-anchor="end" font-family="Verdana, sans-serif" font-size="12" fill="#4b5563">21</text>
<line x1="80" y1="279.33" x2="940" y2="279.33" stroke="#d1d5db" stroke-width="1" />
<text x="68" y="284.33" text-anchor="end" font-family="Verdana, sans-serif" font-size="12" fill="#4b5563">22</text>
<line x1="80" y1="270.67" x2="940" y2="270.67" stroke="#d1d5db" stroke-width="1" />
<text x="68" y="275.67" text-anchor="end" font-family="Verdana, sans-serif" font-size="12" fill="#4b5563">23</text>
<line x1="80" y1="262.00" x2="940" y2="262.00" stroke="#d1d5db" stroke-width="1" />
<text x="68" y="267.00" text-anchor="end" font-family="Verdana, sans-serif" font-size="12" fill="#4b5563">24</text>
<line x1="80" y1="253.33" x2="940" y2="253.33" stroke="#d1d5db" stroke-width="1" />
<text x="68" y="258.33" text-anchor="end" font-family="Verdana, sans-serif" font-size="12" fill="#4b5563">25</text>
<line x1="80" y1="244.67" x2="940" y2="244.67" stroke="#d1d5db" stroke-width="1" />
<text x="68" y="249.67" text-anchor="end" font-family="Verdana, sans-serif" font-size="12" fill="#4b5563">26</text>
<line x1="80" y1="236.00" x2="940" y2="236.00" stroke="#d1d5db" stroke-width="1" />
<text x="68" y="241.00" text-anchor="end" font-family="Verdana, sans-serif" font-size="12" fill="#4b5563">27</text>
<line x1="80" y1="227.33" x2="940" y2="227.33" stroke="#d1d5db" stroke-width="1" />
<text x="68" y="232.33" text-anchor="end" font-family="Verdana, sans-serif" font-size="12" fill="#4b5563">28</text>
<line x1="80" y1="218.67" x2="940" y2="218.67" stroke="#d1d5db" stroke-width="1" />
<text x="68" y="223.67" text-anchor="end" font-family="Verdana, sans-serif" font-size="12" fill="#4b5563">29</text>
<line x1="80" y1="210.00" x2="940" y2="210.00" stroke="#d1d5db" stroke-width="1" />
<text x="68" y="215.00" text-anchor="end" font-family="Verdana, sans-serif" font-size="12" fill="#4b5563">30</text>
<line x1="80" y1="201.33" x2="940" y2="201.33" stroke="#d1d5db" stroke-width="1" />
<text x="68" y="206.33" text-anchor="end" font-family="Verdana, sans-serif" font-size="12" fill="#4b5563">31</text>
<line x1="80" y1="192.67" x2="940" y2="192.67" stroke="#d1d5db" stroke-width="1" />
<text x="68" y="197.67" text-anchor="end" font-family="Verdana, sans-serif" font-size="12" fill="#4b5563">32</text>
<line x1="80" y1="184.00" x2="940" y2="184.00" stroke="#d1d5db" stroke-width="1" />
<text x="68" y="189.00" text-anchor="end" font-family="Verdana, sans-serif" font-size="12" fill="#4b5563">33</text>
<line x1="80" y1="175.33" x2="940" y2="175.33" stroke="#d1d5db" stroke-width="1" />
<text x="68" y="180.33" text-anchor="end" font-family="Verdana, sans-serif" font-size="12" fill="#4b5563">34</text>
<line x1="80" y1="166.67" x2="940" y2="166.67" stroke="#d1d5db" stroke-width="1" />
<text x="68" y="171.67" text-anchor="end" font-family="Verdana, sans-serif" font-size="12" fill="#4b5563">35</text>
<line x1="80" y1="158.00" x2="940" y2="158.00" stroke="#d1d5db" stroke-width="1" />
<text x="68" y="163.00" text-anchor="end" font-family="Verdana, sans-serif" font-size="12" fill="#4b5563">36</text>
<line x1="80" y1="149.33" x2="940" y2="149.33" stroke="#d1d5db" stroke-width="1" />
<text x="68" y="154.33" text-anchor="end" font-family="Verdana, sans-serif" font-size="12" fill="#4b5563">37</text>
<line x1="80" y1="140.67" x2="940" y2="140.67" stroke="#d1d5db" stroke-width="1" />
<text x="68" y="145.67" text-anchor="end" font-family="Verdana, sans-serif" font-size="12" fill="#4b5563">38</text>
<line x1="80" y1="132.00" x2="940" y2="132.00" stroke="#d1d5db" stroke-width="1" />
<text x="68" y="137.00" text-anchor="end" font-family="Verdana, sans-serif" font-size="12" fill="#4b5563">39</text>
<line x1="80" y1="123.33" x2="940" y2="123.33" stroke="#d1d5db" stroke-width="1" />
<text x="68" y="128.33" text-anchor="end" font-family="Verdana, sans-serif" font-size="12" fill="#4b5563">40</text>
<line x1="80" y1="114.67" x2="940" y2="114.67" stroke="#d1d5db" stroke-width="1" />
<text x="68" y="119.67" text-anchor="end" font-family="Verdana, sans-serif" font-size="12" fill="#4b5563">41</text>
<line x1="80" y1="106.00" x2="940" y2="106.00" stroke="#d1d5db" stroke-width="1" />
<text x="68" y="111.00" text-anchor="end" font-family="Verdana, sans-serif" font-size="12" fill="#4b5563">42</text>
<line x1="80" y1="97.33" x2="940" y2="97.33" stroke="#d1d5db" stroke-width="1" />
<text x="68" y="102.33" text-anchor="end" font-family="Verdana, sans-serif" font-size="12" fill="#4b5563">43</text>
<line x1="80" y1="88.67" x2="940" y2="88.67" stroke="#d1d5db" stroke-width="1" />
<text x="68" y="93.67" text-anchor="end" font-family="Verdana, sans-serif" font-size="12" fill="#4b5563">44</text>
<line x1="80" y1="80.00" x2="940" y2="80.00" stroke="#d1d5db" stroke-width="1" />
<text x="68" y="85.00" text-anchor="end" font-family="Verdana, sans-serif" font-size="12" fill="#4b5563">45</text>
<line x1="80" y1="80" x2="80" y2="470" stroke="#111827" stroke-width="2" />
<line x1="80" y1="470" x2="940" y2="470" stroke="#111827" stroke-width="2" />
<text x="22" y="275.00" transform="rotate(-90 22 275.00)" font-family="Verdana, sans-serif" font-size="13" fill="#374151">Count</text>
<text x="166.00" y="515" text-anchor="middle" font-family="Verdana, sans-serif" font-size="12" fill="#374151">1</text>
<rect x="105.80" y="418.00" width="50.57" height="52.00" rx="4" fill="#b45309" />
<text x="131.08" y="410.00" text-anchor="middle" font-family="Verdana, sans-serif" font-size="11" fill="#111827">6.00</text>
<rect x="166.00" y="452.67" width="50.57" height="17.33" rx="4" fill="#0f766e" />
<text x="191.28" y="444.67" text-anchor="middle" font-family="Verdana, sans-serif" font-size="11" fill="#111827">2.00</text>
<text x="338.00" y="515" text-anchor="middle" font-family="Verdana, sans-serif" font-size="12" fill="#374151">2</text>
<rect x="277.80" y="418.00" width="50.57" height="52.00" rx="4" fill="#b45309" />
<text x="303.08" y="410.00" text-anchor="middle" font-family="Verdana, sans-serif" font-size="11" fill="#111827">6.00</text>
<rect x="338.00" y="409.33" width="50.57" height="60.67" rx="4" fill="#0f766e" />
<text x="363.28" y="401.33" text-anchor="middle" font-family="Verdana, sans-serif" font-size="11" fill="#111827">7.00</text>
<text x="510.00" y="515" text-anchor="middle" font-family="Verdana, sans-serif" font-size="12" fill="#374151">3</text>
<rect x="449.80" y="158.00" width="50.57" height="312.00" rx="4" fill="#b45309" />
<text x="475.08" y="150.00" text-anchor="middle" font-family="Verdana, sans-serif" font-size="11" fill="#111827">36.00</text>
<rect x="510.00" y="80.00" width="50.57" height="390.00" rx="4" fill="#0f766e" />
<text x="535.28" y="76.00" text-anchor="middle" font-family="Verdana, sans-serif" font-size="11" fill="#111827">45.00</text>
<text x="682.00" y="515" text-anchor="middle" font-family="Verdana, sans-serif" font-size="12" fill="#374151">4</text>
<rect x="621.80" y="296.67" width="50.57" height="173.33" rx="4" fill="#b45309" />
<text x="647.08" y="288.67" text-anchor="middle" font-family="Verdana, sans-serif" font-size="11" fill="#111827">20.00</text>
<rect x="682.00" y="132.00" width="50.57" height="338.00" rx="4" fill="#0f766e" />
<text x="707.28" y="124.00" text-anchor="middle" font-family="Verdana, sans-serif" font-size="11" fill="#111827">39.00</text>
<text x="854.00" y="515" text-anchor="middle" font-family="Verdana, sans-serif" font-size="12" fill="#374151">5</text>
<rect x="793.80" y="348.67" width="50.57" height="121.33" rx="4" fill="#b45309" />
<text x="819.08" y="340.67" text-anchor="middle" font-family="Verdana, sans-serif" font-size="11" fill="#111827">14.00</text>
<rect x="854.00" y="374.67" width="50.57" height="95.33" rx="4" fill="#0f766e" />
<text x="879.28" y="366.67" text-anchor="middle" font-family="Verdana, sans-serif" font-size="11" fill="#111827">11.00</text>
<rect x="760" y="20" width="16" height="16" rx="3" fill="#b45309" />
<text x="784" y="33" font-family="Verdana, sans-serif" font-size="12" fill="#374151">Phase 1</text>
<rect x="760" y="44" width="16" height="16" rx="3" fill="#0f766e" />
<text x="784" y="57" font-family="Verdana, sans-serif" font-size="12" fill="#374151">Phase 2</text>
</svg>