<svg xmlns="http://www.w3.org/2000/svg" width="980" height="560" viewBox="0 0 980 560">
<rect width="100%" height="100%" fill="#fbfaf7" />
<text x="40" y="35" font-family="Verdana, sans-serif" font-size="22" font-weight="700" fill="#1f2937">P04: mean quality by complexity</text>
<line x1="80" y1="470.00" x2="940" y2="470.00" stroke="#d1d5db" stroke-width="1" />
<text x="68" y="475.00" text-anchor="end" font-family="Verdana, sans-serif" font-size="12" fill="#4b5563">0</text>
<line x1="80" y1="392.00" x2="940" y2="392.00" stroke="#d1d5db" stroke-width="1" />
<text x="68" y="397.00" text-anchor="end" font-family="Verdana, sans-serif" font-size="12" fill="#4b5563">1</text>
<line x1="80" y1="314.00" x2="940" y2="314.00" stroke="#d1d5db" stroke-width="1" />
<text x="68" y="319.00" text-anchor="end" font-family="Verdana, sans-serif" font-size="12" fill="#4b5563">2</text>
<line x1="80" y1="236.00" x2="940" y2="236.00" stroke="#d1d5db" stroke-width="1" />
<text x="68" y="241.00" text-anchor="end" font-family="Verdana, sans-serif" font-size="12" fill="#4b5563">3</text>
<line x1="80" y1="158.00" x2="940" y2="158.00" stroke="#d1d5db" stroke-width="1" />
<text x="68" y="163.00" text-anchor="end" font-family="Verdana, sans-serif" font-size="12" fill="#4b5563">4</text>
<line x1="80" y1="80.00" x2="940" y2="80.00" stroke="#d1d5db" stroke-width="1" />
<text x="68" y="85.00" text-anchor="end" font-family="Verdana, sans-serif" font-size="12" fill="#4b5563">5</text>
<line x1="80" y1="80" x2="80" y2="470" stroke="#111827" stroke-width="2" />
<line x1="80" y1="470" x2="940" y2="470" stroke="#111827" stroke-width="2" />
<text x="22" y="275.00" transform="rotate(-90 22 275.00)" font-family="Verdana, sans-serif" font-size="13" fill="#374151">Mean quality (1-5)</text>
<text x="166.00" y="515" text-anchor="middle" font-family="Verdana, sans-serif" font-size="12" fill="#374151">1</text>
<text x="338.00" y="515" text-anchor="middle" font-family="Verdana, sans-serif" font-size="12" fill="#374151">2</text>
<rect x="277.80" y="255.50" width="50.57" height="214.50" rx="4" fill="#b45309" />
<text x="303.08" y="247.50" text-anchor="middle" font-family="Verdana, sans-serif" font-size="11" fill="#111827">2.75</text>
<rect x="338.00" y="314.00" width="50.57" height="156.00" rx="4" fill="#0f766e" />
<text x="363.28" y="306.00" text-anchor="middle" font-family="Verdana, sans-serif" font-size="11" fill="#111827">2.00</text>
<text x="510.00" y="515" text-anchor="middle" font-family="Verdana, sans-serif" font-size="12" fill="#374151">3</text>
<rect x="449.80" y="210.26" width="50.57" height="259.74" rx="4" fill="#b45309" />
<text x="475.08" y="202.26" text-anchor="middle" font-family="Verdana, sans-serif" font-size="11" fill="#111827">3.33</text>
<rect x="510.00" y="236.00" width="50.57" height="234.00" rx="4" fill="#0f766e" />
<text x="535.28" y="228.00" text-anchor="middle" font-family="Verdana, sans-serif" font-size="11" fill="#111827">3.00</text>
<text x="682.00" y="515" text-anchor="middle" font-family="Verdana, sans-serif" font-size="12" fill="#374151">4</text>
<rect x="621.80" y="197.00" width="50.57" height="273.00" rx="4" fill="#b45309" />
<text x="647.08" y="189.00" text-anchor="middle" font-family="Verdana, sans-serif" font-size="11" fill="#111827">3.50</text>
<rect x="682.00" y="105.74" width="50.57" height="364.26" rx="4" fill="#0f766e" />
<text x="707.28" y="97.74" text-anchor="middle" font-family="Verdana, sans-serif" font-size="11" fill="#111827">4.67</text>
<text x="854.00" y="515" text-anchor="middle" font-family="Verdana, sans-serif" font-size="12" fill="#374151">5</text>
<rect x="854.00" y="80.00" width="50.57" height="390.00" rx="4" fill="#0f766e" />
<text x="879.28" y="76.00" text-anchor="middle" font-family="Verdana, sans-serif" font-size="11" fill="#111827">5.00</text>
<rect x="760" y="20" width="16" height="16" rx="3" fill="#b45309" />
<text x="784" y="33" font-family="Verdana, sans-serif" font-size="12" fill="#374151">Phase 1</text>
<rect x="760" y="44" width="16" height="16" rx="3" fill="#0f766e" />
<text x="784" y="57" font-family="Verdana, sans-serif" font-size="12" fill="#374151">Phase 2</text>
</svg>