<svg xmlns="http://www.w3.org/2000/svg" width="980" height="560" viewBox="0 0 980 560">
<rect width="100%" height="100%" fill="#fbfaf7" />
<text x="40" y="35" font-family="Verdana, sans-serif" font-size="22" font-weight="700" fill="#1f2937">P04: phase 2 tool satisfaction</text>
<line x1="80" y1="470.00" x2="940" y2="470.00" stroke="#d1d5db" stroke-width="1" />
<text x="68" y="475.00" text-anchor="end" font-family="Verdana, sans-serif" font-size="12" fill="#4b5563">1</text>
<line x1="80" y1="372.50" x2="940" y2="372.50" stroke="#d1d5db" stroke-width="1" />
<text x="68" y="377.50" text-anchor="end" font-family="Verdana, sans-serif" font-size="12" fill="#4b5563">2</text>
<line x1="80" y1="275.00" x2="940" y2="275.00" stroke="#d1d5db" stroke-width="1" />
<text x="68" y="280.00" text-anchor="end" font-family="Verdana, sans-serif" font-size="12" fill="#4b5563">3</text>
<line x1="80" y1="177.50" x2="940" y2="177.50" stroke="#d1d5db" stroke-width="1" />
<text x="68" y="182.50" text-anchor="end" font-family="Verdana, sans-serif" font-size="12" fill="#4b5563">4</text>
<line x1="80" y1="80.00" x2="940" y2="80.00" stroke="#d1d5db" stroke-width="1" />
<text x="68" y="85.00" text-anchor="end" font-family="Verdana, sans-serif" font-size="12" fill="#4b5563">5</text>
<line x1="80" y1="80" x2="80" y2="470" stroke="#111827" stroke-width="2" />
<line x1="80" y1="470" x2="940" y2="470" stroke="#111827" stroke-width="2" />
<text x="22" y="275.00" transform="rotate(-90 22 275.00)" font-family="Verdana, sans-serif" font-size="13" fill="#374151">Satisfaction (1-5)</text>
<text x="510.00" y="515" text-anchor="middle" font-family="Verdana, sans-serif" font-size="12" fill="#374151">Phase 2</text>
<polygon points="509.65,470.00 509.56,467.56 509.44,465.12 509.29,462.69 509.12,460.25 508.91,457.81 508.65,455.38 508.34,452.94 507.98,450.50 507.55,448.06 507.05,445.62 506.47,443.19 505.80,440.75 505.03,438.31 504.15,435.88 503.17,433.44 502.07,431.00 500.85,428.56 499.50,426.12 498.03,423.69 496.43,421.25 494.71,418.81 492.89,416.38 490.96,413.94 488.94,411.50 486.85,409.06 484.71,406.62 482.54,404.19 480.36,401.75 478.20,399.31 476.10,396.88 474.07,394.44 472.16,392.00 470.39,389.56 468.79,387.12 467.38,384.69 466.19,382.25 465.25,379.81 464.56,377.38 464.14,374.94 464.00,372.50 464.14,370.06 464.56,367.62 465.25,365.19 466.19,362.75 467.38,360.31 468.79,357.88 470.39,355.44 472.16,353.00 474.07,350.56 476.10,348.12 478.20,345.69 480.36,343.25 482.54,340.81 484.71,338.38 486.85,335.94 488.94,333.50 490.96,331.06 492.89,328.62 494.71,326.19 496.43,323.75 498.03,321.31 499.50,318.88 500.85,316.44 502.07,314.00 503.17,311.56 504.15,309.12 505.03,306.69 505.80,304.25 506.47,301.81 507.05,299.38 507.55,296.94 507.98,294.50 508.34,292.06 508.65,289.62 508.91,287.19 509.12,284.75 509.29,282.31 509.44,279.88 509.56,277.44 509.65,275.00 509.73,272.56 509.79,270.12 509.84,267.69 509.88,265.25 509.90,262.81 509.93,260.38 509.95,257.94 509.96,255.50 509.97,253.06 509.98,250.62 509.98,248.19 509.99,245.75 509.99,243.31 509.99,240.88 510.00,238.44 510.00,236.00 510.00,233.56 510.00,231.12 510.00,228.69 510.00,226.25 510.00,223.81 510.00,221.38 510.00,218.94 510.00,216.50 510.00,214.06 510.00,211.62 510.00,209.19 510.00,206.75 510.00,204.31 510.00,201.88 510.00,199.44 510.00,197.00 510.00,194.56 510.00,192.12 510.00,189.69 510.00,187.25 510.00,184.81 510.00,182.38 510.00,179.94 510.00,177.50 510.00,175.06 510.00,172.62 510.00,170.19 510.00,167.75 510.00,165.31 510.00,162.87 510.00,160.44 510.00,158.00 510.00,155.56 510.00,153.12 510.00,150.69 510.00,148.25 510.00,145.81 510.00,143.38 510.00,140.94 510.00,138.50 510.00,136.06 510.00,133.62 510.00,131.19 510.00,128.75 510.00,126.31 510.00,123.88 510.00,121.44 510.00,119.00 510.00,116.56 510.00,114.12 510.00,111.69 510.00,109.25 510.00,106.81 510.00,104.38 510.00,101.94 510.00,99.50 510.00,97.06 510.00,94.63 510.00,92.19 510.00,89.75 510.00,87.31 510.00,84.88 510.00,82.44 510.00,80.00 510.00,80.00 510.00,82.44 510.00,84.88 510.00,87.31 510.00,89.75 510.00,92.19 510.00,94.63 510.00,97.06 510.00,99.50 510.00,101.94 510.00,104.38 510.00,106.81 510.00,109.25 510.00,111.69 510.00,114.12 510.00,116.56 510.00,119.00 510.00,121.44 510.00,123.88 510.00,126.31 510.00,128.75 510.00,131.19 510.00,133.62 510.00,136.06 510.00,138.50 510.00,140.94 510.00,143.38 510.00,145.81 510.00,148.25 510.00,150.69 510.00,153.12 510.00,155.56 510.00,158.00 510.00,160.44 510.00,162.87 510.00,165.31 510.00,167.75 510.00,170.19 510.00,172.62 510.00,175.06 510.00,177.50 510.00,179.94 510.00,182.38 510.00,184.81 510.00,187.25 510.00,189.69 510.00,192.12 510.00,194.56 510.00,197.00 510.00,199.44 510.00,201.88 510.00,204.31 510.00,206.75 510.00,209.19 510.00,211.62 510.00,214.06 510.00,216.50 510.00,218.94 510.00,221.38 510.00,223.81 510.00,226.25 510.00,228.69 510.00,231.12 510.00,233.56 510.00,236.00 510.00,238.44 510.01,240.88 510.01,243.31 510.01,245.75 510.02,248.19 510.02,250.62 510.03,253.06 510.04,255.50 510.05,257.94 510.07,260.38 510.10,262.81 510.12,265.25 510.16,267.69 510.21,270.12 510.27,272.56 510.35,275.00 510.44,277.44 510.56,279.88 510.71,282.31 510.88,284.75 511.09,287.19 511.35,289.62 511.66,292.06 512.02,294.50 512.45,296.94 512.95,299.38 513.53,301.81 514.20,304.25 514.97,306.69 515.85,309.12 516.83,311.56 517.93,314.00 519.15,316.44 520.50,318.88 521.97,321.31 523.57,323.75 525.29,326.19 527.11,328.62 529.04,331.06 531.06,333.50 533.15,335.94 535.29,338.38 537.46,340.81 539.64,343.25 541.80,345.69 543.90,348.12 545.93,350.56 547.84,353.00 549.61,355.44 551.21,357.88 552.62,360.31 553.81,362.75 554.75,365.19 555.44,367.62 555.86,370.06 556.00,372.50 555.86,374.94 555.44,377.38 554.75,379.81 553.81,382.25 552.62,384.69 551.21,387.12 549.61,389.56 547.84,392.00 545.93,394.44 543.90,396.88 541.80,399.31 539.64,401.75 537.46,404.19 535.29,406.62 533.15,409.06 531.06,411.50 529.04,413.94 527.11,416.38 525.29,418.81 523.57,421.25 521.97,423.69 520.50,426.12 519.15,428.56 517.93,431.00 516.83,433.44 515.85,435.88 514.97,438.31 514.20,440.75 513.53,443.19 512.95,445.62 512.45,448.06 512.02,450.50 511.66,452.94 511.35,455.38 511.09,457.81 510.88,460.25 510.71,462.69 510.56,465.12 510.44,467.56 510.35,470.00" fill="#1d4ed8" fill-opacity="0.35" stroke="#1d4ed8" stroke-width="2" />
<circle cx="510.00" cy="372.50" r="3.2" fill="#1d4ed8" fill-opacity="0.75" />
<line x1="498.00" y1="372.50" x2="522.00" y2="372.50" stroke="#111827" stroke-width="2.5" />
<line x1="510.00" y1="372.50" x2="510.00" y2="372.50" stroke="#111827" stroke-width="1.5" stroke-dasharray="4 3" />
<text x="510.00" y="362.50" text-anchor="middle" font-family="Verdana, sans-serif" font-size="11" fill="#111827">M 2.00</text>
<rect x="760" y="20" width="16" height="16" rx="3" fill="#1d4ed8" fill-opacity="0.55" stroke="#1d4ed8" />
<text x="784" y="33" font-family="Verdana, sans-serif" font-size="12" fill="#374151">Phase 2</text>
</svg>