<svg xmlns="http://www.w3.org/2000/svg" width="980" height="560" viewBox="0 0 980 560">
<rect width="100%" height="100%" fill="#fbfaf7" />
<text x="40" y="35" font-family="Verdana, sans-serif" font-size="22" font-weight="700" fill="#1f2937">P17: phase 2 tool satisfaction distribution</text>
<line x1="80" y1="470.00" x2="940" y2="470.00" stroke="#d1d5db" stroke-width="1" />
<text x="68" y="475.00" text-anchor="end" font-family="Verdana, sans-serif" font-size="12" fill="#4b5563">0</text>
<line x1="80" y1="449.47" x2="940" y2="449.47" stroke="#d1d5db" stroke-width="1" />
<text x="68" y="454.47" text-anchor="end" font-family="Verdana, sans-serif" font-size="12" fill="#4b5563">1</text>
<line x1="80" y1="428.95" x2="940" y2="428.95" stroke="#d1d5db" stroke-width="1" />
<text x="68" y="433.95" text-anchor="end" font-family="Verdana, sans-serif" font-size="12" fill="#4b5563">2</text>
<line x1="80" y1="408.42" x2="940" y2="408.42" stroke="#d1d5db" stroke-width="1" />
<text x="68" y="413.42" text-anchor="end" font-family="Verdana, sans-serif" font-size="12" fill="#4b5563">3</text>
<line x1="80" y1="387.89" x2="940" y2="387.89" stroke="#d1d5db" stroke-width="1" />
<text x="68" y="392.89" text-anchor="end" font-family="Verdana, sans-serif" font-size="12" fill="#4b5563">4</text>
<line x1="80" y1="367.37" x2="940" y2="367.37" stroke="#d1d5db" stroke-width="1" />
<text x="68" y="372.37" text-anchor="end" font-family="Verdana, sans-serif" font-size="12" fill="#4b5563">5</text>
<line x1="80" y1="346.84" x2="940" y2="346.84" stroke="#d1d5db" stroke-width="1" />
<text x="68" y="351.84" text-anchor="end" font-family="Verdana, sans-serif" font-size="12" fill="#4b5563">6</text>
<line x1="80" y1="326.32" x2="940" y2="326.32" stroke="#d1d5db" stroke-width="1" />
<text x="68" y="331.32" text-anchor="end" font-family="Verdana, sans-serif" font-size="12" fill="#4b5563">7</text>
<line x1="80" y1="305.79" x2="940" y2="305.79" stroke="#d1d5db" stroke-width="1" />
<text x="68" y="310.79" text-anchor="end" font-family="Verdana, sans-serif" font-size="12" fill="#4b5563">8</text>
<line x1="80" y1="285.26" x2="940" y2="285.26" stroke="#d1d5db" stroke-width="1" />
<text x="68" y="290.26" text-anchor="end" font-family="Verdana, sans-serif" font-size="12" fill="#4b5563">9</text>
<line x1="80" y1="264.74" x2="940" y2="264.74" stroke="#d1d5db" stroke-width="1" />
<text x="68" y="269.74" text-anchor="end" font-family="Verdana, sans-serif" font-size="12" fill="#4b5563">10</text>
<line x1="80" y1="244.21" x2="940" y2="244.21" stroke="#d1d5db" stroke-width="1" />
<text x="68" y="249.21" text-anchor="end" font-family="Verdana, sans-serif" font-size="12" fill="#4b5563">11</text>
<line x1="80" y1="223.68" x2="940" y2="223.68" stroke="#d1d5db" stroke-width="1" />
<text x="68" y="228.68" text-anchor="end" font-family="Verdana, sans-serif" font-size="12" fill="#4b5563">12</text>
<line x1="80" y1="203.16" x2="940" y2="203.16" stroke="#d1d5db" stroke-width="1" />
<text x="68" y="208.16" text-anchor="end" font-family="Verdana, sans-serif" font-size="12" fill="#4b5563">13</text>
<line x1="80" y1="182.63" x2="940" y2="182.63" stroke="#d1d5db" stroke-width="1" />
<text x="68" y="187.63" text-anchor="end" font-family="Verdana, sans-serif" font-size="12" fill="#4b5563">14</text>
<line x1="80" y1="162.11" x2="940" y2="162.11" stroke="#d1d5db" stroke-width="1" />
<text x="68" y="167.11" text-anchor="end" font-family="Verdana, sans-serif" font-size="12" fill="#4b5563">15</text>
<line x1="80" y1="141.58" x2="940" y2="141.58" stroke="#d1d5db" stroke-width="1" />
<text x="68" y="146.58" text-anchor="end" font-family="Verdana, sans-serif" font-size="12" fill="#4b5563">16</text>
<line x1="80" y1="121.05" x2="940" y2="121.05" stroke="#d1d5db" stroke-width="1" />
<text x="68" y="126.05" text-anchor="end" font-family="Verdana, sans-serif" font-size="12" fill="#4b5563">17</text>
<line x1="80" y1="100.53" x2="940" y2="100.53" stroke="#d1d5db" stroke-width="1" />
<text x="68" y="105.53" text-anchor="end" font-family="Verdana, sans-serif" font-size="12" fill="#4b5563">18</text>
<line x1="80" y1="80.00" x2="940" y2="80.00" stroke="#d1d5db" stroke-width="1" />
<text x="68" y="85.00" text-anchor="end" font-family="Verdana, sans-serif" font-size="12" fill="#4b5563">19</text>
<line x1="80" y1="80" x2="80" y2="470" stroke="#111827" stroke-width="2" />
<line x1="80" y1="470" x2="940" y2="470" stroke="#111827" stroke-width="2" />
<text x="22" y="275.00" transform="rotate(-90 22 275.00)" font-family="Verdana, sans-serif" font-size="13" fill="#374151">Count</text>
<text x="166.00" y="515" text-anchor="middle" font-family="Verdana, sans-serif" font-size="12" fill="#374151">1</text>
<rect x="105.80" y="449.47" width="101.14" height="20.53" rx="4" fill="#1d4ed8" />
<text x="156.37" y="441.47" text-anchor="middle" font-family="Verdana, sans-serif" font-size="11" fill="#111827">1.00</text>
<text x="338.00" y="515" text-anchor="middle" font-family="Verdana, sans-serif" font-size="12" fill="#374151">2</text>
<rect x="277.80" y="470.00" width="101.14" height="0.00" rx="4" fill="#1d4ed8" />
<text x="328.37" y="462.00" text-anchor="middle" font-family="Verdana, sans-serif" font-size="11" fill="#111827">0.00</text>
<text x="510.00" y="515" text-anchor="middle" font-family="Verdana, sans-serif" font-size="12" fill="#374151">3</text>
<rect x="449.80" y="367.37" width="101.14" height="102.63" rx="4" fill="#1d4ed8" />
<text x="500.37" y="359.37" text-anchor="middle" font-family="Verdana, sans-serif" font-size="11" fill="#111827">5.00</text>
<text x="682.00" y="515" text-anchor="middle" font-family="Verdana, sans-serif" font-size="12" fill="#374151">4</text>
<rect x="621.80" y="121.05" width="101.14" height="348.95" rx="4" fill="#1d4ed8" />
<text x="672.37" y="113.05" text-anchor="middle" font-family="Verdana, sans-serif" font-size="11" fill="#111827">17.00</text>
<text x="854.00" y="515" text-anchor="middle" font-family="Verdana, sans-serif" font-size="12" fill="#374151">5</text>
<rect x="793.80" y="80.00" width="101.14" height="390.00" rx="4" fill="#1d4ed8" />
<text x="844.37" y="76.00" text-anchor="middle" font-family="Verdana, sans-serif" font-size="11" fill="#111827">19.00</text>
<rect x="760" y="20" width="16" height="16" rx="3" fill="#1d4ed8" />
<text x="784" y="33" font-family="Verdana, sans-serif" font-size="12" fill="#374151">Phase 2</text>
</svg>