<svg xmlns="http://www.w3.org/2000/svg" width="980" height="560" viewBox="0 0 980 560">
<rect width="100%" height="100%" fill="#fbfaf7" />
<text x="40" y="35" font-family="Verdana, sans-serif" font-size="22" font-weight="700" fill="#1f2937">P20: phase 2 tool satisfaction</text>
<line x1="80" y1="470.00" x2="940" y2="470.00" stroke="#d1d5db" stroke-width="1" />
<text x="68" y="475.00" text-anchor="end" font-family="Verdana, sans-serif" font-size="12" fill="#4b5563">1</text>
<line x1="80" y1="372.50" x2="940" y2="372.50" stroke="#d1d5db" stroke-width="1" />
<text x="68" y="377.50" text-anchor="end" font-family="Verdana, sans-serif" font-size="12" fill="#4b5563">2</text>
<line x1="80" y1="275.00" x2="940" y2="275.00" stroke="#d1d5db" stroke-width="1" />
<text x="68" y="280.00" text-anchor="end" font-family="Verdana, sans-serif" font-size="12" fill="#4b5563">3</text>
<line x1="80" y1="177.50" x2="940" y2="177.50" stroke="#d1d5db" stroke-width="1" />
<text x="68" y="182.50" text-anchor="end" font-family="Verdana, sans-serif" font-size="12" fill="#4b5563">4</text>
<line x1="80" y1="80.00" x2="940" y2="80.00" stroke="#d1d5db" stroke-width="1" />
<text x="68" y="85.00" text-anchor="end" font-family="Verdana, sans-serif" font-size="12" fill="#4b5563">5</text>
<line x1="80" y1="80" x2="80" y2="470" stroke="#111827" stroke-width="2" />
<line x1="80" y1="470" x2="940" y2="470" stroke="#111827" stroke-width="2" />
<text x="22" y="275.00" transform="rotate(-90 22 275.00)" font-family="Verdana, sans-serif" font-size="13" fill="#374151">Satisfaction (1-5)</text>
<text x="510.00" y="515" text-anchor="middle" font-family="Verdana, sans-serif" font-size="12" fill="#374151">Phase 2</text>
<polygon points="509.96,470.00 509.95,467.56 509.94,465.12 509.92,462.69 509.90,460.25 509.88,457.81 509.85,455.38 509.82,452.94 509.78,450.50 509.74,448.06 509.68,445.62 509.62,443.19 509.55,440.75 509.46,438.31 509.37,435.88 509.26,433.44 509.14,431.00 509.01,428.56 508.86,426.12 508.71,423.69 508.53,421.25 508.35,418.81 508.15,416.38 507.94,413.94 507.72,411.50 507.50,409.06 507.26,406.62 507.03,404.19 506.79,401.75 506.56,399.31 506.33,396.88 506.11,394.44 505.90,392.00 505.70,389.56 505.52,387.12 505.36,384.69 505.22,382.25 505.11,379.81 505.02,377.38 504.95,374.94 504.91,372.50 504.90,370.06 504.91,367.62 504.93,365.19 504.98,362.75 505.04,360.31 505.11,357.88 505.18,355.44 505.25,353.00 505.32,350.56 505.38,348.12 505.42,345.69 505.43,343.25 505.42,340.81 505.37,338.38 505.28,335.94 505.15,333.50 504.97,331.06 504.74,328.62 504.46,326.19 504.13,323.75 503.75,321.31 503.31,318.88 502.83,316.44 502.31,314.00 501.75,311.56 501.16,309.12 500.55,306.69 499.93,304.25 499.30,301.81 498.68,299.38 498.08,296.94 497.50,294.50 496.96,292.06 496.47,289.62 496.03,287.19 495.66,284.75 495.36,282.31 495.14,279.88 495.01,277.44 494.95,275.00 494.98,272.56 495.09,270.12 495.28,267.69 495.54,265.25 495.87,262.81 496.26,260.38 496.70,257.94 497.18,255.50 497.68,253.06 498.20,250.62 498.73,248.19 499.25,245.75 499.75,243.31 500.22,240.88 500.65,238.44 501.03,236.00 501.35,233.56 501.61,231.12 501.81,228.69 501.93,226.25 501.98,223.81 501.97,221.38 501.88,218.94 501.73,216.50 501.53,214.06 501.27,211.62 500.96,209.19 500.62,206.75 500.26,204.31 499.87,201.88 499.49,199.44 499.11,197.00 498.74,194.56 498.40,192.12 498.10,189.69 497.84,187.25 497.63,184.81 497.47,182.38 497.38,179.94 497.35,177.50 497.39,175.06 497.48,172.62 497.64,170.19 497.86,167.75 498.12,165.31 498.44,162.87 498.78,160.44 499.16,158.00 499.55,155.56 499.95,153.12 500.35,150.69 500.73,148.25 501.10,145.81 501.42,143.38 501.71,140.94 501.95,138.50 502.13,136.06 502.25,133.62 502.31,131.19 502.30,128.75 502.22,126.31 502.07,123.88 501.86,121.44 501.60,119.00 501.27,116.56 500.90,114.12 500.49,111.69 500.05,109.25 499.59,106.81 499.12,104.38 498.66,101.94 498.20,99.50 497.78,97.06 497.38,94.63 497.03,92.19 496.74,89.75 496.50,87.31 496.34,84.88 496.25,82.44 496.23,80.00 523.77,80.00 523.75,82.44 523.66,84.88 523.50,87.31 523.26,89.75 522.97,92.19 522.62,94.63 522.22,97.06 521.80,99.50 521.34,101.94 520.88,104.38 520.41,106.81 519.95,109.25 519.51,111.69 519.10,114.12 518.73,116.56 518.40,119.00 518.14,121.44 517.93,123.88 517.78,126.31 517.70,128.75 517.69,131.19 517.75,133.62 517.87,136.06 518.05,138.50 518.29,140.94 518.58,143.38 518.90,145.81 519.27,148.25 519.65,150.69 520.05,153.12 520.45,155.56 520.84,158.00 521.22,160.44 521.56,162.87 521.88,165.31 522.14,167.75 522.36,170.19 522.52,172.62 522.61,175.06 522.65,177.50 522.62,179.94 522.53,182.38 522.37,184.81 522.16,187.25 521.90,189.69 521.60,192.12 521.26,194.56 520.89,197.00 520.51,199.44 520.13,201.88 519.74,204.31 519.38,206.75 519.04,209.19 518.73,211.62 518.47,214.06 518.27,216.50 518.12,218.94 518.03,221.38 518.02,223.81 518.07,226.25 518.19,228.69 518.39,231.12 518.65,233.56 518.97,236.00 519.35,238.44 519.78,240.88 520.25,243.31 520.75,245.75 521.27,248.19 521.80,250.62 522.32,253.06 522.82,255.50 523.30,257.94 523.74,260.38 524.13,262.81 524.46,265.25 524.72,267.69 524.91,270.12 525.02,272.56 525.05,275.00 524.99,277.44 524.86,279.88 524.64,282.31 524.34,284.75 523.97,287.19 523.53,289.62 523.04,292.06 522.50,294.50 521.92,296.94 521.32,299.38 520.70,301.81 520.07,304.25 519.45,306.69 518.84,309.12 518.25,311.56 517.69,314.00 517.17,316.44 516.69,318.88 516.25,321.31 515.87,323.75 515.54,326.19 515.26,328.62 515.03,331.06 514.85,333.50 514.72,335.94 514.63,338.38 514.58,340.81 514.57,343.25 514.58,345.69 514.62,348.12 514.68,350.56 514.75,353.00 514.82,355.44 514.89,357.88 514.96,360.31 515.02,362.75 515.07,365.19 515.09,367.62 515.10,370.06 515.09,372.50 515.05,374.94 514.98,377.38 514.89,379.81 514.78,382.25 514.64,384.69 514.48,387.12 514.30,389.56 514.10,392.00 513.89,394.44 513.67,396.88 513.44,399.31 513.21,401.75 512.97,404.19 512.74,406.62 512.50,409.06 512.28,411.50 512.06,413.94 511.85,416.38 511.65,418.81 511.47,421.25 511.29,423.69 511.14,426.12 510.99,428.56 510.86,431.00 510.74,433.44 510.63,435.88 510.54,438.31 510.45,440.75 510.38,443.19 510.32,445.62 510.26,448.06 510.22,450.50 510.18,452.94 510.15,455.38 510.12,457.81 510.10,460.25 510.08,462.69 510.06,465.12 510.05,467.56 510.04,470.00" fill="#1d4ed8" fill-opacity="0.35" stroke="#1d4ed8" stroke-width="2" />
<circle cx="510.00" cy="80.00" r="3.2" fill="#1d4ed8" fill-opacity="0.75" />
<circle cx="510.00" cy="80.00" r="3.2" fill="#1d4ed8" fill-opacity="0.75" />
<circle cx="510.00" cy="80.00" r="3.2" fill="#1d4ed8" fill-opacity="0.75" />
<circle cx="510.00" cy="80.00" r="3.2" fill="#1d4ed8" fill-opacity="0.75" />
<circle cx="510.00" cy="80.00" r="3.2" fill="#1d4ed8" fill-opacity="0.75" />
<circle cx="510.00" cy="80.00" r="3.2" fill="#1d4ed8" fill-opacity="0.75" />
<circle cx="510.00" cy="80.00" r="3.2" fill="#1d4ed8" fill-opacity="0.75" />
<circle cx="510.00" cy="80.00" r="3.2" fill="#1d4ed8" fill-opacity="0.75" />
<circle cx="510.00" cy="275.00" r="3.2" fill="#1d4ed8" fill-opacity="0.75" />
<circle cx="510.00" cy="177.50" r="3.2" fill="#1d4ed8" fill-opacity="0.75" />
<circle cx="510.00" cy="275.00" r="3.2" fill="#1d4ed8" fill-opacity="0.75" />
<circle cx="510.00" cy="80.00" r="3.2" fill="#1d4ed8" fill-opacity="0.75" />
<circle cx="510.00" cy="177.50" r="3.2" fill="#1d4ed8" fill-opacity="0.75" />
<circle cx="510.00" cy="275.00" r="3.2" fill="#1d4ed8" fill-opacity="0.75" />
<circle cx="510.00" cy="177.50" r="3.2" fill="#1d4ed8" fill-opacity="0.75" />
<circle cx="510.00" cy="275.00" r="3.2" fill="#1d4ed8" fill-opacity="0.75" />
<circle cx="510.00" cy="275.00" r="3.2" fill="#1d4ed8" fill-opacity="0.75" />
<circle cx="510.00" cy="177.50" r="3.2" fill="#1d4ed8" fill-opacity="0.75" />
<circle cx="510.00" cy="275.00" r="3.2" fill="#1d4ed8" fill-opacity="0.75" />
<circle cx="510.00" cy="177.50" r="3.2" fill="#1d4ed8" fill-opacity="0.75" />
<circle cx="510.00" cy="372.50" r="3.2" fill="#1d4ed8" fill-opacity="0.75" />
<circle cx="510.00" cy="275.00" r="3.2" fill="#1d4ed8" fill-opacity="0.75" />
<circle cx="510.00" cy="372.50" r="3.2" fill="#1d4ed8" fill-opacity="0.75" />
<circle cx="510.00" cy="275.00" r="3.2" fill="#1d4ed8" fill-opacity="0.75" />
<circle cx="510.00" cy="372.50" r="3.2" fill="#1d4ed8" fill-opacity="0.75" />
<circle cx="510.00" cy="177.50" r="3.2" fill="#1d4ed8" fill-opacity="0.75" />
<circle cx="510.00" cy="80.00" r="3.2" fill="#1d4ed8" fill-opacity="0.75" />
<circle cx="510.00" cy="177.50" r="3.2" fill="#1d4ed8" fill-opacity="0.75" />
<circle cx="510.00" cy="275.00" r="3.2" fill="#1d4ed8" fill-opacity="0.75" />
<circle cx="510.00" cy="275.00" r="3.2" fill="#1d4ed8" fill-opacity="0.75" />
<circle cx="510.00" cy="177.50" r="3.2" fill="#1d4ed8" fill-opacity="0.75" />
<circle cx="510.00" cy="80.00" r="3.2" fill="#1d4ed8" fill-opacity="0.75" />
<circle cx="510.00" cy="177.50" r="3.2" fill="#1d4ed8" fill-opacity="0.75" />
<circle cx="510.00" cy="275.00" r="3.2" fill="#1d4ed8" fill-opacity="0.75" />
<circle cx="510.00" cy="177.50" r="3.2" fill="#1d4ed8" fill-opacity="0.75" />
<circle cx="510.00" cy="275.00" r="3.2" fill="#1d4ed8" fill-opacity="0.75" />
<circle cx="510.00" cy="372.50" r="3.2" fill="#1d4ed8" fill-opacity="0.75" />
<line x1="498.00" y1="177.50" x2="522.00" y2="177.50" stroke="#111827" stroke-width="2.5" />
<line x1="510.00" y1="275.00" x2="510.00" y2="80.00" stroke="#111827" stroke-width="1.5" stroke-dasharray="4 3" />
<text x="510.00" y="167.50" text-anchor="middle" font-family="Verdana, sans-serif" font-size="11" fill="#111827">M 3.76</text>
<rect x="760" y="20" width="16" height="16" rx="3" fill="#1d4ed8" fill-opacity="0.55" stroke="#1d4ed8" />
<text x="784" y="33" font-family="Verdana, sans-serif" font-size="12" fill="#374151">Phase 2</text>
</svg>