<svg xmlns="http://www.w3.org/2000/svg" width="980" height="560" viewBox="0 0 980 560">
<rect width="100%" height="100%" fill="#fbfaf7" />
<text x="40" y="35" font-family="Verdana, sans-serif" font-size="22" font-weight="700" fill="#1f2937">Phase 2: mean tool satisfaction by participant</text>
<line x1="80" y1="470.00" x2="940" y2="470.00" stroke="#d1d5db" stroke-width="1" />
<text x="68" y="475.00" text-anchor="end" font-family="Verdana, sans-serif" font-size="12" fill="#4b5563">0</text>
<line x1="80" y1="392.00" x2="940" y2="392.00" stroke="#d1d5db" stroke-width="1" />
<text x="68" y="397.00" text-anchor="end" font-family="Verdana, sans-serif" font-size="12" fill="#4b5563">1</text>
<line x1="80" y1="314.00" x2="940" y2="314.00" stroke="#d1d5db" stroke-width="1" />
<text x="68" y="319.00" text-anchor="end" font-family="Verdana, sans-serif" font-size="12" fill="#4b5563">2</text>
<line x1="80" y1="236.00" x2="940" y2="236.00" stroke="#d1d5db" stroke-width="1" />
<text x="68" y="241.00" text-anchor="end" font-family="Verdana, sans-serif" font-size="12" fill="#4b5563">3</text>
<line x1="80" y1="158.00" x2="940" y2="158.00" stroke="#d1d5db" stroke-width="1" />
<text x="68" y="163.00" text-anchor="end" font-family="Verdana, sans-serif" font-size="12" fill="#4b5563">4</text>
<line x1="80" y1="80.00" x2="940" y2="80.00" stroke="#d1d5db" stroke-width="1" />
<text x="68" y="85.00" text-anchor="end" font-family="Verdana, sans-serif" font-size="12" fill="#4b5563">5</text>
<line x1="80" y1="80" x2="80" y2="470" stroke="#111827" stroke-width="2" />
<line x1="80" y1="470" x2="940" y2="470" stroke="#111827" stroke-width="2" />
<text x="22" y="275.00" transform="rotate(-90 22 275.00)" font-family="Verdana, sans-serif" font-size="13" fill="#374151">Mean satisfaction (1-5)</text>
<text x="187.50" y="515" text-anchor="middle" font-family="Verdana, sans-serif" font-size="12" fill="#374151">P04</text>
<rect x="112.25" y="314.00" width="126.42" height="156.00" rx="4" fill="#1d4ed8" />
<text x="175.46" y="306.00" text-anchor="middle" font-family="Verdana, sans-serif" font-size="11" fill="#111827">2.00</text>
<text x="402.50" y="515" text-anchor="middle" font-family="Verdana, sans-serif" font-size="12" fill="#374151">P17</text>
<rect x="327.25" y="137.72" width="126.42" height="332.28" rx="4" fill="#1d4ed8" />
<text x="390.46" y="129.72" text-anchor="middle" font-family="Verdana, sans-serif" font-size="11" fill="#111827">4.26</text>
<text x="617.50" y="515" text-anchor="middle" font-family="Verdana, sans-serif" font-size="12" fill="#374151">P19</text>
<rect x="542.25" y="211.82" width="126.42" height="258.18" rx="4" fill="#1d4ed8" />
<text x="605.46" y="203.82" text-anchor="middle" font-family="Verdana, sans-serif" font-size="11" fill="#111827">3.31</text>
<text x="832.50" y="515" text-anchor="middle" font-family="Verdana, sans-serif" font-size="12" fill="#374151">P20</text>
<rect x="757.25" y="176.72" width="126.42" height="293.28" rx="4" fill="#1d4ed8" />
<text x="820.46" y="168.72" text-anchor="middle" font-family="Verdana, sans-serif" font-size="11" fill="#111827">3.76</text>
<rect x="760" y="20" width="16" height="16" rx="3" fill="#1d4ed8" />
<text x="784" y="33" font-family="Verdana, sans-serif" font-size="12" fill="#374151">Phase 2</text>
</svg>