<svg xmlns="http://www.w3.org/2000/svg" width="980" height="560" viewBox="0 0 980 560">
<rect x="0" y="0" width="100%" height="100%" fill="#ffffff" />
<line x1="90" y1="430.00" x2="940" y2="430.00" stroke="#d1d5db" stroke-width="1" />
<text x="76" y="435.00" text-anchor="end" font-family="Arial, sans-serif" font-size="12" fill="#374151">1</text>
<line x1="90" y1="340.00" x2="940" y2="340.00" stroke="#d1d5db" stroke-width="1" />
<text x="76" y="345.00" text-anchor="end" font-family="Arial, sans-serif" font-size="12" fill="#374151">2</text>
<line x1="90" y1="250.00" x2="940" y2="250.00" stroke="#d1d5db" stroke-width="1" />
<text x="76" y="255.00" text-anchor="end" font-family="Arial, sans-serif" font-size="12" fill="#374151">3</text>
<line x1="90" y1="160.00" x2="940" y2="160.00" stroke="#d1d5db" stroke-width="1" />
<text x="76" y="165.00" text-anchor="end" font-family="Arial, sans-serif" font-size="12" fill="#374151">4</text>
<line x1="90" y1="70.00" x2="940" y2="70.00" stroke="#d1d5db" stroke-width="1" />
<text x="76" y="75.00" text-anchor="end" font-family="Arial, sans-serif" font-size="12" fill="#374151">5</text>
<line x1="90" y1="70" x2="90" y2="430" stroke="#111827" stroke-width="1.5" />
<line x1="90" y1="430" x2="940" y2="430" stroke="#111827" stroke-width="1.5" />
<line x1="515.00" y1="70" x2="515.00" y2="430" stroke="#4b5563" stroke-width="1.2" />
<text x="28" y="250.00" transform="rotate(-90 28 250.00)" font-family="Arial, sans-serif" font-size="13" fill="#111827">Quality (1-5)</text>
<text x="515.00" y="535" text-anchor="middle" font-family="Arial, sans-serif" font-size="13" fill="#111827">Group</text>
<polygon points="506.15,430.00 506.16,427.75 506.22,425.50 506.32,423.25 506.47,421.00 506.66,418.75 506.88,416.50 507.12,414.25 507.39,412.00 507.67,409.75 507.97,407.50 508.26,405.25 508.54,403.00 508.81,400.75 509.06,398.50 509.28,396.25 509.47,394.00 509.62,391.75 509.73,389.50 509.80,387.25 509.82,385.00 509.80,382.75 509.73,380.50 509.62,378.25 509.46,376.00 509.27,373.75 509.05,371.50 508.80,369.25 508.53,367.00 508.24,364.75 507.94,362.50 507.64,360.25 507.35,358.00 507.06,355.75 506.79,353.50 506.55,351.25 506.33,349.00 506.14,346.75 505.98,344.50 505.85,342.25 505.75,340.00 505.69,337.75 505.64,335.50 505.62,333.25 505.60,331.00 505.59,328.75 505.57,326.50 505.53,324.25 505.45,322.00 505.33,319.75 505.15,317.50 504.88,315.25 504.52,313.00 504.06,310.75 503.48,308.50 502.76,306.25 501.90,304.00 500.88,301.75 499.70,299.50 498.37,297.25 496.87,295.00 495.21,292.75 493.39,290.50 491.44,288.25 489.36,286.00 487.18,283.75 484.91,281.50 482.59,279.25 480.24,277.00 477.90,274.75 475.60,272.50 473.37,270.25 471.25,268.00 469.28,265.75 467.49,263.50 465.92,261.25 464.58,259.00 463.51,256.75 462.71,254.50 462.22,252.25 462.03,250.00 462.14,247.75 462.56,245.50 463.26,243.25 464.24,241.00 465.47,238.75 466.93,236.50 468.57,234.25 470.37,232.00 472.29,229.75 474.29,227.50 476.33,225.25 478.37,223.00 480.38,220.75 482.31,218.50 484.14,216.25 485.83,214.00 487.37,211.75 488.72,209.50 489.87,207.25 490.82,205.00 491.56,202.75 492.08,200.50 492.40,198.25 492.51,196.00 492.45,193.75 492.21,191.50 491.83,189.25 491.32,187.00 490.72,184.75 490.04,182.50 489.32,180.25 488.59,178.00 487.87,175.75 487.20,173.50 486.59,171.25 486.06,169.00 485.64,166.75 485.35,164.50 485.19,162.25 485.18,160.00 485.31,157.75 485.60,155.50 486.02,153.25 486.59,151.00 487.29,148.75 488.09,146.50 489.00,144.25 489.98,142.00 491.02,139.75 492.09,137.50 493.18,135.25 494.25,133.00 495.30,130.75 496.30,128.50 497.22,126.25 498.06,124.00 498.80,121.75 499.43,119.50 499.94,117.25 500.32,115.00 500.57,112.75 500.70,110.50 500.69,108.25 500.57,106.00 500.34,103.75 500.02,101.50 499.60,99.25 499.12,97.00 498.59,94.75 498.02,92.50 497.44,90.25 496.86,88.00 496.30,85.75 495.78,83.50 495.32,81.25 494.93,79.00 494.62,76.75 494.40,74.50 494.29,72.25 494.29,70.00 515.00,70.00 515.00,72.25 515.00,74.50 515.00,76.75 515.00,79.00 515.00,81.25 515.00,83.50 515.00,85.75 515.00,88.00 515.00,90.25 515.00,92.50 515.00,94.75 515.00,97.00 515.00,99.25 515.00,101.50 515.00,103.75 515.00,106.00 515.00,108.25 515.00,110.50 515.00,112.75 515.00,115.00 515.00,117.25 515.00,119.50 515.00,121.75 515.00,124.00 515.00,126.25 515.00,128.50 515.00,130.75 515.00,133.00 515.00,135.25 515.00,137.50 515.00,139.75 515.00,142.00 515.00,144.25 515.00,146.50 515.00,148.75 515.00,151.00 515.00,153.25 515.00,155.50 515.00,157.75 515.00,160.00 515.00,162.25 515.00,164.50 515.00,166.75 515.00,169.00 515.00,171.25 515.00,173.50 515.00,175.75 515.00,178.00 515.00,180.25 515.00,182.50 515.00,184.75 515.00,187.00 515.00,189.25 515.00,191.50 515.00,193.75 515.00,196.00 515.00,198.25 515.00,200.50 515.00,202.75 515.00,205.00 515.00,207.25 515.00,209.50 515.00,211.75 515.00,214.00 515.00,216.25 515.00,218.50 515.00,220.75 515.00,223.00 515.00,225.25 515.00,227.50 515.00,229.75 515.00,232.00 515.00,234.25 515.00,236.50 515.00,238.75 515.00,241.00 515.00,243.25 515.00,245.50 515.00,247.75 515.00,250.00 515.00,252.25 515.00,254.50 515.00,256.75 515.00,259.00 515.00,261.25 515.00,263.50 515.00,265.75 515.00,268.00 515.00,270.25 515.00,272.50 515.00,274.75 515.00,277.00 515.00,279.25 515.00,281.50 515.00,283.75 515.00,286.00 515.00,288.25 515.00,290.50 515.00,292.75 515.00,295.00 515.00,297.25 515.00,299.50 515.00,301.75 515.00,304.00 515.00,306.25 515.00,308.50 515.00,310.75 515.00,313.00 515.00,315.25 515.00,317.50 515.00,319.75 515.00,322.00 515.00,324.25 515.00,326.50 515.00,328.75 515.00,331.00 515.00,333.25 515.00,335.50 515.00,337.75 515.00,340.00 515.00,342.25 515.00,344.50 515.00,346.75 515.00,349.00 515.00,351.25 515.00,353.50 515.00,355.75 515.00,358.00 515.00,360.25 515.00,362.50 515.00,364.75 515.00,367.00 515.00,369.25 515.00,371.50 515.00,373.75 515.00,376.00 515.00,378.25 515.00,380.50 515.00,382.75 515.00,385.00 515.00,387.25 515.00,389.50 515.00,391.75 515.00,394.00 515.00,396.25 515.00,398.50 515.00,400.75 515.00,403.00 515.00,405.25 515.00,407.50 515.00,409.75 515.00,412.00 515.00,414.25 515.00,416.50 515.00,418.75 515.00,421.00 515.00,423.25 515.00,425.50 515.00,427.75 515.00,430.00" fill="#3b82b6" fill-opacity="0.9" stroke="#4b5563" stroke-width="1.2" />
<polygon points="515.00,430.00 515.00,427.75 515.00,425.50 515.00,423.25 515.00,421.00 515.00,418.75 515.00,416.50 515.00,414.25 515.00,412.00 515.00,409.75 515.00,407.50 515.00,405.25 515.00,403.00 515.00,400.75 515.00,398.50 515.00,396.25 515.00,394.00 515.00,391.75 515.00,389.50 515.00,387.25 515.00,385.00 515.00,382.75 515.00,380.50 515.00,378.25 515.00,376.00 515.00,373.75 515.00,371.50 515.00,369.25 515.00,367.00 515.00,364.75 515.00,362.50 515.00,360.25 515.00,358.00 515.00,355.75 515.00,353.50 515.00,351.25 515.00,349.00 515.00,346.75 515.00,344.50 515.00,342.25 515.00,340.00 515.00,337.75 515.00,335.50 515.00,333.25 515.00,331.00 515.00,328.75 515.00,326.50 515.00,324.25 515.00,322.00 515.00,319.75 515.00,317.50 515.00,315.25 515.00,313.00 515.00,310.75 515.00,308.50 515.00,306.25 515.00,304.00 515.00,301.75 515.00,299.50 515.00,297.25 515.00,295.00 515.00,292.75 515.00,290.50 515.00,288.25 515.00,286.00 515.00,283.75 515.00,281.50 515.00,279.25 515.00,277.00 515.00,274.75 515.00,272.50 515.00,270.25 515.00,268.00 515.00,265.75 515.00,263.50 515.00,261.25 515.00,259.00 515.00,256.75 515.00,254.50 515.00,252.25 515.00,250.00 515.00,247.75 515.00,245.50 515.00,243.25 515.00,241.00 515.00,238.75 515.00,236.50 515.00,234.25 515.00,232.00 515.00,229.75 515.00,227.50 515.00,225.25 515.00,223.00 515.00,220.75 515.00,218.50 515.00,216.25 515.00,214.00 515.00,211.75 515.00,209.50 515.00,207.25 515.00,205.00 515.00,202.75 515.00,200.50 515.00,198.25 515.00,196.00 515.00,193.75 515.00,191.50 515.00,189.25 515.00,187.00 515.00,184.75 515.00,182.50 515.00,180.25 515.00,178.00 515.00,175.75 515.00,173.50 515.00,171.25 515.00,169.00 515.00,166.75 515.00,164.50 515.00,162.25 515.00,160.00 515.00,157.75 515.00,155.50 515.00,153.25 515.00,151.00 515.00,148.75 515.00,146.50 515.00,144.25 515.00,142.00 515.00,139.75 515.00,137.50 515.00,135.25 515.00,133.00 515.00,130.75 515.00,128.50 515.00,126.25 515.00,124.00 515.00,121.75 515.00,119.50 515.00,117.25 515.00,115.00 515.00,112.75 515.00,110.50 515.00,108.25 515.00,106.00 515.00,103.75 515.00,101.50 515.00,99.25 515.00,97.00 515.00,94.75 515.00,92.50 515.00,90.25 515.00,88.00 515.00,85.75 515.00,83.50 515.00,81.25 515.00,79.00 515.00,76.75 515.00,74.50 515.00,72.25 515.00,70.00 528.03,70.00 528.09,72.25 528.09,74.50 528.04,76.75 527.95,79.00 527.83,81.25 527.69,83.50 527.55,85.75 527.42,88.00 527.31,90.25 527.24,92.50 527.23,94.75 527.29,97.00 527.44,99.25 527.70,101.50 528.07,103.75 528.57,106.00 529.21,108.25 530.00,110.50 530.93,112.75 532.02,115.00 533.26,117.25 534.64,119.50 536.16,121.75 537.79,124.00 539.54,126.25 541.36,128.50 543.25,130.75 545.17,133.00 547.10,135.25 549.00,137.50 550.85,139.75 552.62,142.00 554.27,144.25 555.77,146.50 557.10,148.75 558.24,151.00 559.16,153.25 559.85,155.50 560.29,157.75 560.49,160.00 560.44,162.25 560.15,164.50 559.62,166.75 558.88,169.00 557.96,171.25 556.86,173.50 555.64,175.75 554.31,178.00 552.92,180.25 551.50,182.50 550.10,184.75 548.75,187.00 547.48,189.25 546.34,191.50 545.36,193.75 544.56,196.00 543.96,198.25 543.60,200.50 543.47,202.75 543.59,205.00 543.97,207.25 544.59,209.50 545.45,211.75 546.53,214.00 547.81,216.25 549.27,218.50 550.87,220.75 552.57,223.00 554.35,225.25 556.16,227.50 557.95,229.75 559.70,232.00 561.34,234.25 562.86,236.50 564.20,238.75 565.33,241.00 566.23,243.25 566.88,245.50 567.25,247.75 567.33,250.00 567.11,252.25 566.60,254.50 565.80,256.75 564.73,259.00 563.39,261.25 561.83,263.50 560.06,265.75 558.11,268.00 556.01,270.25 553.81,272.50 551.53,274.75 549.21,277.00 546.88,279.25 544.58,281.50 542.33,283.75 540.17,286.00 538.10,288.25 536.16,290.50 534.36,292.75 532.70,295.00 531.20,297.25 529.86,299.50 528.68,301.75 527.65,304.00 526.77,306.25 526.04,308.50 525.44,310.75 524.95,313.00 524.57,315.25 524.28,317.50 524.07,319.75 523.93,322.00 523.83,324.25 523.77,326.50 523.72,328.75 523.69,331.00 523.66,333.25 523.62,335.50 523.57,337.75 523.49,340.00 523.38,342.25 523.25,344.50 523.08,346.75 522.88,349.00 522.65,351.25 522.39,353.50 522.10,355.75 521.79,358.00 521.47,360.25 521.13,362.50 520.78,364.75 520.43,367.00 520.08,369.25 519.74,371.50 519.41,373.75 519.10,376.00 518.81,378.25 518.53,380.50 518.29,382.75 518.06,385.00 517.87,387.25 517.70,389.50 517.56,391.75 517.45,394.00 517.36,396.25 517.30,398.50 517.25,400.75 517.23,403.00 517.22,405.25 517.22,407.50 517.23,409.75 517.25,412.00 517.28,414.25 517.30,416.50 517.33,418.75 517.35,421.00 517.37,423.25 517.38,425.50 517.38,427.75 517.37,430.00" fill="#f28e2b" fill-opacity="0.9" stroke="#4b5563" stroke-width="1.2" />
<rect x="501.00" y="160.00" width="12.00" height="90.00" fill="white" stroke="#4b5563" stroke-width="1.2" />
<line x1="501.00" y1="250.00" x2="513.00" y2="250.00" stroke="#111827" stroke-width="1.6" />
<line x1="505.00" y1="70.00" x2="505.00" y2="160.00" stroke="#4b5563" stroke-width="1.1" />
<line x1="505.00" y1="250.00" x2="505.00" y2="430.00" stroke="#4b5563" stroke-width="1.1" />
<line x1="501.00" y1="70.00" x2="509.00" y2="70.00" stroke="#4b5563" stroke-width="1.1" />
<line x1="501.00" y1="430.00" x2="509.00" y2="430.00" stroke="#4b5563" stroke-width="1.1" />
<rect x="517.00" y="160.00" width="12.00" height="90.00" fill="white" stroke="#4b5563" stroke-width="1.2" />
<line x1="517.00" y1="250.00" x2="529.00" y2="250.00" stroke="#111827" stroke-width="1.6" />
<line x1="525.00" y1="70.00" x2="525.00" y2="160.00" stroke="#4b5563" stroke-width="1.1" />
<line x1="525.00" y1="250.00" x2="525.00" y2="430.00" stroke="#4b5563" stroke-width="1.1" />
<line x1="521.00" y1="70.00" x2="529.00" y2="70.00" stroke="#4b5563" stroke-width="1.1" />
<line x1="521.00" y1="430.00" x2="529.00" y2="430.00" stroke="#4b5563" stroke-width="1.1" />
<text x="433.40" y="498" text-anchor="middle" font-family="Arial, sans-serif" font-size="12.5" fill="#111827">Phase 1</text>
<text x="596.60" y="498" text-anchor="middle" font-family="Arial, sans-serif" font-size="12.5" fill="#111827">Phase 2</text>
<text x="433.40" y="516" text-anchor="middle" font-family="Arial, sans-serif" font-size="11.5" fill="#374151">n=82, M=3.37, SD=1.08</text>
<text x="596.60" y="516" text-anchor="middle" font-family="Arial, sans-serif" font-size="11.5" fill="#374151">n=104, M=3.48, SD=0.85</text>
<text x="490.00" y="30" text-anchor="middle" font-family="Arial, sans-serif" font-size="22" fill="#111827">Article quality: phase comparison</text>
</svg>