<svg xmlns="http://www.w3.org/2000/svg" width="980" height="560" viewBox="0 0 980 560">
<rect width="100%" height="100%" fill="#fbfaf7" />
<text x="40" y="35" font-family="Verdana, sans-serif" font-size="22" font-weight="700" fill="#1f2937">Phase 2: tool satisfaction</text>
<line x1="80" y1="470.00" x2="940" y2="470.00" stroke="#d1d5db" stroke-width="1" />
<text x="68" y="475.00" text-anchor="end" font-family="Verdana, sans-serif" font-size="12" fill="#4b5563">1</text>
<line x1="80" y1="372.50" x2="940" y2="372.50" stroke="#d1d5db" stroke-width="1" />
<text x="68" y="377.50" text-anchor="end" font-family="Verdana, sans-serif" font-size="12" fill="#4b5563">2</text>
<line x1="80" y1="275.00" x2="940" y2="275.00" stroke="#d1d5db" stroke-width="1" />
<text x="68" y="280.00" text-anchor="end" font-family="Verdana, sans-serif" font-size="12" fill="#4b5563">3</text>
<line x1="80" y1="177.50" x2="940" y2="177.50" stroke="#d1d5db" stroke-width="1" />
<text x="68" y="182.50" text-anchor="end" font-family="Verdana, sans-serif" font-size="12" fill="#4b5563">4</text>
<line x1="80" y1="80.00" x2="940" y2="80.00" stroke="#d1d5db" stroke-width="1" />
<text x="68" y="85.00" text-anchor="end" font-family="Verdana, sans-serif" font-size="12" fill="#4b5563">5</text>
<line x1="80" y1="80" x2="80" y2="470" stroke="#111827" stroke-width="2" />
<line x1="80" y1="470" x2="940" y2="470" stroke="#111827" stroke-width="2" />
<text x="22" y="275.00" transform="rotate(-90 22 275.00)" font-family="Verdana, sans-serif" font-size="13" fill="#374151">Satisfaction (1-5)</text>
<text x="510.00" y="515" text-anchor="middle" font-family="Verdana, sans-serif" font-size="12" fill="#374151">All participants</text>
<polygon points="509.02,470.00 509.01,467.56 509.01,465.12 509.02,462.69 509.02,460.25 509.03,457.81 509.04,455.38 509.05,452.94 509.06,450.50 509.07,448.06 509.08,445.62 509.08,443.19 509.08,440.75 509.07,438.31 509.05,435.88 509.02,433.44 508.98,431.00 508.94,428.56 508.88,426.12 508.81,423.69 508.73,421.25 508.64,418.81 508.53,416.38 508.42,413.94 508.30,411.50 508.17,409.06 508.03,406.62 507.89,404.19 507.75,401.75 507.60,399.31 507.46,396.88 507.32,394.44 507.19,392.00 507.07,389.56 506.95,387.12 506.85,384.69 506.76,382.25 506.69,379.81 506.63,377.38 506.59,374.94 506.56,372.50 506.55,370.06 506.56,367.62 506.58,365.19 506.61,362.75 506.65,360.31 506.70,357.88 506.75,355.44 506.80,353.00 506.84,350.56 506.88,348.12 506.91,345.69 506.92,343.25 506.91,340.81 506.88,338.38 506.82,335.94 506.73,333.50 506.61,331.06 506.45,328.62 506.27,326.19 506.04,323.75 505.78,321.31 505.49,318.88 505.17,316.44 504.81,314.00 504.44,311.56 504.04,309.12 503.63,306.69 503.20,304.25 502.78,301.81 502.36,299.38 501.95,296.94 501.56,294.50 501.19,292.06 500.86,289.62 500.56,287.19 500.31,284.75 500.10,282.31 499.94,279.88 499.83,277.44 499.78,275.00 499.78,272.56 499.83,270.12 499.93,267.69 500.08,265.25 500.26,262.81 500.47,260.38 500.71,257.94 500.96,255.50 501.22,253.06 501.48,250.62 501.72,248.19 501.94,245.75 502.13,243.31 502.27,240.88 502.37,238.44 502.42,236.00 502.40,233.56 502.32,231.12 502.17,228.69 501.94,226.25 501.65,223.81 501.28,221.38 500.86,218.94 500.37,216.50 499.82,214.06 499.23,211.62 498.61,209.19 497.96,206.75 497.30,204.31 496.63,201.88 495.98,199.44 495.36,197.00 494.77,194.56 494.23,192.12 493.75,189.69 493.34,187.25 493.01,184.81 492.77,182.38 492.62,179.94 492.56,177.50 492.60,175.06 492.74,172.62 492.96,170.19 493.27,167.75 493.65,165.31 494.11,162.87 494.62,160.44 495.17,158.00 495.76,155.56 496.36,153.12 496.97,150.69 497.57,148.25 498.15,145.81 498.69,143.38 499.18,140.94 499.62,138.50 500.00,136.06 500.30,133.62 500.53,131.19 500.67,128.75 500.73,126.31 500.71,123.88 500.62,121.44 500.44,119.00 500.20,116.56 499.90,114.12 499.55,111.69 499.16,109.25 498.74,106.81 498.30,104.38 497.85,101.94 497.42,99.50 497.00,97.06 496.61,94.63 496.27,92.19 495.98,89.75 495.75,87.31 495.59,84.88 495.50,82.44 495.49,80.00 524.51,80.00 524.50,82.44 524.41,84.88 524.25,87.31 524.02,89.75 523.73,92.19 523.39,94.63 523.00,97.06 522.58,99.50 522.15,101.94 521.70,104.38 521.26,106.81 520.84,109.25 520.45,111.69 520.10,114.12 519.80,116.56 519.56,119.00 519.38,121.44 519.29,123.88 519.27,126.31 519.33,128.75 519.47,131.19 519.70,133.62 520.00,136.06 520.38,138.50 520.82,140.94 521.31,143.38 521.85,145.81 522.43,148.25 523.03,150.69 523.64,153.12 524.24,155.56 524.83,158.00 525.38,160.44 525.89,162.87 526.35,165.31 526.73,167.75 527.04,170.19 527.26,172.62 527.40,175.06 527.44,177.50 527.38,179.94 527.23,182.38 526.99,184.81 526.66,187.25 526.25,189.69 525.77,192.12 525.23,194.56 524.64,197.00 524.02,199.44 523.37,201.88 522.70,204.31 522.04,206.75 521.39,209.19 520.77,211.62 520.18,214.06 519.63,216.50 519.14,218.94 518.72,221.38 518.35,223.81 518.06,226.25 517.83,228.69 517.68,231.12 517.60,233.56 517.58,236.00 517.63,238.44 517.73,240.88 517.87,243.31 518.06,245.75 518.28,248.19 518.52,250.62 518.78,253.06 519.04,255.50 519.29,257.94 519.53,260.38 519.74,262.81 519.92,265.25 520.07,267.69 520.17,270.12 520.22,272.56 520.22,275.00 520.17,277.44 520.06,279.88 519.90,282.31 519.69,284.75 519.44,287.19 519.14,289.62 518.81,292.06 518.44,294.50 518.05,296.94 517.64,299.38 517.22,301.81 516.80,304.25 516.37,306.69 515.96,309.12 515.56,311.56 515.19,314.00 514.83,316.44 514.51,318.88 514.22,321.31 513.96,323.75 513.73,326.19 513.55,328.62 513.39,331.06 513.27,333.50 513.18,335.94 513.12,338.38 513.09,340.81 513.08,343.25 513.09,345.69 513.12,348.12 513.16,350.56 513.20,353.00 513.25,355.44 513.30,357.88 513.35,360.31 513.39,362.75 513.42,365.19 513.44,367.62 513.45,370.06 513.44,372.50 513.41,374.94 513.37,377.38 513.31,379.81 513.24,382.25 513.15,384.69 513.05,387.12 512.93,389.56 512.81,392.00 512.68,394.44 512.54,396.88 512.40,399.31 512.25,401.75 512.11,404.19 511.97,406.62 511.83,409.06 511.70,411.50 511.58,413.94 511.47,416.38 511.36,418.81 511.27,421.25 511.19,423.69 511.12,426.12 511.06,428.56 511.02,431.00 510.98,433.44 510.95,435.88 510.93,438.31 510.92,440.75 510.92,443.19 510.92,445.62 510.93,448.06 510.94,450.50 510.95,452.94 510.96,455.38 510.97,457.81 510.98,460.25 510.98,462.69 510.99,465.12 510.99,467.56 510.98,470.00" fill="#1d4ed8" fill-opacity="0.35" stroke="#1d4ed8" stroke-width="2" />
<circle cx="510.00" cy="372.50" r="3.2" fill="#1d4ed8" fill-opacity="0.75" />
<circle cx="510.00" cy="275.00" r="3.2" fill="#1d4ed8" fill-opacity="0.75" />
<circle cx="510.00" cy="275.00" r="3.2" fill="#1d4ed8" fill-opacity="0.75" />
<circle cx="510.00" cy="275.00" r="3.2" fill="#1d4ed8" fill-opacity="0.75" />
<circle cx="510.00" cy="470.00" r="3.2" fill="#1d4ed8" fill-opacity="0.75" />
<circle cx="510.00" cy="80.00" r="3.2" fill="#1d4ed8" fill-opacity="0.75" />
<circle cx="510.00" cy="80.00" r="3.2" fill="#1d4ed8" fill-opacity="0.75" />
<circle cx="510.00" cy="80.00" r="3.2" fill="#1d4ed8" fill-opacity="0.75" />
<circle cx="510.00" cy="177.50" r="3.2" fill="#1d4ed8" fill-opacity="0.75" />
<circle cx="510.00" cy="177.50" r="3.2" fill="#1d4ed8" fill-opacity="0.75" />
<circle cx="510.00" cy="80.00" r="3.2" fill="#1d4ed8" fill-opacity="0.75" />
<circle cx="510.00" cy="177.50" r="3.2" fill="#1d4ed8" fill-opacity="0.75" />
<circle cx="510.00" cy="177.50" r="3.2" fill="#1d4ed8" fill-opacity="0.75" />
<circle cx="510.00" cy="177.50" r="3.2" fill="#1d4ed8" fill-opacity="0.75" />
<circle cx="510.00" cy="80.00" r="3.2" fill="#1d4ed8" fill-opacity="0.75" />
<circle cx="510.00" cy="177.50" r="3.2" fill="#1d4ed8" fill-opacity="0.75" />
<circle cx="510.00" cy="80.00" r="3.2" fill="#1d4ed8" fill-opacity="0.75" />
<circle cx="510.00" cy="177.50" r="3.2" fill="#1d4ed8" fill-opacity="0.75" />
<circle cx="510.00" cy="80.00" r="3.2" fill="#1d4ed8" fill-opacity="0.75" />
<circle cx="510.00" cy="80.00" r="3.2" fill="#1d4ed8" fill-opacity="0.75" />
<circle cx="510.00" cy="80.00" r="3.2" fill="#1d4ed8" fill-opacity="0.75" />
<circle cx="510.00" cy="177.50" r="3.2" fill="#1d4ed8" fill-opacity="0.75" />
<circle cx="510.00" cy="177.50" r="3.2" fill="#1d4ed8" fill-opacity="0.75" />
<circle cx="510.00" cy="177.50" r="3.2" fill="#1d4ed8" fill-opacity="0.75" />
<circle cx="510.00" cy="80.00" r="3.2" fill="#1d4ed8" fill-opacity="0.75" />
<circle cx="510.00" cy="80.00" r="3.2" fill="#1d4ed8" fill-opacity="0.75" />
<circle cx="510.00" cy="80.00" r="3.2" fill="#1d4ed8" fill-opacity="0.75" />
<circle cx="510.00" cy="80.00" r="3.2" fill="#1d4ed8" fill-opacity="0.75" />
<circle cx="510.00" cy="80.00" r="3.2" fill="#1d4ed8" fill-opacity="0.75" />
<circle cx="510.00" cy="177.50" r="3.2" fill="#1d4ed8" fill-opacity="0.75" />
<circle cx="510.00" cy="177.50" r="3.2" fill="#1d4ed8" fill-opacity="0.75" />
<circle cx="510.00" cy="177.50" r="3.2" fill="#1d4ed8" fill-opacity="0.75" />
<circle cx="510.00" cy="275.00" r="3.2" fill="#1d4ed8" fill-opacity="0.75" />
<circle cx="510.00" cy="177.50" r="3.2" fill="#1d4ed8" fill-opacity="0.75" />
<circle cx="510.00" cy="80.00" r="3.2" fill="#1d4ed8" fill-opacity="0.75" />
<circle cx="510.00" cy="80.00" r="3.2" fill="#1d4ed8" fill-opacity="0.75" />
<circle cx="510.00" cy="80.00" r="3.2" fill="#1d4ed8" fill-opacity="0.75" />
<circle cx="510.00" cy="177.50" r="3.2" fill="#1d4ed8" fill-opacity="0.75" />
<circle cx="510.00" cy="80.00" r="3.2" fill="#1d4ed8" fill-opacity="0.75" />
<circle cx="510.00" cy="177.50" r="3.2" fill="#1d4ed8" fill-opacity="0.75" />
<circle cx="510.00" cy="275.00" r="3.2" fill="#1d4ed8" fill-opacity="0.75" />
<circle cx="510.00" cy="80.00" r="3.2" fill="#1d4ed8" fill-opacity="0.75" />
<circle cx="510.00" cy="177.50" r="3.2" fill="#1d4ed8" fill-opacity="0.75" />
<circle cx="510.00" cy="275.00" r="3.2" fill="#1d4ed8" fill-opacity="0.75" />
<circle cx="510.00" cy="275.00" r="3.2" fill="#1d4ed8" fill-opacity="0.75" />
<circle cx="510.00" cy="470.00" r="3.2" fill="#1d4ed8" fill-opacity="0.75" />
<circle cx="510.00" cy="177.50" r="3.2" fill="#1d4ed8" fill-opacity="0.75" />
<circle cx="510.00" cy="177.50" r="3.2" fill="#1d4ed8" fill-opacity="0.75" />
<circle cx="510.00" cy="177.50" r="3.2" fill="#1d4ed8" fill-opacity="0.75" />
<circle cx="510.00" cy="177.50" r="3.2" fill="#1d4ed8" fill-opacity="0.75" />
<circle cx="510.00" cy="177.50" r="3.2" fill="#1d4ed8" fill-opacity="0.75" />
<circle cx="510.00" cy="177.50" r="3.2" fill="#1d4ed8" fill-opacity="0.75" />
<circle cx="510.00" cy="275.00" r="3.2" fill="#1d4ed8" fill-opacity="0.75" />
<circle cx="510.00" cy="275.00" r="3.2" fill="#1d4ed8" fill-opacity="0.75" />
<circle cx="510.00" cy="177.50" r="3.2" fill="#1d4ed8" fill-opacity="0.75" />
<circle cx="510.00" cy="372.50" r="3.2" fill="#1d4ed8" fill-opacity="0.75" />
<circle cx="510.00" cy="372.50" r="3.2" fill="#1d4ed8" fill-opacity="0.75" />
<circle cx="510.00" cy="177.50" r="3.2" fill="#1d4ed8" fill-opacity="0.75" />
<circle cx="510.00" cy="177.50" r="3.2" fill="#1d4ed8" fill-opacity="0.75" />
<circle cx="510.00" cy="80.00" r="3.2" fill="#1d4ed8" fill-opacity="0.75" />
<circle cx="510.00" cy="80.00" r="3.2" fill="#1d4ed8" fill-opacity="0.75" />
<circle cx="510.00" cy="80.00" r="3.2" fill="#1d4ed8" fill-opacity="0.75" />
<circle cx="510.00" cy="80.00" r="3.2" fill="#1d4ed8" fill-opacity="0.75" />
<circle cx="510.00" cy="80.00" r="3.2" fill="#1d4ed8" fill-opacity="0.75" />
<circle cx="510.00" cy="80.00" r="3.2" fill="#1d4ed8" fill-opacity="0.75" />
<circle cx="510.00" cy="80.00" r="3.2" fill="#1d4ed8" fill-opacity="0.75" />
<circle cx="510.00" cy="80.00" r="3.2" fill="#1d4ed8" fill-opacity="0.75" />
<circle cx="510.00" cy="275.00" r="3.2" fill="#1d4ed8" fill-opacity="0.75" />
<circle cx="510.00" cy="177.50" r="3.2" fill="#1d4ed8" fill-opacity="0.75" />
<circle cx="510.00" cy="275.00" r="3.2" fill="#1d4ed8" fill-opacity="0.75" />
<circle cx="510.00" cy="80.00" r="3.2" fill="#1d4ed8" fill-opacity="0.75" />
<circle cx="510.00" cy="177.50" r="3.2" fill="#1d4ed8" fill-opacity="0.75" />
<circle cx="510.00" cy="275.00" r="3.2" fill="#1d4ed8" fill-opacity="0.75" />
<circle cx="510.00" cy="177.50" r="3.2" fill="#1d4ed8" fill-opacity="0.75" />
<circle cx="510.00" cy="275.00" r="3.2" fill="#1d4ed8" fill-opacity="0.75" />
<circle cx="510.00" cy="275.00" r="3.2" fill="#1d4ed8" fill-opacity="0.75" />
<circle cx="510.00" cy="177.50" r="3.2" fill="#1d4ed8" fill-opacity="0.75" />
<circle cx="510.00" cy="275.00" r="3.2" fill="#1d4ed8" fill-opacity="0.75" />
<circle cx="510.00" cy="177.50" r="3.2" fill="#1d4ed8" fill-opacity="0.75" />
<circle cx="510.00" cy="372.50" r="3.2" fill="#1d4ed8" fill-opacity="0.75" />
<circle cx="510.00" cy="275.00" r="3.2" fill="#1d4ed8" fill-opacity="0.75" />
<circle cx="510.00" cy="372.50" r="3.2" fill="#1d4ed8" fill-opacity="0.75" />
<circle cx="510.00" cy="275.00" r="3.2" fill="#1d4ed8" fill-opacity="0.75" />
<circle cx="510.00" cy="372.50" r="3.2" fill="#1d4ed8" fill-opacity="0.75" />
<circle cx="510.00" cy="177.50" r="3.2" fill="#1d4ed8" fill-opacity="0.75" />
<circle cx="510.00" cy="80.00" r="3.2" fill="#1d4ed8" fill-opacity="0.75" />
<circle cx="510.00" cy="177.50" r="3.2" fill="#1d4ed8" fill-opacity="0.75" />
<circle cx="510.00" cy="275.00" r="3.2" fill="#1d4ed8" fill-opacity="0.75" />
<circle cx="510.00" cy="275.00" r="3.2" fill="#1d4ed8" fill-opacity="0.75" />
<circle cx="510.00" cy="177.50" r="3.2" fill="#1d4ed8" fill-opacity="0.75" />
<circle cx="510.00" cy="80.00" r="3.2" fill="#1d4ed8" fill-opacity="0.75" />
<circle cx="510.00" cy="177.50" r="3.2" fill="#1d4ed8" fill-opacity="0.75" />
<circle cx="510.00" cy="275.00" r="3.2" fill="#1d4ed8" fill-opacity="0.75" />
<circle cx="510.00" cy="177.50" r="3.2" fill="#1d4ed8" fill-opacity="0.75" />
<circle cx="510.00" cy="275.00" r="3.2" fill="#1d4ed8" fill-opacity="0.75" />
<circle cx="510.00" cy="372.50" r="3.2" fill="#1d4ed8" fill-opacity="0.75" />
<line x1="498.00" y1="177.50" x2="522.00" y2="177.50" stroke="#111827" stroke-width="2.5" />
<line x1="510.00" y1="275.00" x2="510.00" y2="80.00" stroke="#111827" stroke-width="1.5" stroke-dasharray="4 3" />
<text x="510.00" y="167.50" text-anchor="middle" font-family="Verdana, sans-serif" font-size="11" fill="#111827">M 3.89</text>
<rect x="760" y="20" width="16" height="16" rx="3" fill="#1d4ed8" fill-opacity="0.55" stroke="#1d4ed8" />
<text x="784" y="33" font-family="Verdana, sans-serif" font-size="12" fill="#374151">All participants</text>
</svg>