<svg xmlns="http://www.w3.org/2000/svg" width="980" height="560" viewBox="0 0 980 560">
<rect width="100%" height="100%" fill="#fbfaf7" />
<text x="40" y="35" font-family="Verdana, sans-serif" font-size="22" font-weight="700" fill="#1f2937">Mean article quality by participant</text>
<line x1="80" y1="470.00" x2="940" y2="470.00" stroke="#d1d5db" stroke-width="1" />
<text x="68" y="475.00" text-anchor="end" font-family="Verdana, sans-serif" font-size="12" fill="#4b5563">0</text>
<line x1="80" y1="392.00" x2="940" y2="392.00" stroke="#d1d5db" stroke-width="1" />
<text x="68" y="397.00" text-anchor="end" font-family="Verdana, sans-serif" font-size="12" fill="#4b5563">1</text>
<line x1="80" y1="314.00" x2="940" y2="314.00" stroke="#d1d5db" stroke-width="1" />
<text x="68" y="319.00" text-anchor="end" font-family="Verdana, sans-serif" font-size="12" fill="#4b5563">2</text>
<line x1="80" y1="236.00" x2="940" y2="236.00" stroke="#d1d5db" stroke-width="1" />
<text x="68" y="241.00" text-anchor="end" font-family="Verdana, sans-serif" font-size="12" fill="#4b5563">3</text>
<line x1="80" y1="158.00" x2="940" y2="158.00" stroke="#d1d5db" stroke-width="1" />
<text x="68" y="163.00" text-anchor="end" font-family="Verdana, sans-serif" font-size="12" fill="#4b5563">4</text>
<line x1="80" y1="80.00" x2="940" y2="80.00" stroke="#d1d5db" stroke-width="1" />
<text x="68" y="85.00" text-anchor="end" font-family="Verdana, sans-serif" font-size="12" fill="#4b5563">5</text>
<line x1="80" y1="80" x2="80" y2="470" stroke="#111827" stroke-width="2" />
<line x1="80" y1="470" x2="940" y2="470" stroke="#111827" stroke-width="2" />
<text x="22" y="275.00" transform="rotate(-90 22 275.00)" font-family="Verdana, sans-serif" font-size="13" fill="#374151">Mean quality (1-5)</text>
<text x="187.50" y="515" text-anchor="middle" font-family="Verdana, sans-serif" font-size="12" fill="#374151">P04</text>
<rect x="112.25" y="222.74" width="63.21" height="247.26" rx="4" fill="#b45309" />
<text x="143.85" y="214.74" text-anchor="middle" font-family="Verdana, sans-serif" font-size="11" fill="#111827">3.17</text>
<rect x="187.50" y="192.32" width="63.21" height="277.68" rx="4" fill="#0f766e" />
<text x="219.10" y="184.32" text-anchor="middle" font-family="Verdana, sans-serif" font-size="11" fill="#111827">3.56</text>
<text x="402.50" y="515" text-anchor="middle" font-family="Verdana, sans-serif" font-size="12" fill="#374151">P17</text>
<rect x="327.25" y="236.00" width="63.21" height="234.00" rx="4" fill="#b45309" />
<text x="358.86" y="228.00" text-anchor="middle" font-family="Verdana, sans-serif" font-size="11" fill="#111827">3.00</text>
<rect x="402.50" y="236.00" width="63.21" height="234.00" rx="4" fill="#0f766e" />
<text x="434.11" y="228.00" text-anchor="middle" font-family="Verdana, sans-serif" font-size="11" fill="#111827">3.00</text>
<text x="617.50" y="515" text-anchor="middle" font-family="Verdana, sans-serif" font-size="12" fill="#374151">P19</text>
<rect x="542.25" y="307.76" width="63.21" height="162.24" rx="4" fill="#b45309" />
<text x="573.86" y="299.76" text-anchor="middle" font-family="Verdana, sans-serif" font-size="11" fill="#111827">2.08</text>
<rect x="617.50" y="216.50" width="63.21" height="253.50" rx="4" fill="#0f766e" />
<text x="649.11" y="208.50" text-anchor="middle" font-family="Verdana, sans-serif" font-size="11" fill="#111827">3.25</text>
<text x="832.50" y="515" text-anchor="middle" font-family="Verdana, sans-serif" font-size="12" fill="#374151">P20</text>
<rect x="757.25" y="138.50" width="63.21" height="331.50" rx="4" fill="#b45309" />
<text x="788.86" y="130.50" text-anchor="middle" font-family="Verdana, sans-serif" font-size="11" fill="#111827">4.25</text>
<rect x="832.50" y="149.42" width="63.21" height="320.58" rx="4" fill="#0f766e" />
<text x="864.11" y="141.42" text-anchor="middle" font-family="Verdana, sans-serif" font-size="11" fill="#111827">4.11</text>
<rect x="760" y="20" width="16" height="16" rx="3" fill="#b45309" />
<text x="784" y="33" font-family="Verdana, sans-serif" font-size="12" fill="#374151">Phase 1</text>
<rect x="760" y="44" width="16" height="16" rx="3" fill="#0f766e" />
<text x="784" y="57" font-family="Verdana, sans-serif" font-size="12" fill="#374151">Phase 2</text>
</svg>